<?xml version="1.0" encoding="UTF-8"?>
<svg id="Layer_2" xmlns="http://www.w3.org/2000/svg" version="1.1" viewBox="0 0 287 320.2">
  <!-- Generator: Adobe Illustrator 29.0.0, SVG Export Plug-In . SVG Version: 2.1.0 Build 186)  -->
  <defs>
    <style>
      .st0 {
        stroke: #f68b21;
        stroke-miterlimit: 10;
        stroke-width: 1px;
      }

      .st0, .st1 {
        fill: #f68b1f;
      }
    </style>
  </defs>
  <path class="st1" d="M256.7,60.6h-123.5c-5.9-6.6-14.3-10.3-23.1-10.3H30.3c-17.1,0-30.9,13.8-30.9,30.9v164.7c0,17.1,13.8,30.9,30.9,30.9h226.5c17.1,0,30.9-13.8,30.9-30.9V91.5c0-17.1-13.8-30.9-30.9-30.9ZM263,133.7v106.8c0,7-5.7,12.7-12.7,12.7H36.7c-7,0-12.7-5.7-12.7-12.7V86.6c0-7,5.7-12.7,12.7-12.7h74.6c3.8,0,7.3,2.1,9,5.5l8.9,17.8c5.1,10.2,15.4,16.6,26.8,16.5h94.5c7,0,12.7,5.7,12.7,12.7v7.2ZM263,95.6c-3.2-1.2-6.6-1.8-10-1.8h-97.2c-3.8,0-7.3-2.1-9-5.5l-4.1-9.7h106.2c8.8,0,14,8.5,14,15.2v1.8Z"/>
  <g>
    <path class="st0" d="M137.6,193.1c-1.9,0-3.7-.7-5-2.1-10.6-10.6-10.6-28,0-38.6l14.3-14.3c5.1-5.1,12-8,19.3-8s14.2,2.8,19.3,8c10.6,10.6,10.6,28,0,38.6l-9.5,9.5c-1.3,1.3-3.1,2.1-5,2.1-1.9,0-3.7-.7-5-2.1-1.3-1.3-2.1-3.1-2.1-5s.7-3.7,2.1-5l9.5-9.5c5.1-5.1,5.1-13.4,0-18.5-2.5-2.5-5.7-3.8-9.2-3.8s-6.8,1.4-9.2,3.8l-14.3,14.3c-5.1,5.1-5.1,13.4,0,18.5,2.8,2.8,2.8,7.3,0,10.1-1.3,1.3-3.1,2.1-5,2.1h0Z"/>
    <path class="st0" d="M120.9,230.2c-7.3,0-14.2-2.8-19.3-8-10.6-10.6-10.6-28,0-38.6l7.1-7.1c1.3-1.3,3.1-2.1,5-2.1s3.7.7,5,2.1c1.3,1.3,2.1,3.1,2.1,5s-.7,3.7-2.1,5l-7.1,7.1c-5.1,5.1-5.1,13.4,0,18.5,2.5,2.5,5.7,3.8,9.2,3.8s6.8-1.4,9.2-3.8l14.3-14.3c5.1-5.1,5.1-13.4,0-18.5-1.3-1.3-2.1-3.1-2.1-5s.7-3.7,2.1-5c1.3-1.3,3.1-2.1,5-2.1s3.7.7,5,2.1c10.6,10.6,10.6,28,0,38.6l-14.3,14.3c-5.1,5.1-12,8-19.3,8h0Z"/>
  </g>
</svg>