<?xml version="1.0" encoding="UTF-8"?>
<svg id="Layer_2" xmlns="http://www.w3.org/2000/svg" version="1.1" viewBox="0 0 287 320.2">
  <!-- Generator: Adobe Illustrator 29.0.0, SVG Export Plug-In . SVG Version: 2.1.0 Build 186)  -->
  <defs>
    <style>
      .st0 {
        fill: none;
      }

      .st1 {
        fill: #f68b1f;
      }
    </style>
  </defs>
  <path class="st0" d="M252.2,106.2v105.1c5.3-1.4,9.2-6.2,9.2-11.9V64.1c0-6.8-5.6-12.3-12.3-12.3H73.6c-6.8,0-12.3,5.6-12.3,12.3v3.8h152.7c21.1,0,38.3,17.2,38.3,38.3Z"/>
  <path class="st1" d="M249.1,25.8H73.6c-21.1,0-38.3,17.2-38.3,38.3v3.9c1,0,2.1-.1,3.1-.1h22.9v-3.8c0-6.8,5.6-12.3,12.3-12.3h175.6c6.8,0,12.3,5.6,12.3,12.3v135.2c0,5.7-3.9,10.5-9.2,11.9v26.3c19.7-1.6,35.2-18.1,35.2-38.2V64.1c0-21.1-17.2-38.3-38.3-38.3Z"/>
  <g>
    <path class="st1" d="M172.5,157.5c15.7,0,28.4-12.8,28.4-28.4s-12.8-28.4-28.4-28.4-28.4,12.8-28.4,28.4,12.8,28.4,28.4,28.4ZM172.5,119.9c5.1,0,9.2,4.1,9.2,9.2s-4.1,9.2-9.2,9.2-9.2-4.1-9.2-9.2,4.1-9.2,9.2-9.2Z"/>
    <path class="st1" d="M184.1,174.5c-2.1-2.9-5.3-4.6-8.8-4.8-3.5-.2-6.9,1.2-9.3,3.8l-19.4,21.5-38.9-54.9c-2.3-3.2-6-5.1-9.7-4.9-3.8,0-7.4,2-9.5,5.2l-48.5,72.7c-3.6,5.4-2.1,12.6,3.2,16.2,5.4,3.6,12.6,2.1,16.2-3.2l39.1-58.6,37.5,53c2.1,2.9,5.3,4.7,8.8,4.9,3.6.2,7-1.2,9.3-3.8l19.5-21.6,19.5,27c2.2,3,5.7,4.8,9.5,4.8s4.8-.8,6.8-2.2c5.2-3.8,6.4-11.1,2.6-16.3l-27.9-38.7Z"/>
    <path class="st1" d="M213.9,67.9H38.3c-1,0-2.1,0-3.1.1C15.5,69.6,0,86.1,0,106.2v135.2c0,21.1,17.2,38.3,38.3,38.3h175.6c21.1,0,38.3-17.2,38.3-38.3V106.2c0-21.1-17.2-38.3-38.3-38.3ZM226.2,241.5c0,6.8-5.6,12.3-12.3,12.3H38.3c-6.8,0-12.3-5.6-12.3-12.3V106.2c0-5.7,3.9-10.5,9.2-11.9,1-.3,2-.4,3.1-.4h175.6c6.8,0,12.3,5.6,12.3,12.3v135.2Z"/>
  </g>
</svg>