<?xml version="1.0" encoding="UTF-8"?>
<svg id="Layer_1" xmlns="http://www.w3.org/2000/svg" version="1.1" viewBox="0 0 24 24">
  <!-- Generator: Adobe Illustrator 29.0.0, SVG Export Plug-In . SVG Version: 2.1.0 Build 186)  -->
  <defs>
    <style>
      .st0 {
        fill: #f68b1f;
        fill-rule: evenodd;
      }
    </style>
  </defs>
  <path class="st0" d="M11.9,13.4c-.3,0-.5.2-.5.5s.2.5.5.5.5-.2.5-.5-.2-.5-.5-.5ZM10.3,13.9c0-.9.7-1.6,1.6-1.6s1.6.7,1.6,1.6-.7,1.6-1.6,1.6-1.6-.7-1.6-1.6Z"/>
  <path class="st0" d="M6.5,13.4c-.3,0-.5.2-.5.5s.2.5.5.5.5-.2.5-.5-.2-.5-.5-.5ZM4.9,13.9c0-.9.7-1.6,1.6-1.6s1.6.7,1.6,1.6-.7,1.6-1.6,1.6-1.6-.7-1.6-1.6Z"/>
  <path class="st0" d="M7.6,4.7c-.5,0-.9.4-.9.9s.4.9.9.9.9-.4.9-.9-.4-.9-.9-.9ZM5.6,5.6c0-1.1.9-2,2-2s2,.9,2,2-.9,2-2,2-2-.9-2-2Z"/>
  <path class="st0" d="M17.3,13.4c-.3,0-.5.2-.5.5s.2.5.5.5.5-.2.5-.5-.2-.5-.5-.5ZM15.6,13.9c0-.9.7-1.6,1.6-1.6s1.6.7,1.6,1.6-.7,1.6-1.6,1.6-1.6-.7-1.6-1.6Z"/>
  <path class="st0" d="M11.9,16.9c-.6,0-1.1.5-1.1,1.1s-.3.6-.6.6-.6-.3-.6-.6c0-1.2,1-2.2,2.2-2.2s2.2,1,2.2,2.2-.3.6-.6.6-.6-.3-.6-.6c0-.6-.5-1.1-1.1-1.1Z"/>
  <path class="st0" d="M6.5,16.9c-.6,0-1.1.5-1.1,1.1s-.3.6-.6.6-.6-.3-.6-.6c0-1.2,1-2.2,2.2-2.2s2.2,1,2.2,2.2-.3.6-.6.6-.6-.3-.6-.6c0-.6-.5-1.1-1.1-1.1Z"/>
  <path class="st0" d="M7.6,9c-.9,0-1.6.7-1.6,1.6s-.3.6-.6.6-.6-.3-.6-.6c0-1.5,1.2-2.7,2.7-2.7s2.7,1.2,2.7,2.7-.3.6-.6.6-.6-.3-.6-.6c0-.9-.7-1.6-1.6-1.6Z"/>
  <path class="st0" d="M17.3,16.9c-.6,0-1.1.5-1.1,1.1s-.3.6-.6.6-.6-.3-.6-.6c0-1.2,1-2.2,2.2-2.2s2.2,1,2.2,2.2-.3.6-.6.6-.6-.3-.6-.6c0-.6-.5-1.1-1.1-1.1Z"/>
  <path class="st0" d="M10.3,4.2c0-.3.3-.6.6-.6h6.6c1.2,0,2.1.9,2.1,2.1v3.4c0,1.2-.9,2.1-2.1,2.1h-5.3c-.3,0-.6-.3-.6-.6s.3-.6.6-.6h5.3c.5,0,.9-.4.9-.9v-3.4c0-.5-.4-.9-.9-.9h-6.6c-.3,0-.6-.3-.6-.6Z"/>
  <path class="st0" d="M14.6,6.1c0-.3.3-.6.6-.6h1.5c.3,0,.6.3.6.6s-.3.6-.6.6h-1.5c-.3,0-.6-.3-.6-.6Z"/>
  <path class="st0" d="M12.9,8.1c0-.3.3-.6.6-.6h3.3c.3,0,.6.3.6.6s-.3.6-.6.6h-3.3c-.3,0-.6-.3-.6-.6Z"/>
</svg>