<?xml version="1.0" encoding="utf-8"?>
<!-- Generator: Adobe Illustrator 28.3.0, SVG Export Plug-In . SVG Version: 6.00 Build 0)  -->
<svg version="1.1" id="Layer_2_00000058553644536676631270000017533910296846386583_"
	 xmlns="http://www.w3.org/2000/svg" xmlns:xlink="http://www.w3.org/1999/xlink" x="0px" y="0px" viewBox="0 0 395.7 359"
	 style="enable-background:new 0 0 395.7 359;" xml:space="preserve">
<style type="text/css">
	.st0{fill:#F68B1F;}
	.st1{fill:#0056FF;}
</style>
<g transform="translate(1 1)">
	<g>
		<g>
			<path class="st0" d="M159.8,268.6l-40.3,40.3c-16.7,16.7-43.8,16.7-60.5,0c-16.7-16.7-16.7-43.8,0-60.4l80.6-80.6
				c16.7-16.7,43.8-16.7,60.4,0c5.6,5.6,14.6,5.6,20.2,0c5.6-5.6,5.6-14.6,0-20.2c-27.8-27.8-72.9-27.8-100.7,0l-80.6,80.6
				c-27.8,27.8-27.8,72.9,0,100.7c27.8,27.8,72.9,27.8,100.8,0l40.3-40.3c5.6-5.6,5.6-14.6,0-20.2C174.4,263,165.3,263,159.8,268.6z
				"/>
			<path class="st1" d="M339.1,28.8C311.3,1,266.2,1,238.4,28.8L190,77.1c-5.6,5.6-5.6,14.6,0,20.2c5.6,5.6,14.6,5.6,20.2,0
				l48.3-48.3c16.7-16.7,43.8-16.7,60.5,0c16.7,16.7,16.7,43.8,0,60.4L230.3,198c-16.7,16.7-43.8,16.7-60.4,0
				c-5.6-5.6-14.6-5.6-20.2,0c-5.6,5.6-5.6,14.6,0,20.2c27.8,27.8,72.9,27.8,100.7,0l88.7-88.7C366.9,101.7,366.9,56.6,339.1,28.8z"
				/>
		</g>
	</g>
</g>
</svg>
