<?xml version="1.0" encoding="UTF-8"?><svg id="Layer_2" xmlns="http://www.w3.org/2000/svg" xmlns:xlink="http://www.w3.org/1999/xlink" viewBox="0 0 127.2 128.33"><defs><style>.cls-1{fill:#002c66;}.cls-1,.cls-2,.cls-3,.cls-4,.cls-5,.cls-6,.cls-7,.cls-8,.cls-9,.cls-10,.cls-11{stroke-width:0px;}.cls-2{fill:url(#radial-gradient);}.cls-3{fill:#087fff;}.cls-4{fill:#e4b2a2;}.cls-5{fill:#ffd9cd;}.cls-6{fill:url(#radial-gradient-2);}.cls-7{fill:#ffbfb3;}.cls-8{fill:#f89184;}.cls-9{fill:#e07a77;}.cls-10{fill:#ff9800;}.cls-11{fill:#fff;}</style><radialGradient id="radial-gradient" cx="35.26" cy="105" fx="35.26" fy="105" r="6.53" gradientUnits="userSpaceOnUse"><stop offset=".29" stop-color="#ffaea0"/><stop offset="1" stop-color="#ffcdc0"/></radialGradient><radialGradient id="radial-gradient-2" cx="93.48" fx="93.48" r="6.53" xlink:href="#radial-gradient"/></defs><g id="Layer_8"><path class="cls-11" d="M11.84,78.25c-.27.79-.52,1.59-.76,2.39-.03.09-.05.17-.07.26.51.56,1.15,1.03,1.96,1.36,2.03.84,3.97.12,5.51-1.17.42,1.89,1.68,3.58,3.57,4.32,1.77.7,3.65.43,5.19-.48.26,1.77,1.26,3.4,3.05,4.17.41.18.85.29,1.3.35.36-.69.73-1.39,1.11-2.08-.41.02-.85-.05-1.3-.23-1.89-.75-2.43-3.07-1.67-4.81.58-1.31-1.33-2.29-2-1-2.27,4.37-8.41,1.61-7.07-2.99.36-1.23-1.42-1.64-2-.68-1.18,1.96-3.46,3.66-5.62,2.04-.54-.4-.93-.9-1.2-1.46Z"/><path class="cls-4" d="M38.12,69.91c-.5,1-.1,2.21.9,2.71,1,.5,2.21.1,2.71-.9.5-1,.1-2.21-.9-2.71-1-.5-2.21-.1-2.71.9Z"/><path class="cls-4" d="M30,64.48c-.5,1-.1,2.21.9,2.71,1,.5,2.21.1,2.71-.9.5-1,.1-2.21-.9-2.71-1-.5-2.21-.1-2.71.9Z"/><path class="cls-4" d="M22.97,60.5c-.5,1-.1,2.21.9,2.71,1,.5,2.21.1,2.71-.9.5-1,.1-2.21-.9-2.71-1-.5-2.21-.1-2.71.9Z"/><path class="cls-3" d="M21.94,104.34s-5.09,9.52-3.35,19.67c0,0,1.02,5.52,9.13,4.08,0,0,11.11-1.44,15.43-6.67l-14.71-15.97-6.5-1.11Z"/><path class="cls-3" d="M108.9,104.34s5.09,9.52,3.35,19.67c0,0-1.02,5.52-9.13,4.08,0,0-11.11-1.44-15.43-6.67l14.71-15.97,6.5-1.11Z"/><path class="cls-7" d="M38.41,94.46c0,6.68-5.3,12.1-11.83,12.1s-11.83-5.42-11.83-12.1,7.76-8.74,14.29-8.74,9.36,2.06,9.36,8.74Z"/><path class="cls-7" d="M92.02,94.46c0,6.68,5.3,12.1,11.83,12.1,6.53,0,11.83-5.42,11.83-12.1,0-6.68-7.76-8.74-14.29-8.74-6.53,0-9.36,2.06-9.36,8.74Z"/><path class="cls-8" d="M17.51,93.07c.05.02.1.03.15.05.06.02.12.04.18.07s.29.12.18.07c-.12-.05.03.01.06.03.06.02.11.05.17.07.12.05.23.11.35.16.28.14.56.29.84.44,1.45.83,2.7,1.84,3.74,3.19.71.93,1.26,1.97,1.62,3.08.3.91,1.75.52,1.45-.4-1.16-3.56-4-6.36-7.4-7.85-.3-.13-.61-.27-.93-.37-.92-.3-1.32,1.15-.4,1.45h0Z"/><path class="cls-8" d="M111.66,91.62c-2.57.83-4.95,2.65-6.56,4.78-.78,1.04-1.37,2.2-1.77,3.44-.3.92,1.15,1.32,1.45.4,1.06-3.25,3.67-5.59,6.69-6.95.05-.02.27-.11.03-.01.04-.02.09-.04.13-.05.08-.03.15-.06.23-.09.07-.02.13-.05.2-.07.92-.3.52-1.75-.4-1.45h0Z"/><path class="cls-5" d="M104.72,102.2c0,13.52-17.82,24.48-39.8,24.48s-39.8-10.96-39.8-24.48-8.41-45.03,40.11-41.11c47.84,3.87,39.49,24.29,39.49,41.11Z"/><ellipse class="cls-2" cx="35.26" cy="105" rx="7.57" ry="5.29"/><ellipse class="cls-6" cx="93.48" cy="105" rx="7.57" ry="5.29"/><ellipse class="cls-8" cx="64.95" cy="100.39" rx="3.33" ry="1.52"/><path class="cls-3" d="M61.59,6.62s.65,10.21-1.95,17.49l6.62-.33s-2.04-7.91-2.13-14.86l.06-2.41-2.61.11Z"/><path class="cls-3" d="M115.74,62.08s7.34,2.32,9.2,1.12c0,0,3.45-.71,1.84-4.57,0,0-21.31-23.11-22.33-23.82-1.02-.71-12.97-12.26-35.34-11.64l-6.26-.49s-18.48-3.83-37.35,16.1c0,0-15.51,13-22.37,15.44,0,0-2.57.99-1.25,4.03,0,0,3,4.21,13.69,3.95,0,0-8.06,11.97-8.52,12.72s-6.23,8.37-6.51,8.92-2.42,5.2,4.46,5.48c0,0,21.1,5.39,44.52-21.1,0,0,10.32,21.93,24.44,21.47,0,0,4.46.65,4.55-4.65,0,0,1.08-15.62,1.46-16.92,0,0,7.42,22.31,41.86,22.22,0,0,7.95.74,4.23-6.6,0,0-11.15-19.8-10.32-21.66Z"/><path class="cls-9" d="M57.63,108.64c-.35.71-.59,1.5-.5,2.28.1.78.59,1.55,1.34,1.81,1.23.41,2.41-.63,3.56-1.24,1.51-.8,3.39-.88,4.96-.2,1.22.53,2.48,1.5,3.72,1.02.64-.25,1.09-.88,1.25-1.55.16-.67.06-1.38-.16-2.04-2.05-6.3-11.56-5.38-14.17-.09Z"/><path class="cls-1" d="M34.08,95.58c2.35,3.35,6.9,4.22,10.73,3.6,3.46-.55,7.88-2.8,8.76-6.5.45-1.88-2.45-2.68-2.9-.8-.61,2.56-4.07,3.93-6.37,4.35-2.43.44-6.08.03-7.62-2.17-.47-.66-1.31-.97-2.06-.54-.66.38-1.01,1.39-.54,2.06h0Z"/><path class="cls-1" d="M91.95,94.06c-1.55,2.21-5.2,2.61-7.62,2.17-2.3-.42-5.76-1.79-6.37-4.35-.45-1.88-3.35-1.08-2.9.8.88,3.71,5.3,5.94,8.76,6.5,3.82.62,8.38-.26,10.73-3.6.47-.66.12-1.67-.54-2.06-.75-.44-1.59-.13-2.06.54h0Z"/><path class="cls-3" d="M41,108.9c.1-3.51-1.93-7.93-3.03-10.06-.29-.56-1.09-.56-1.38,0-1.1,2.13-3.13,6.55-3.03,10.06.13,4.61,7.3,4.61,7.43,0Z"/><path class="cls-3" d="M95.52,108.9c.1-3.51-1.93-7.93-3.03-10.06-.29-.56-1.09-.56-1.38,0-1.1,2.13-3.13,6.55-3.03,10.06.13,4.61,7.3,4.61,7.43,0Z"/><path class="cls-3" d="M64.22,5.71s-.12-6.05-3.17-5.69c0,0-3.13-.51-4.6,3.04l3.5,1.29s-.11-1.86.76-1.61c1.52.43.7,2.71.88,3.87l2.61-.11.02-.8Z"/><path class="cls-10" d="M54.4,10.6c-.55,1.2-1.17,2.39-1.35,3.69-.06.42-.07.85.05,1.25.12.4.37.78.75.97.47.24,1.07.16,1.53-.11.46-.27.8-.7,1.08-1.15.97-1.54,1.37-3.37,1.75-5.15.35-1.69.7-3.39,1.04-5.08.07-.35.14-.71.03-1.04-.13-.4-.51-.68-.91-.81-.34-.11-1.07-.29-1.37,0-.17.16-.19.44-.24.65-.08.33-.16.66-.25.98-.34,1.27-.75,2.52-1.23,3.74-.27.69-.56,1.38-.87,2.06Z"/><path class="cls-10" d="M57.07,3.23c-.13,1.62-.26,3.25-.61,4.84-.35,1.59-.95,3.15-1.92,4.45-.98,1.3-2.37,2.34-3.96,2.69-.33.07-.73.1-.97-.14-.17-.18-.2-.45-.21-.69-.07-2.33,1.05-4.54,2.49-6.38,1.44-1.83,3.19-3.39,4.7-5.17.2.1.33.24.48.4Z"/><path class="cls-10" d="M59.31,3.87c-1.41,3.25-2.26,6.73-2.51,10.26-.06.88-.09,1.77.15,2.62.06.23.17.48.39.58.29.13.62-.05.86-.26.57-.5.97-1.18,1.28-1.88.78-1.76,1.04-3.71,1.03-5.63-.01-1.92-.3-3.83-.59-5.73-.19-.07-.44-.06-.61.04Z"/><path class="cls-10" d="M56.77,3.16c-.38.93-.88,1.82-1.34,2.71-.45.88-.9,1.75-1.36,2.62-.94,1.78-1.93,3.54-2.93,5.3,0,0,.11.08.11.07.99-1.73,1.94-3.49,2.87-5.26.46-.87.91-1.74,1.36-2.62.23-.45.45-.89.68-1.34.24-.48.45-.98.73-1.44,0,0-.12-.07-.13-.04h0Z"/><path class="cls-10" d="M59.37,3.98c-.17,2.12-.36,4.23-.59,6.34-.12,1.05-.25,2.09-.41,3.13-.15.98-.45,2-.41,3,0,.03.11.05.11.07.04-1.05.26-2.07.42-3.11.16-1.04.29-2.09.41-3.13.23-2.09.38-4.19.6-6.28,0-.03-.13-.05-.13-.02h0Z"/><circle class="cls-10" cx="50.79" cy="12.31" r=".19"/><path class="cls-10" d="M50.96,11.53s-.04.08-.08.08-.08-.04-.08-.08.04-.08.08-.08.08.04.08.08Z"/><circle class="cls-10" cx="55.1" cy="9.41" r=".09"/><path class="cls-10" d="M55.43,8.38c0,.07-.05.12-.12.12s-.12-.05-.12-.12.05-.12.12-.12.12.05.12.12Z"/><path class="cls-10" d="M59.58,12.27s-.02.04-.04.04-.04-.02-.04-.04.02-.04.04-.04.04.02.04.04Z"/><path class="cls-10" d="M58.15,10.93c0,.05-.04.1-.1.1s-.1-.04-.1-.1.04-.1.1-.1.1.04.1.1Z"/><path class="cls-10" d="M54.02,15.63c0,.12-.1.22-.22.22s-.22-.1-.22-.22.1-.22.22-.22.22.1.22.22Z"/><path class="cls-10" d="M54.02,15.01c0,.12-.1.22-.22.22s-.22-.1-.22-.22.1-.22.22-.22.22.1.22.22Z"/><path class="cls-10" d="M57.96,5.42c0,.06-.05.1-.1.1s-.1-.05-.1-.1.05-.1.1-.1.1.05.1.1Z"/><path class="cls-10" d="M58.33,5.1s-.04.09-.09.09-.09-.04-.09-.09.04-.09.09-.09.09.04.09.09Z"/><path class="cls-10" d="M65.62,25.68c-.08-.3-.58-.18-.65.13-.86,3.42-3.44,3.63-5.66,6.11-.59.65-1.43,2.23-1.76,3.05-.09.22-.16.48-.05.7.14.28.52.34.84.32.73-.05,1.43-.31,2.08-.66,1-.53,1.79-1,2.59-1.81,1.91-1.92,3.5-4.56,2.61-7.83Z"/><path class="cls-10" d="M52.28,27.19c.05-.08,0-.18-.08-.2-3.05-.85-3.42-3.04-5.25-4.19-.46-.29-.95-.55-1.53-.56-.16,0-.34.03-.5.21-.2.23-.25.6-.24.88.02.67.22,1.23.47,1.7.63,1.2,1.6,1.97,2.68,2.47.73.34.81.38,1.61.55.72.15,2.16.06,2.6-.53.09-.12.18-.24.24-.33Z"/></g></svg>