<?xml version="1.0" encoding="UTF-8"?><svg id="Layer_2" xmlns="http://www.w3.org/2000/svg" xmlns:xlink="http://www.w3.org/1999/xlink" viewBox="0 0 127.2 128"><defs><style>.cls-1{fill:#002c66;}.cls-1,.cls-2,.cls-3,.cls-4,.cls-5,.cls-6,.cls-7,.cls-8,.cls-9,.cls-10,.cls-11,.cls-12,.cls-13{stroke-width:0px;}.cls-2{fill:url(#radial-gradient);}.cls-3{fill:#087fff;}.cls-4{fill:#e4b2a2;}.cls-5{fill:#ffd9cd;}.cls-6{fill:url(#radial-gradient-2);}.cls-7{fill:#ffbfb3;}.cls-8{fill:#fffafb;}.cls-9{fill:#f89184;}.cls-10{fill:#e07a77;}.cls-11{fill:#ff9800;}.cls-12{fill:#fff;}.cls-13{fill:#0046ec;}</style><radialGradient id="radial-gradient" cx="35.26" cy="104.67" fx="35.26" fy="104.67" r="6.53" gradientUnits="userSpaceOnUse"><stop offset=".29" stop-color="#ffaea0"/><stop offset="1" stop-color="#ffcdc0"/></radialGradient><radialGradient id="radial-gradient-2" cx="93.48" fx="93.48" xlink:href="#radial-gradient"/></defs><g id="Layer_8"><path class="cls-12" d="M11.84,77.92c-.27.79-.52,1.59-.76,2.39-.03.09-.05.17-.07.26.51.56,1.15,1.03,1.96,1.36,2.03.84,3.97.12,5.51-1.17.42,1.89,1.68,3.58,3.57,4.32,1.77.7,3.65.43,5.19-.48.26,1.77,1.26,3.4,3.05,4.17.41.18.85.29,1.3.35.36-.69.73-1.39,1.11-2.08-.41.02-.85-.05-1.3-.23-1.89-.75-2.43-3.07-1.67-4.81.58-1.31-1.33-2.29-2-1-2.27,4.37-8.41,1.61-7.07-2.99.36-1.23-1.42-1.64-2-.68-1.18,1.96-3.46,3.66-5.62,2.04-.54-.4-.93-.9-1.2-1.46Z"/><path class="cls-4" d="M38.12,69.58c-.5,1-.1,2.21.9,2.71,1,.5,2.21.1,2.71-.9.5-1,.1-2.21-.9-2.71-1-.5-2.21-.1-2.71.9Z"/><path class="cls-4" d="M30,64.15c-.5,1-.1,2.21.9,2.71,1,.5,2.21.1,2.71-.9.5-1,.1-2.21-.9-2.71-1-.5-2.21-.1-2.71.9Z"/><path class="cls-4" d="M22.97,60.17c-.5,1-.1,2.21.9,2.71,1,.5,2.21.1,2.71-.9.5-1,.1-2.21-.9-2.71-1-.5-2.21-.1-2.71.9Z"/><path class="cls-3" d="M21.94,104.01s-5.09,9.52-3.35,19.67c0,0,1.02,5.52,9.13,4.08,0,0,11.11-1.44,15.43-6.67l-14.71-15.97-6.5-1.11Z"/><path class="cls-3" d="M108.9,104.01s5.09,9.52,3.35,19.67c0,0-1.02,5.52-9.13,4.08,0,0-11.11-1.44-15.43-6.67l14.71-15.97,6.5-1.11Z"/><path class="cls-7" d="M38.41,94.13c0,6.68-5.3,12.1-11.83,12.1s-11.83-5.42-11.83-12.1,7.76-8.74,14.29-8.74,9.36,2.06,9.36,8.74Z"/><path class="cls-7" d="M92.02,94.13c0,6.68,5.3,12.1,11.83,12.1,6.53,0,11.83-5.42,11.83-12.1s-7.76-8.74-14.29-8.74c-6.53,0-9.36,2.06-9.36,8.74Z"/><path class="cls-9" d="M17.51,92.74c.05.02.1.03.15.05.06.02.12.04.18.07s.29.12.18.07c-.12-.05.03.01.06.03.06.02.11.05.17.07.12.05.23.11.35.16.28.14.56.29.84.44,1.45.83,2.7,1.84,3.74,3.19.71.93,1.26,1.97,1.62,3.08.3.91,1.75.52,1.45-.4-1.16-3.56-4-6.36-7.4-7.85-.3-.13-.61-.27-.93-.37-.92-.3-1.32,1.15-.4,1.45h0Z"/><path class="cls-9" d="M111.66,91.29c-2.57.83-4.95,2.65-6.56,4.78-.78,1.04-1.37,2.2-1.77,3.44-.3.92,1.15,1.32,1.45.4,1.06-3.25,3.67-5.59,6.69-6.95.05-.02.27-.11.03-.01.04-.02.09-.04.13-.05.08-.03.15-.06.23-.09.07-.02.13-.05.2-.07.92-.3.52-1.75-.4-1.45h0Z"/><path class="cls-5" d="M104.72,101.87c0,13.52-17.82,24.48-39.8,24.48s-39.8-10.96-39.8-24.48-8.41-45.03,40.11-41.11c47.84,3.87,39.49,24.29,39.49,41.11Z"/><path class="cls-10" d="M73.28,110.71c-1.92-2.67-4.9-4.18-8.19-4.18s-6.36,1.41-8.51,3.79c-1.23,1.37.79,3.4,2.03,2.03,3.14-3.47,9.25-4.3,12.2-.2.45.63,1.25.93,1.96.51.62-.36.97-1.33.51-1.96h0Z"/><ellipse class="cls-2" cx="35.26" cy="104.67" rx="7.57" ry="5.29"/><ellipse class="cls-6" cx="93.48" cy="104.67" rx="7.57" ry="5.29"/><ellipse class="cls-9" cx="64.95" cy="100.06" rx="3.33" ry="1.52"/><path class="cls-3" d="M61.59,6.29s.65,10.21-1.95,17.49l6.62-.33s-2.28-8.25-1.74-14.99l-.33-2.28-2.61.11Z"/><path class="cls-3" d="M67.18,12.94s-2,5.11,4.7,6.82c0,0,2.42.99,6.37-.64.44-.18.62-.71.37-1.11-.49-.78-1.4-2.23-4.12-4.28,0,0-1.4-1.03-3.41-1.46-1.17-.25-2.38-.06-3.46.45l-.45.21Z"/><path class="cls-3" d="M64.74,18.73s1.24-3.99,3.01-4.59l.15-1.51s-1.2-.04-4.25,4.03l1.09,2.07Z"/><path class="cls-3" d="M59.44,13.62s1.44,5.3-5.41,6.28c0,0-2.48.72-6.21-1.29-.37-.2-.66-.72-.39-1.05.55-.69,1.55-2.09,4.65-3.93,0,0,2.68-1.56,5.72-1.01l1.64,1Z"/><path class="cls-3" d="M61.01,18.73s-1.24-3.99-3.01-4.59l-.15-1.51s1.2-.04,4.25,4.03l-1.09,2.07Z"/><path class="cls-3" d="M115.74,61.75s7.34,2.32,9.2,1.12c0,0,3.45-.71,1.84-4.57,0,0-21.31-23.11-22.33-23.82-1.02-.71-12.97-12.26-35.34-11.64l-6.26-.49s-18.48-3.83-37.35,16.1c0,0-15.51,13-22.37,15.44,0,0-2.57.99-1.25,4.03,0,0,3,4.21,13.69,3.95,0,0-8.06,11.97-8.52,12.72s-6.23,8.37-6.51,8.92-2.42,5.2,4.46,5.48c0,0,21.1,5.39,44.52-21.1,0,0,10.32,21.93,24.44,21.47,0,0,4.46.65,4.55-4.65,0,0,1.08-15.62,1.46-16.92,0,0,7.42,22.31,41.86,22.22,0,0,7.95.74,4.23-6.6,0,0-11.15-19.8-10.32-21.66Z"/><path class="cls-8" d="M50.41,86.43c1.12,1.48,1.42,3.69,1.42,6.51,0,5.6-3.57,10.14-7.97,10.14s-7.97-4.54-7.97-10.14c0-2.67.91-4.77,2.34-6.24-2.51,1.52-4.22,4.03-4.41,7.41-.36,6.27,4.63,10.59,10.35,10.59s10.47-3.72,10.35-10.59c-.06-3.6-1.6-6.21-4.1-7.69Z"/><path class="cls-1" d="M44.35,97.99c2.16,0,4.09.66,5.44,1.72,1.27-1.8,2.04-4.17,2.04-6.77,0-2.82-.3-5.02-1.42-6.51-1.57-.93-3.51-1.41-5.71-1.41-2.41,0-4.65.58-6.48,1.68-1.43,1.47-2.34,3.56-2.34,6.24,0,2.87.94,5.46,2.44,7.3,1.33-1.36,3.53-2.25,6.03-2.25Z"/><path class="cls-13" d="M43.85,103.08c2.36,0,4.47-1.3,5.93-3.37-1.34-1.05-3.28-1.72-5.44-1.72-2.5,0-4.7.89-6.03,2.25,1.43,1.76,3.38,2.84,5.53,2.84Z"/><circle class="cls-8" cx="50.39" cy="91.41" r="1.7"/><path class="cls-8" d="M78.99,86.43c-1.12,1.48-1.42,3.69-1.42,6.51,0,5.6,3.57,10.14,7.97,10.14s7.97-4.54,7.97-10.14c0-2.67-.91-4.77-2.34-6.24,2.51,1.52,4.22,4.03,4.41,7.41.36,6.27-4.63,10.59-10.35,10.59-5.72,0-10.47-3.72-10.35-10.59.06-3.6,1.6-6.21,4.1-7.69Z"/><path class="cls-1" d="M85.05,97.99c-2.16,0-4.09.66-5.44,1.72-1.27-1.8-2.04-4.17-2.04-6.77,0-2.82.3-5.02,1.42-6.51,1.57-.93,3.51-1.41,5.71-1.41,2.41,0,4.65.58,6.48,1.68,1.43,1.47,2.34,3.56,2.34,6.24,0,2.87-.94,5.46-2.44,7.3-1.33-1.36-3.53-2.25-6.03-2.25Z"/><path class="cls-13" d="M85.54,103.08c-2.36,0-4.47-1.3-5.93-3.37,1.34-1.05,3.28-1.72,5.44-1.72,2.5,0,4.7.89,6.03,2.25-1.43,1.76-3.38,2.84-5.53,2.84Z"/><circle class="cls-8" cx="79" cy="91.41" r="1.7"/><path class="cls-1" d="M34.49,86.9c2.03.34,4.18.25,6.21.04,4.01-.41,7.91-1.55,11.44-3.49.87-.48.09-1.81-.78-1.33-3.35,1.85-7.08,2.95-10.89,3.31-1.24.12-2.5.16-3.74.12-.42-.01-.84-.04-1.27-.07-.14-.01-.29-.03-.43-.04-.2-.02.1.02-.13-.02-.97-.16-1.39,1.32-.41,1.49h0Z"/><path class="cls-1" d="M95.91,86.54c-1.87.16-3.83-.09-5.67-.42-3.81-.69-7.44-2.08-10.67-4.22-.83-.55-1.6.78-.78,1.33,3.33,2.2,7.12,3.66,11.04,4.37,1.97.36,4.07.65,6.08.48.98-.08.99-1.62,0-1.54h0Z"/><path class="cls-3" d="M64.28,5.71s-.12-6.05-3.17-5.69c0,0-3.13-.51-4.6,3.04l3.5,1.29s-.11-1.86.76-1.61c1.52.43.7,2.71.88,3.87l2.61-.11.02-.8Z"/><path class="cls-11" d="M54.46,10.6c-.55,1.2-1.17,2.39-1.35,3.69-.06.42-.07.85.05,1.25.12.4.37.78.75.97.47.24,1.07.16,1.53-.11.46-.27.8-.7,1.08-1.15.97-1.54,1.37-3.37,1.75-5.15.35-1.69.7-3.39,1.04-5.08.07-.35.14-.71.03-1.04-.13-.4-.51-.68-.91-.81-.34-.11-1.07-.29-1.37,0-.17.16-.19.44-.24.65-.08.33-.16.66-.25.98-.34,1.27-.75,2.52-1.23,3.74-.27.69-.56,1.38-.87,2.06Z"/><path class="cls-11" d="M57.14,3.23c-.13,1.62-.26,3.25-.61,4.84-.35,1.59-.95,3.15-1.92,4.45-.98,1.3-2.37,2.34-3.96,2.69-.33.07-.73.1-.97-.14-.17-.18-.2-.45-.21-.69-.07-2.33,1.05-4.54,2.49-6.38,1.44-1.83,3.19-3.39,4.7-5.17.2.1.33.24.48.4Z"/><path class="cls-11" d="M56.95,3.37c-.75,1.45-1.5,2.9-2.45,4.23-.94,1.33-2.1,2.53-3.5,3.35-1.41.82-3.09,1.23-4.69.94-.34-.06-.71-.19-.83-.51-.09-.23-.01-.49.08-.72.84-2.17,2.73-3.78,4.77-4.91,2.04-1.13,4.26-1.88,6.34-2.94.14.17.21.35.29.56Z"/><path class="cls-11" d="M57.07,3.59c-1.26,1.03-2.53,2.06-3.92,2.91-1.39.84-2.93,1.49-4.55,1.69-1.62.19-3.32-.1-4.68-1-.28-.19-.58-.46-.56-.8.01-.25.18-.45.36-.63,1.63-1.66,4.01-2.38,6.33-2.61,2.32-.23,4.66-.04,6.98-.18.06.21.05.4.05.62Z"/><path class="cls-11" d="M59.37,3.87c-1.41,3.25-2.26,6.73-2.51,10.26-.06.88-.09,1.77.15,2.62.06.23.17.48.39.58.29.13.62-.05.86-.26.57-.5.97-1.18,1.28-1.88.78-1.76,1.04-3.71,1.03-5.63-.01-1.92-.3-3.83-.59-5.73-.19-.07-.44-.06-.61.04Z"/><path class="cls-11" d="M59.49,4.18c-.52,3.5-.43,7.09.24,10.56.17.86.38,1.73.83,2.49.12.21.29.42.52.46.31.06.59-.21.76-.47.42-.64.63-1.39.75-2.15.3-1.9.05-3.85-.47-5.71-.51-1.85-1.29-3.62-2.05-5.38-.2-.02-.44.06-.58.2Z"/><path class="cls-11" d="M56.83,3.16c-.38.93-.88,1.82-1.34,2.71-.45.88-.9,1.75-1.36,2.62-.94,1.78-1.93,3.54-2.93,5.3,0,0,.11.08.11.07.99-1.73,1.94-3.49,2.87-5.26.46-.87.91-1.74,1.36-2.62.23-.45.45-.89.68-1.34.24-.48.45-.98.73-1.44,0,0-.12-.07-.13-.04h0Z"/><path class="cls-11" d="M59.44,3.98c-.17,2.12-.36,4.23-.59,6.34-.12,1.05-.25,2.09-.41,3.13-.15.98-.45,2-.41,3,0,.03.11.05.11.07.04-1.05.26-2.07.42-3.11.16-1.04.29-2.09.41-3.13.23-2.09.38-4.19.6-6.28,0-.03-.13-.05-.13-.02h0Z"/><circle class="cls-11" cx="50.85" cy="12.31" r=".19"/><path class="cls-11" d="M51.02,11.53s-.04.08-.08.08-.08-.04-.08-.08.04-.08.08-.08.08.04.08.08Z"/><circle class="cls-11" cx="55.16" cy="9.41" r=".09"/><path class="cls-11" d="M55.5,8.38c0,.07-.05.12-.12.12s-.12-.05-.12-.12.05-.12.12-.12.12.05.12.12Z"/><path class="cls-11" d="M59.65,12.27s-.02.04-.04.04-.04-.02-.04-.04.02-.04.04-.04.04.02.04.04Z"/><path class="cls-11" d="M58.22,10.93c0,.05-.04.1-.1.1s-.1-.04-.1-.1.04-.1.1-.1.1.04.1.1Z"/><path class="cls-11" d="M54.08,15.63c0,.12-.1.22-.22.22s-.22-.1-.22-.22.1-.22.22-.22.22.1.22.22Z"/><path class="cls-11" d="M54.08,15.01c0,.12-.1.22-.22.22s-.22-.1-.22-.22.1-.22.22-.22.22.1.22.22Z"/><path class="cls-11" d="M58.02,5.42c0,.06-.05.1-.1.1s-.1-.05-.1-.1.05-.1.1-.1.1.05.1.1Z"/><path class="cls-11" d="M58.4,5.1s-.04.09-.09.09-.09-.04-.09-.09.04-.09.09-.09.09.04.09.09Z"/><path class="cls-12" d="M103.15,62.65c.12-4.15-2.28-9.37-3.58-11.89-.34-.66-1.29-.66-1.63,0-1.3,2.52-3.7,7.74-3.58,11.89.16,5.44,8.63,5.44,8.78,0Z"/></g></svg>