<?xml version="1.0" encoding="UTF-8"?><svg id="Layer_2" xmlns="http://www.w3.org/2000/svg" xmlns:xlink="http://www.w3.org/1999/xlink" viewBox="0 0 127.2 138.4"><defs><style>.cls-1{fill:#bd6322;}.cls-1,.cls-2,.cls-3,.cls-4,.cls-5,.cls-6,.cls-7,.cls-8,.cls-9,.cls-10,.cls-11,.cls-12,.cls-13,.cls-14{stroke-width:0px;}.cls-2{fill:#002c66;}.cls-3{fill:url(#radial-gradient);}.cls-4{fill:#087fff;}.cls-5{fill:#e4b2a2;}.cls-6{fill:#ffd9cd;}.cls-7{fill:url(#radial-gradient-2);}.cls-8{fill:#ffbfb3;}.cls-9{fill:#fffafb;}.cls-10{fill:#f89184;}.cls-11{fill:#e07a77;}.cls-12{fill:#ff9800;}.cls-13{fill:#fff;}.cls-14{fill:#0046ec;}</style><radialGradient id="radial-gradient" cx="35.26" cy="115.07" fx="35.26" fy="115.07" r="6.53" gradientUnits="userSpaceOnUse"><stop offset=".29" stop-color="#ffaea0"/><stop offset="1" stop-color="#ffcdc0"/></radialGradient><radialGradient id="radial-gradient-2" cx="93.48" fx="93.48" xlink:href="#radial-gradient"/></defs><g id="Layer_8"><path class="cls-13" d="M11.84,88.32c-.27.79-.52,1.59-.76,2.39-.03.09-.05.17-.07.26.51.56,1.15,1.03,1.96,1.36,2.03.84,3.97.12,5.51-1.17.42,1.89,1.68,3.58,3.57,4.32,1.77.7,3.65.43,5.19-.48.26,1.77,1.26,3.4,3.05,4.17.41.18.85.29,1.3.35.36-.69.73-1.39,1.11-2.08-.41.02-.85-.05-1.3-.23-1.89-.75-2.43-3.07-1.67-4.81.58-1.31-1.33-2.29-2-1-2.27,4.37-8.41,1.61-7.07-2.99.36-1.23-1.42-1.64-2-.68-1.18,1.96-3.46,3.66-5.62,2.04-.54-.4-.93-.9-1.2-1.46Z"/><path class="cls-5" d="M38.12,79.98c-.5,1-.1,2.21.9,2.71,1,.5,2.21.1,2.71-.9.5-1,.1-2.21-.9-2.71-1-.5-2.21-.1-2.71.9Z"/><path class="cls-5" d="M30,74.55c-.5,1-.1,2.21.9,2.71,1,.5,2.21.1,2.71-.9.5-1,.1-2.21-.9-2.71-1-.5-2.21-.1-2.71.9Z"/><path class="cls-5" d="M22.97,70.57c-.5,1-.1,2.21.9,2.71,1,.5,2.21.1,2.71-.9.5-1,.1-2.21-.9-2.71-1-.5-2.21-.1-2.71.9Z"/><path class="cls-4" d="M21.94,114.41s-5.09,9.52-3.35,19.67c0,0,1.02,5.52,9.13,4.08,0,0,11.11-1.44,15.43-6.67l-14.71-15.97-6.5-1.11Z"/><path class="cls-4" d="M108.9,114.41s5.09,9.52,3.35,19.67c0,0-1.02,5.52-9.13,4.08,0,0-11.11-1.44-15.43-6.67l14.71-15.97,6.5-1.11Z"/><path class="cls-8" d="M38.41,104.53c0,6.68-5.3,12.1-11.83,12.1s-11.83-5.42-11.83-12.1,7.76-8.74,14.29-8.74,9.36,2.06,9.36,8.74Z"/><path class="cls-8" d="M92.02,104.53c0,6.68,5.3,12.1,11.83,12.1,6.53,0,11.83-5.42,11.83-12.1s-7.76-8.74-14.29-8.74c-6.53,0-9.36,2.06-9.36,8.74Z"/><path class="cls-10" d="M17.51,103.14c.05.02.1.03.15.05.06.02.12.04.18.07s.29.12.18.07c-.12-.05.03.01.06.03.06.02.11.05.17.07.12.05.23.11.35.16.28.14.56.29.84.44,1.45.83,2.7,1.84,3.74,3.19.71.93,1.26,1.97,1.62,3.08.3.91,1.75.52,1.45-.4-1.16-3.56-4-6.36-7.4-7.85-.3-.13-.61-.27-.93-.37-.92-.3-1.32,1.15-.4,1.45h0Z"/><path class="cls-10" d="M111.66,101.69c-2.57.83-4.95,2.65-6.56,4.78-.78,1.04-1.37,2.2-1.77,3.44-.3.92,1.15,1.32,1.45.4,1.06-3.25,3.67-5.59,6.69-6.95.05-.02.27-.11.03-.01.04-.02.09-.04.13-.05.08-.03.15-.06.23-.09.07-.02.13-.05.2-.07.92-.3.52-1.75-.4-1.45h0Z"/><path class="cls-6" d="M104.72,112.27c0,13.52-17.82,24.48-39.8,24.48s-39.8-10.96-39.8-24.48-8.41-45.03,40.11-41.11c47.84,3.87,39.49,24.29,39.49,41.11Z"/><ellipse class="cls-3" cx="35.26" cy="115.07" rx="7.57" ry="5.29"/><ellipse class="cls-7" cx="93.48" cy="115.07" rx="7.57" ry="5.29"/><ellipse class="cls-10" cx="64.95" cy="110.46" rx="3.33" ry="1.52"/><path class="cls-4" d="M61.59,16.69s.65,10.21-1.95,17.49l6.62-.33s-2.28-8.25-1.74-14.99l-.33-2.28-2.61.11Z"/><path class="cls-4" d="M66.68,25.16s2.62,4.83,8.25.81c0,0,2.3-1.19,3.6-5.22.13-.41-.02-.97-.44-1.03-.88-.12-2.57-.44-6.08.37,0,0-3.01.72-4.84,3.22l-.49,1.86Z"/><path class="cls-4" d="M64.74,29.13s1.24-3.99,3.01-4.59l.15-1.51s-1.2-.04-4.25,4.03l1.09,2.07Z"/><path class="cls-4" d="M59.07,25.16s-2.62,4.83-8.25.81c0,0-2.3-1.19-3.6-5.22-.13-.41.02-.97.44-1.03.88-.12,2.57-.44,6.08.37,0,0,3.01.72,4.84,3.22l.49,1.86Z"/><path class="cls-4" d="M61.01,29.13s-1.24-3.99-3.01-4.59l-.15-1.51s1.2-.04,4.25,4.03l-1.09,2.07Z"/><path class="cls-12" d="M72.76,5.84c-.52-1.27-2.47-2.03-5-.67,1.36-2.52.62-4.47-.65-5s-3.18.32-4.01,3.06c-.82-2.74-2.72-3.6-4-3.07s-2.03,2.47-.67,5c-2.52-1.36-4.47-.62-5,.65-.53,1.27.32,3.18,3.06,4.01-2.74.82-3.6,2.72-3.07,4,.52,1.27,2.47,2.03,5,.67-1.36,2.52-.62,4.47.65,5,1.27.53,3.18-.32,4.01-3.06.82,2.74,2.72,3.6,4,3.07,1.27-.52,2.03-2.47.67-5,2.52,1.36,4.47.62,5-.65.53-1.27-.32-3.18-3.06-4.01,2.74-.82,3.6-2.72,3.07-4Z"/><circle class="cls-1" cx="63.09" cy="9.82" r="3.69"/><path class="cls-4" d="M115.74,72.15s7.34,2.32,9.2,1.12c0,0,3.45-.71,1.84-4.57,0,0-21.31-23.11-22.33-23.82s-12.97-12.26-35.34-11.64l-6.26-.49s-18.48-3.83-37.35,16.1c0,0-15.51,13-22.37,15.44,0,0-2.57.99-1.25,4.03,0,0,3,4.21,13.69,3.95,0,0-8.06,11.97-8.52,12.72s-6.23,8.37-6.51,8.92-2.42,5.2,4.46,5.48c0,0,21.1,5.39,44.52-21.1,0,0,10.32,21.93,24.44,21.47,0,0,4.46.65,4.55-4.65,0,0,1.08-15.62,1.46-16.92,0,0,7.42,22.31,41.86,22.22,0,0,7.95.74,4.23-6.6,0,0-11.15-19.8-10.32-21.66Z"/><path class="cls-9" d="M78.99,96.83c-1.12,1.48-1.42,3.69-1.42,6.51,0,5.6,3.57,10.14,7.97,10.14,4.4,0,7.97-4.54,7.97-10.14,0-2.67-.91-4.77-2.34-6.24,2.51,1.52,4.22,4.03,4.41,7.41.36,6.27-4.63,10.59-10.35,10.59-5.72,0-10.47-3.72-10.35-10.59.06-3.6,1.6-6.21,4.1-7.69Z"/><path class="cls-2" d="M85.05,108.39c-2.16,0-4.09.66-5.44,1.72-1.27-1.8-2.04-4.17-2.04-6.77,0-2.82.3-5.02,1.42-6.51,1.57-.93,3.51-1.41,5.71-1.41,2.41,0,4.65.58,6.48,1.68,1.43,1.47,2.34,3.56,2.34,6.24,0,2.87-.94,5.46-2.44,7.3-1.33-1.36-3.53-2.25-6.03-2.25Z"/><path class="cls-14" d="M85.54,113.48c-2.36,0-4.47-1.3-5.93-3.37,1.34-1.05,3.28-1.72,5.44-1.72,2.5,0,4.7.89,6.03,2.25-1.43,1.76-3.38,2.84-5.53,2.84Z"/><circle class="cls-9" cx="79" cy="101.81" r="1.7"/><path class="cls-2" d="M53.96,102.94c-5.57-1.85-11.37-1.53-16.7,1-.73.35-.92,1.4-.54,2.06.44.75,1.32.89,2.06.54,4.67-2.22,9.63-2.28,14.39-.69,1.84.61,2.63-2.29.8-2.9h0Z"/><path class="cls-11" d="M58.36,116.08c4.27-.6,8.59-.6,12.95,0,.38,0,.67.39.59.8-.36,1.89-1.49,6.51-7.55,6.34,0,0-5.52.02-6.62-6.31-.08-.43.23-.84.63-.84Z"/></g></svg>