<?xml version="1.0" encoding="UTF-8"?>
<svg id="Layer_2" data-name="Layer 2" xmlns="http://www.w3.org/2000/svg" viewBox="0 0 138.77 139.86">
  <defs>
    <style>
      .cls-1 {
        fill: #0056ff;
      }
    </style>
  </defs>
  <g id="Layer_1-2" data-name="Layer 1">
    <g id="Layer_13" data-name="Layer 13">
      <g>
        <path class="cls-1" d="M59.19,130.27H21.71c-6.69,0-12.12-5.44-12.12-12.12V32.87c0-6.68,5.44-12.12,12.12-12.12h9.14c-.12,2.27.42,4.56,1.74,6.5,1.97,2.91,5.24,4.64,8.75,4.64h37.21c3.51,0,6.78-1.74,8.75-4.64,1.31-1.94,1.86-4.22,1.74-6.5h9.15c6.69,0,12.12,5.44,12.12,12.12v28.34c0,2.51,2.04,4.55,4.55,4.55s4.55-2.04,4.55-4.55v-28.34c0-11.7-9.52-21.22-21.22-21.22h-12.11l-1.8-4.51c-1.62-4.04-5.47-6.65-9.82-6.65h-29.04c-4.35,0-8.21,2.62-9.82,6.66l-1.8,4.51h-12.09C10.02,11.66.5,21.18.5,32.88v85.27c0,11.69,9.52,21.22,21.22,21.22h37.48c2.51,0,4.55-2.04,4.55-4.55s-2.04-4.55-4.55-4.55ZM39.96,20.76l4.09-10.23c.23-.57.77-.93,1.37-.93h29.04c.61,0,1.15.37,1.37.93l4.09,10.23c.25.64.02,1.14-.15,1.38-.16.24-.54.65-1.23.65h-37.21c-.69,0-1.06-.41-1.23-.65-.16-.24-.4-.75-.15-1.38Z"/>
        <path class="cls-1" d="M59.19,139.86H21.71c-11.97,0-21.71-9.74-21.71-21.72V32.88C0,20.9,9.74,11.16,21.71,11.16h11.75l1.68-4.19c1.69-4.23,5.73-6.97,10.28-6.97h29.04c4.55,0,8.59,2.73,10.28,6.97l1.67,4.19h11.77c11.97,0,21.72,9.74,21.72,21.72v28.34c0,2.78-2.26,5.05-5.05,5.05s-5.05-2.26-5.05-5.05v-28.34c0-6.41-5.21-11.62-11.62-11.62h-8.64c.02,2.3-.61,4.46-1.84,6.28-2.07,3.04-5.49,4.86-9.17,4.86h-37.21c-3.68,0-7.11-1.82-9.17-4.86-1.23-1.82-1.86-3.98-1.84-6.28h-8.62c-6.41,0-11.62,5.21-11.62,11.62v85.28c0,6.41,5.21,11.62,11.62,11.62h37.48c2.79,0,5.05,2.27,5.05,5.05s-2.26,5.05-5.05,5.05ZM21.71,12.16C10.29,12.16,1,21.46,1,32.88v85.27c0,11.42,9.29,20.72,20.71,20.72h37.48c2.23,0,4.05-1.82,4.05-4.05s-1.82-4.05-4.05-4.05H21.71c-6.96,0-12.62-5.66-12.62-12.62V32.87c0-6.96,5.66-12.62,12.62-12.62h9.67l-.03.53c-.12,2.27.45,4.41,1.65,6.19,1.88,2.77,4.99,4.42,8.34,4.42h37.21c3.34,0,6.46-1.65,8.34-4.42,1.2-1.78,1.77-3.92,1.65-6.19l-.03-.53h9.68c6.96,0,12.62,5.66,12.62,12.62v28.34c0,2.23,1.81,4.05,4.05,4.05s4.05-1.82,4.05-4.05v-28.34c0-11.42-9.29-20.72-20.72-20.72h-12.45l-1.92-4.82c-1.54-3.85-5.21-6.34-9.36-6.34h-29.04c-4.15,0-7.82,2.49-9.35,6.34l-1.93,4.82h-12.43ZM78.54,23.3h-37.21c-.67,0-1.25-.31-1.64-.87-.37-.56-.44-1.23-.2-1.85h0s4.09-10.23,4.09-10.23c.3-.76,1.03-1.25,1.84-1.25h29.04c.82,0,1.54.49,1.84,1.25l4.09,10.23c.35.89-.02,1.59-.2,1.85-.37.55-.97.87-1.64.87ZM40.42,20.94h0c-.16.4-.04.72.1.92.19.28.47.43.81.43h37.21c.43,0,.68-.23.81-.43.14-.2.26-.52.1-.92l-4.09-10.23c-.15-.38-.5-.62-.91-.62h-29.04c-.4,0-.76.24-.91.62l-4.09,10.23Z"/>
      </g>
      <g>
        <path class="cls-1" d="M92.87,66.53c0-2.51-2.04-4.55-4.55-4.55h-33.95c-2.51,0-4.55,2.04-4.55,4.55s2.04,4.55,4.55,4.55h33.95c2.52,0,4.55-2.03,4.55-4.55Z"/>
        <path class="cls-1" d="M88.33,71.57h-33.95c-2.78,0-5.05-2.26-5.05-5.05s2.26-5.05,5.05-5.05h33.95c2.78,0,5.05,2.26,5.05,5.05s-2.26,5.05-5.05,5.05ZM54.38,62.48c-2.23,0-4.05,1.82-4.05,4.05s1.81,4.05,4.05,4.05h33.95c2.23,0,4.05-1.82,4.05-4.05s-1.81-4.05-4.05-4.05h-33.95Z"/>
      </g>
      <g>
        <path class="cls-1" d="M36.16,61.98h-4.6c-2.51,0-4.55,2.04-4.55,4.55s2.04,4.55,4.55,4.55h4.61c2.51,0,4.55-2.04,4.55-4.55s-2.04-4.55-4.55-4.55Z"/>
        <path class="cls-1" d="M36.16,71.58h-4.61c-2.78,0-5.05-2.26-5.05-5.05s2.26-5.05,5.05-5.05h4.6c2.79,0,5.05,2.26,5.05,5.05s-2.26,5.05-5.05,5.05ZM31.55,62.48c-2.23,0-4.05,1.82-4.05,4.05s1.81,4.05,4.05,4.05h4.61c2.23,0,4.05-1.82,4.05-4.05s-1.82-4.05-4.05-4.05h-4.6Z"/>
      </g>
      <g>
        <path class="cls-1" d="M54.39,89.55c-2.51,0-4.55,2.04-4.55,4.55s2.04,4.55,4.55,4.55h22.48c2.51,0,4.55-2.04,4.55-4.55s-2.04-4.55-4.55-4.55h-22.48Z"/>
        <path class="cls-1" d="M76.87,99.15h-22.48c-2.78,0-5.05-2.26-5.05-5.05s2.26-5.05,5.05-5.05h22.48c2.78,0,5.05,2.26,5.05,5.05s-2.26,5.05-5.05,5.05ZM54.39,90.05c-2.23,0-4.05,1.82-4.05,4.05s1.81,4.05,4.05,4.05h22.48c2.23,0,4.05-1.82,4.05-4.05s-1.81-4.05-4.05-4.05h-22.48Z"/>
      </g>
      <g>
        <path class="cls-1" d="M36.16,89.56h-4.6c-2.51,0-4.55,2.04-4.55,4.55s2.04,4.55,4.55,4.55h4.61c2.51,0,4.55-2.04,4.55-4.55s-2.04-4.55-4.55-4.55Z"/>
        <path class="cls-1" d="M36.16,99.15h-4.61c-2.78,0-5.05-2.26-5.05-5.05s2.26-5.05,5.05-5.05h4.6c2.79,0,5.05,2.26,5.05,5.05s-2.26,5.05-5.05,5.05ZM31.55,90.06c-2.23,0-4.05,1.82-4.05,4.05s1.81,4.05,4.05,4.05h4.61c2.23,0,4.05-1.82,4.05-4.05s-1.82-4.05-4.05-4.05h-4.6Z"/>
      </g>
      <g>
        <path class="cls-1" d="M133.97,79.95c-5.56-5.56-15.25-5.56-20.81,0l-34.33,34.33c-1.21,1.21-2,2.74-2.28,4.42l-1.88,11.13c-.44,2.61.42,5.28,2.29,7.15,1.55,1.54,3.63,2.38,5.77,2.38.45,0,.91-.04,1.36-.11l11.12-1.88c1.69-.28,3.22-1.07,4.42-2.28l34.33-34.33c5.74-5.74,5.74-15.08,0-20.81ZM93.42,128.44l-9.56,1.62,1.61-9.56,23.92-23.92,7.95,7.95-23.92,23.92ZM127.54,94.32l-3.77,3.77-7.95-7.95,3.77-3.77c2.13-2.13,5.82-2.13,7.95,0h0c2.19,2.2,2.19,5.76,0,7.95Z"/>
        <path class="cls-1" d="M82.73,139.85c-2.28,0-4.51-.92-6.13-2.53-1.99-1.99-2.89-4.82-2.43-7.59l1.88-11.13c.3-1.79,1.14-3.41,2.42-4.69l34.33-34.33c5.73-5.73,15.78-5.73,21.51,0h0c2.87,2.87,4.45,6.69,4.45,10.76s-1.58,7.89-4.45,10.76l-34.33,34.33c-1.28,1.28-2.9,2.12-4.7,2.42l-11.12,1.88c-.51.08-.98.12-1.45.12ZM123.56,76.29c-3.69,0-7.37,1.34-10.05,4.01l-34.33,34.33c-1.13,1.13-1.87,2.57-2.14,4.15l-1.88,11.13c-.41,2.44.39,4.95,2.15,6.71,1.43,1.42,3.41,2.24,5.42,2.24.41,0,.83-.03,1.29-.11l11.11-1.88c1.59-.27,3.03-1,4.15-2.14l34.33-34.33c2.68-2.68,4.16-6.25,4.16-10.06s-1.48-7.37-4.16-10.05h0c-2.68-2.68-6.36-4.02-10.05-4.02ZM83.25,130.66l1.75-10.41,24.39-24.39,8.65,8.65-24.38,24.39-10.41,1.76ZM85.94,120.73l-1.47,8.71,8.71-1.47,23.45-23.46-7.24-7.24-23.46,23.46ZM123.77,98.79l-8.65-8.65,4.12-4.12c1.1-1.11,2.68-1.74,4.32-1.74h0c1.64,0,3.22.63,4.32,1.74l.15.16c2.23,2.4,2.18,6.17-.15,8.5l-4.12,4.12ZM116.54,90.14l7.24,7.24,3.41-3.41c1.99-1.99,1.99-5.24,0-7.24l-.12-.12c-.91-.85-2.17-1.33-3.49-1.33h0c-1.38,0-2.7.53-3.62,1.45l-3.42,3.42Z"/>
      </g>
    </g>
  </g>
</svg>