<?xml version="1.0" encoding="UTF-8"?><svg id="Layer_2" xmlns="http://www.w3.org/2000/svg" xmlns:xlink="http://www.w3.org/1999/xlink" viewBox="0 0 725.28 420.1"><defs><style>.cls-1{fill:#bd6322;}.cls-1,.cls-2,.cls-3,.cls-4,.cls-5,.cls-6,.cls-7,.cls-8,.cls-9,.cls-10,.cls-11,.cls-12,.cls-13,.cls-14{stroke-width:0px;}.cls-2{fill:#002c66;}.cls-3{fill:url(#radial-gradient);}.cls-4{fill:#087fff;}.cls-5{fill:#e4b2a2;}.cls-6{fill:#ffd9cd;}.cls-7{fill:url(#radial-gradient-2);}.cls-8{fill:#ffbfb3;}.cls-15{stroke:#f68b1f;stroke-miterlimit:10;stroke-width:19px;}.cls-15,.cls-13{fill:#fff;}.cls-9{fill:#a5550e;}.cls-10{fill:#f89184;}.cls-11{fill:#e07a77;}.cls-12{fill:#ff9800;}.cls-14{fill:#f68b1f;}</style><radialGradient id="radial-gradient" cx="327.95" cy="184.68" fx="327.95" fy="184.68" r="8.37" gradientUnits="userSpaceOnUse"><stop offset=".29" stop-color="#ffaea0"/><stop offset="1" stop-color="#ffcdc0"/></radialGradient><radialGradient id="radial-gradient-2" cx="402.52" fx="402.52" r="8.37" xlink:href="#radial-gradient"/></defs><g id="Layer_8"><rect class="cls-14" x="0" y="130.73" width="725.28" height="289.38" rx="31.78" ry="31.78"/><path class="cls-9" d="M493.43,131.95c0,73.23-58.65,132.6-131.01,132.6s-131.01-59.37-131.01-132.6"/><circle class="cls-15" cx="362.64" cy="130.73" r="121.23"/><path class="cls-13" d="M297.96,150.43c-.35,1.01-.67,2.03-.97,3.06-.03.11-.06.22-.1.33.66.72,1.48,1.32,2.51,1.75,2.6,1.07,5.09.16,7.05-1.5.54,2.42,2.16,4.58,4.57,5.54,2.26.89,4.68.55,6.65-.62.33,2.27,1.62,4.35,3.91,5.34.52.23,1.09.37,1.67.44.46-.88.94-1.77,1.43-2.66-.53.03-1.09-.06-1.66-.29-2.42-.96-3.11-3.93-2.14-6.15.74-1.68-1.71-2.93-2.56-1.28-2.9,5.6-10.76,2.06-9.05-3.82.46-1.58-1.82-2.11-2.56-.87-1.51,2.5-4.42,4.68-7.2,2.61-.69-.51-1.19-1.15-1.54-1.87Z"/><path class="cls-5" d="M331.62,139.74c-.64,1.28-.12,2.83,1.15,3.47,1.28.64,2.83.12,3.47-1.15.64-1.28.12-2.83-1.15-3.47-1.28-.64-2.83-.12-3.47,1.15Z"/><path class="cls-5" d="M321.22,132.79c-.64,1.28-.12,2.83,1.15,3.47,1.28.64,2.83.12,3.47-1.15.64-1.28.12-2.83-1.15-3.47-1.28-.64-2.83-.12-3.47,1.15Z"/><path class="cls-5" d="M312.21,127.69c-.64,1.28-.12,2.83,1.15,3.47,1.28.64,2.83.12,3.47-1.15.64-1.28.12-2.83-1.15-3.47-1.28-.64-2.83-.12-3.47,1.15Z"/><path class="cls-4" d="M310.9,183.84s-6.52,12.19-4.29,25.18c0,0,1.31,7.07,11.69,5.23,0,0,14.23-1.85,19.76-8.54l-18.84-20.45-8.32-1.42Z"/><path class="cls-4" d="M422.26,183.84s6.52,12.19,4.29,25.18c0,0-1.31,7.07-11.69,5.23,0,0-14.23-1.85-19.76-8.54l18.84-20.45,8.32-1.42Z"/><path class="cls-8" d="M331.99,171.19c0,8.56-6.78,15.49-15.15,15.49s-15.15-6.94-15.15-15.49,9.94-11.19,18.3-11.19,11.99,2.63,11.99,11.19Z"/><path class="cls-8" d="M400.63,171.19c0,8.56,6.78,15.49,15.15,15.49,8.36,0,15.15-6.94,15.15-15.49,0-8.56-9.94-11.19-18.3-11.19-8.36,0-11.99,2.63-11.99,11.19Z"/><path class="cls-10" d="M305.23,169.4c.06.02.13.04.19.07.08.03.15.06.23.09s.37.15.23.09c-.16-.07.04.02.08.04.07.03.14.06.21.1.15.07.3.14.44.21.36.18.72.37,1.07.57,1.85,1.06,3.46,2.36,4.79,4.09.91,1.19,1.62,2.53,2.08,3.95.38,1.17,2.24.67,1.85-.51-1.49-4.56-5.13-8.15-9.48-10.06-.39-.17-.78-.34-1.19-.48-1.18-.38-1.69,1.47-.51,1.85h0Z"/><path class="cls-10" d="M425.79,167.55c-3.29,1.07-6.33,3.39-8.4,6.13-1,1.33-1.76,2.82-2.27,4.4-.38,1.18,1.47,1.68,1.85.51,1.36-4.17,4.7-7.16,8.57-8.89.07-.03.34-.14.04-.02.06-.02.11-.05.17-.07.1-.04.19-.08.29-.11.09-.03.17-.06.26-.09,1.17-.38.67-2.24-.51-1.85h0Z"/><path class="cls-6" d="M416.9,181.1c0,17.31-22.82,31.35-50.97,31.35s-50.97-14.04-50.97-31.35-10.77-57.66,51.37-52.64c61.27,4.95,50.57,31.1,50.58,52.64Z"/><ellipse class="cls-3" cx="327.95" cy="184.68" rx="9.7" ry="6.78"/><ellipse class="cls-7" cx="402.52" cy="184.68" rx="9.7" ry="6.78"/><ellipse class="cls-10" cx="365.97" cy="178.78" rx="4.26" ry="1.95"/><path class="cls-4" d="M361.67,58.69s.83,13.07-2.5,22.39l8.48-.42s-2.92-10.57-2.23-19.19l-.42-2.92-3.34.14Z"/><path class="cls-4" d="M368.19,69.55s3.35,6.18,10.56,1.04c0,0,2.94-1.53,4.61-6.69.17-.52-.02-1.25-.56-1.32-1.12-.16-3.29-.56-7.79.47,0,0-3.86.93-6.19,4.12l-.63,2.38Z"/><path class="cls-4" d="M365.71,74.62s1.59-5.11,3.86-5.88l.19-1.93s-1.54-.05-5.45,5.16l1.4,2.65Z"/><path class="cls-4" d="M358.45,69.55s-3.35,6.18-10.56,1.04c0,0-2.94-1.53-4.61-6.69-.17-.52.02-1.25.56-1.32,1.12-.16,3.29-.56,7.79.47,0,0,3.86.93,6.19,4.12l.63,2.38Z"/><path class="cls-4" d="M360.93,74.62s-1.59-5.11-3.86-5.88l-.19-1.93s1.54-.05,5.45,5.16l-1.4,2.65Z"/><path class="cls-12" d="M375.98,44.8c-.67-1.63-3.17-2.59-6.4-.86,1.74-3.22.79-5.72-.84-6.4-1.63-.68-4.07.41-5.14,3.91-1.05-3.51-3.49-4.61-5.12-3.94s-2.59,3.17-.86,6.4c-3.22-1.74-5.72-.79-6.4.84-.68,1.63.41,4.07,3.91,5.14-3.51,1.05-4.61,3.49-3.94,5.12.67,1.63,3.17,2.59,6.4.86-1.74,3.22-.79,5.72.84,6.4,1.63.68,4.07-.41,5.14-3.91,1.05,3.51,3.49,4.61,5.12,3.94,1.63-.67,2.59-3.17.86-6.4,3.22,1.74,5.72.79,6.4-.84.68-1.63-.41-4.07-3.91-5.14,3.51-1.05,4.61-3.49,3.94-5.12Z"/><circle class="cls-1" cx="363.59" cy="49.9" r="4.72"/><path class="cls-4" d="M431.01,129.71s9.4,2.98,11.78,1.43c0,0,4.41-.91,2.35-5.85,0,0-27.28-29.59-28.59-30.51-1.31-.92-16.61-15.7-45.26-14.91l-8.02-.62s-23.66-4.9-47.83,20.62c0,0-19.86,16.65-28.65,19.77,0,0-3.3,1.27-1.61,5.15,0,0,3.84,5.39,17.53,5.06,0,0-10.32,15.33-10.91,16.29s-7.97,10.71-8.33,11.43-3.09,6.67,5.71,7.02c0,0,27.02,6.9,57.01-27.02,0,0,13.21,28.09,31.3,27.49,0,0,5.71.83,5.83-5.95,0,0,1.39-20,1.86-21.66,0,0,9.5,28.57,53.6,28.45,0,0,10.18.95,5.42-8.45,0,0-14.28-25.35-13.21-27.73Z"/><path class="cls-2" d="M351.63,170.11c-7.13-2.37-14.56-1.96-21.39,1.28-.94.45-1.18,1.79-.69,2.63.56.96,1.69,1.14,2.63.69,5.98-2.84,12.33-2.92,18.43-.89,2.36.78,3.37-2.93,1.02-3.71h0Z"/><path class="cls-2" d="M382.57,173.82c6.1-2.03,12.44-1.95,18.43.89.94.45,2.08.26,2.63-.69.49-.84.25-2.19-.69-2.63-6.83-3.24-14.26-3.65-21.39-1.28-2.34.78-1.34,4.5,1.02,3.71h0Z"/><path class="cls-11" d="M354.67,185.91c7.39-1.1,14.87-1.1,22.44,0,.66,0,1.16.71,1.02,1.47-.62,3.45-2.59,11.9-13.07,11.59,0,0-9.56.04-11.47-11.53-.13-.79.4-1.53,1.08-1.53Z"/></g></svg>