<?xml version="1.0" encoding="UTF-8"?><svg id="Layer_2" xmlns="http://www.w3.org/2000/svg" viewBox="0 0 725.28 420.1"><defs><style>.cls-1{fill:#bababa;}.cls-1,.cls-2,.cls-3,.cls-4,.cls-5,.cls-6,.cls-7,.cls-8,.cls-9,.cls-10{stroke-width:0px;}.cls-11{fill:#fff;stroke:#29345f;stroke-miterlimit:10;stroke-width:19px;}.cls-2{fill:#c39930;}.cls-3{fill:#876a25;}.cls-4{fill:#d1d1d1;}.cls-5{fill:#ededed;}.cls-6{fill:#ddb33b;}.cls-7{fill:#29345f;}.cls-8{fill:#000b30;}.cls-9{fill:#a4822c;}.cls-10{fill:#f6e174;}</style></defs><g id="Layer_8"><rect class="cls-7" x="0" y="130.73" width="725.28" height="289.38" rx="31.78" ry="31.78"/><path class="cls-8" d="M493.43,131.95c0,73.23-58.65,132.6-131.01,132.6s-131.01-59.37-131.01-132.6"/><circle class="cls-11" cx="362.64" cy="130.73" r="121.23"/><path class="cls-4" d="M402.85,117.03h-13.41s0-23.07,0-23.07c0-14.35-11.67-26.02-26.02-26.02-14.35,0-26.02,11.67-26.02,26.02v23.07s-13.41,0-13.41,0v-23.07c0-21.74,17.69-39.43,39.43-39.43,21.74,0,39.43,17.69,39.43,39.43v23.07Z"/><path class="cls-1" d="M402.85,93.96v23.07s-13.41,0-13.41,0v-6.17c5.37-2.15,7.51-6.44,7.51-12.34v-4.56c0-20.75-16.11-37.81-36.48-39.32.22-.02.43-.03.65-.04.04,0,.09,0,.13,0,.15,0,.31-.02.46-.02.06,0,.12,0,.19,0,.09,0,.17,0,.26,0,.17,0,.34-.01.52-.01.25,0,.5,0,.74,0,21.74,0,39.43,17.69,39.43,39.43Z"/><rect class="cls-6" x="315.66" y="112.21" width="95.5" height="78.06" rx="5.77" ry="5.77"/><path class="cls-9" d="M373.06,163.54c.43,2.7-1.65,5.13-4.38,5.13h-10.53c-2.73,0-4.81-2.44-4.38-5.13l1.5-9.39c-2.25-2.15-3.66-5.18-3.66-8.54,0-6.52,5.28-11.8,11.8-11.8,6.52,0,11.8,5.28,11.8,11.8,0,3.36-1.4,6.39-3.66,8.54l1.5,9.39Z"/><path class="cls-2" d="M411.16,117.57v67.33c0,2.96-2.4,5.37-5.37,5.37h-68.67c27.9,0,57.68-4.56,57.68-36.75v-27.36c0-7.7-6.25-13.95-13.95-13.95h24.95c2.96,0,5.37,2.4,5.37,5.37Z"/><path class="cls-10" d="M320.22,118.8v35.79s11.81-29.08,36.29-37.82h-34.26c-1.12,0-2.03.91-2.03,2.03Z"/><path class="cls-3" d="M353.22,146.27c0,3.36,1.4,6.39,3.66,8.54l-1.5,9.39c-.28,1.78.53,3.45,1.9,4.38-2.29-.45-3.89-2.65-3.51-5.05l1.5-9.39c-2.25-2.15-3.66-5.18-3.66-8.54,0-6.52,5.28-11.8,11.8-11.8,1.92,0,3.73.46,5.33,1.27-1.17-.39-2.42-.6-3.72-.6-6.52,0-11.8,5.28-11.8,11.8Z"/><path class="cls-5" d="M355.37,57.48s-27.09,5.22-29.24,34.61h5.1s1.07-23.34,24.14-34.61Z"/></g></svg>