<?xml version="1.0" encoding="UTF-8"?><svg id="Layer_2" xmlns="http://www.w3.org/2000/svg" viewBox="0 0 163.14 204.47"><defs><style>.cls-1{fill:#0056ff;stroke-width:0px;}</style></defs><g id="Layer_1-2"><path class="cls-1" d="M153.88,204.47c-5.11,0-9.26-4.15-9.26-9.26,0-34.77-28.28-63.05-63.05-63.05s-63.05,28.29-63.05,63.05c0,5.11-4.15,9.26-9.26,9.26s-9.26-4.15-9.26-9.26c0-44.98,36.59-81.57,81.57-81.57s81.57,36.59,81.57,81.57c0,5.11-4.15,9.26-9.26,9.26ZM81.57,101.17c-.16,0-.32,0-.47-.01-27.68-.26-50.11-22.85-50.11-50.58S53.68,0,81.57,0s50.59,22.69,50.59,50.59-22.69,50.59-50.59,50.59ZM81.57,18.52c-17.68,0-32.07,14.38-32.07,32.06s14.39,32.07,32.07,32.07c.13,0,.25,0,.38,0,17.51-.21,31.69-14.51,31.69-32.07s-14.39-32.07-32.07-32.07Z"/></g></svg>