<?xml version="1.0" encoding="UTF-8"?><svg id="Layer_2" xmlns="http://www.w3.org/2000/svg" viewBox="0 0 216.12 216.12"><defs><style>.cls-1{fill:#0056ff;stroke-width:0px;}</style></defs><g id="Layer_1-2"><path class="cls-1" d="M206.86,216.12h-74.1c-5.11,0-9.26-4.15-9.26-9.26v-48.36c0-8.23-6.93-14.92-15.44-14.92s-15.44,6.69-15.44,14.92v48.36c0,5.11-4.15,9.26-9.26,9.26H9.26c-5.11,0-9.26-4.15-9.26-9.26v-103.36c0-7.04,0-10.91,1.12-15.1.97-3.66,2.59-7.14,4.79-10.33,2.47-3.57,5.43-6.11,10.81-10.72l59.3-50.8c9.88-8.47,15.32-13.14,22.45-15.19,6.26-1.81,12.88-1.81,19.14,0,7.15,2.07,12.6,6.74,22.48,15.22l59.27,50.78c5.2,4.45,8.34,7.13,10.82,10.72,2.17,3.13,3.78,6.6,4.79,10.3,1.12,4.23,1.12,8.1,1.12,15.13v102.64c.02.24.03.48.03.72,0,5.11-4.15,9.26-9.26,9.26ZM142.02,197.6h55.56v-94.1c0-5.47,0-8.48-.49-10.32-.44-1.61-1.16-3.17-2.13-4.57-1.07-1.55-3.11-3.32-7.63-7.19l-59.28-50.79c-7.92-6.79-12.28-10.53-15.57-11.49-2.89-.84-5.96-.84-8.86,0-3.27.94-7.62,4.68-15.53,11.46l-59.3,50.81c-4.52,3.87-6.56,5.65-7.63,7.19-.99,1.43-1.71,2.97-2.13,4.57-.5,1.85-.5,4.86-.5,10.32v94.1h55.58v-39.1c0-18.44,15.23-33.44,33.96-33.44s33.96,15,33.96,33.44v39.1Z"/></g></svg>