<?xml version="1.0" encoding="UTF-8"?><svg id="Layer_2" xmlns="http://www.w3.org/2000/svg" viewBox="0 0 218.44 218.44"><defs><style>.cls-1{fill:#0056ff;stroke-width:0px;}</style></defs><g id="Layer_1-2"><path class="cls-1" d="M179.43,218.44H39.01c-21.51,0-39.01-17.5-39.01-39.01V39.01C0,17.5,17.5,0,39.01,0h140.42c21.51,0,39.01,17.5,39.01,39.01v140.42c0,21.51-17.5,39.01-39.01,39.01ZM39.01,18.52c-11.3,0-20.49,9.19-20.49,20.49v140.42c0,11.3,9.19,20.49,20.49,20.49h140.42c11.3,0,20.49-9.19,20.49-20.49V39.01c0-11.3-9.19-20.49-20.49-20.49H39.01Z"/><path class="cls-1" d="M34.38,137.32h4.02c2.16,0,3.57.88,3.57,3.03,0,1.55-.85,2.56-2.37,2.93l2.47,4.1h-1.74l-2.26-3.91h-2.2v3.91h-1.51v-10.07ZM38.33,142.17c1.35,0,2.11-.39,2.11-1.81,0-1.32-.74-1.74-2.04-1.74h-2.52v3.55h2.45Z"/><path class="cls-1" d="M50.05,137.32h6.44v1.29h-4.94v3.02h3.53v1.28h-3.53v3.18h5.12v1.29h-6.63v-10.07Z"/><path class="cls-1" d="M67.36,138.6h-3.24v-1.28h7.99v1.28h-3.26v8.79h-1.49v-8.79Z"/><path class="cls-1" d="M81.56,137.32h1.62l3.73,10.07h-1.56l-.9-2.55h-4.18l-.9,2.55h-1.56l3.75-10.07ZM83.99,143.55l-1.62-4.59h-.01l-1.62,4.59h3.26Z"/><path class="cls-1" d="M95.17,137.32h1.51v10.07h-1.51v-10.07Z"/><path class="cls-1" d="M105.28,137.32h1.51v8.77h5.07v1.29h-6.57v-10.07Z"/><path class="cls-1" d="M129.34,142.35c0-3.37,1.95-5.18,4.76-5.18,2.55,0,4.01,1.48,4.39,3.38h-1.53c-.28-1.28-1.2-2.06-2.85-2.06-1.98,0-3.21,1.25-3.21,3.85s1.26,3.85,3.2,3.85c1.68,0,2.55-.75,2.89-2.06h1.58c-.51,2.13-2.16,3.38-4.47,3.38-2.79,0-4.75-1.81-4.75-5.18Z"/><path class="cls-1" d="M146.5,137.32h1.51v8.77h5.07v1.29h-6.57v-10.07Z"/><path class="cls-1" d="M160.29,143.49v-6.17h1.51v6.18c0,1.96.85,2.7,2.4,2.7s2.43-.75,2.43-2.7v-6.18h1.49v6.17c0,2.66-1.46,4.04-3.92,4.04s-3.91-1.38-3.91-4.04Z"/><path class="cls-1" d="M176.37,137.32h4.02c2.49,0,3.42.98,3.42,2.69,0,.89-.51,1.7-1.43,2.11,1.1.42,1.68,1.34,1.68,2.3,0,2.01-1.53,2.96-3.71,2.96h-3.98v-10.07ZM180.57,141.49c1.17,0,1.71-.46,1.71-1.47s-.58-1.44-1.79-1.44h-2.62v2.9h2.71ZM180.53,146.12c1.32,0,2-.52,2-1.7s-.68-1.68-1.93-1.68h-2.74v3.38h2.66Z"/><path class="cls-1" d="M30.68,100.4c0-18.35,10.47-29.49,27.38-29.49s27.38,11.14,27.38,29.49-10.47,29.49-27.38,29.49-27.38-11.14-27.38-29.49ZM73.39,100.4c0-12.29-5.77-19.17-15.34-19.17s-15.34,6.88-15.34,19.17,5.77,19.17,15.34,19.17,15.34-6.88,15.34-19.17Z"/><polygon class="cls-1" points="104.31 129.07 127.73 129.07 104.31 91.96 104.31 129.07"/><polygon class="cls-1" points="126.08 72.08 102.88 72.08 126.08 108.84 126.08 72.08"/><path class="cls-1" d="M147.03,71.73h39.66v10.16h-27.79v13.11h20.04v9.99h-20.04v13.93h28.86v10.16h-40.73v-57.34Z"/></g></svg>