<?xml version="1.0" encoding="UTF-8"?><svg id="Layer_2" xmlns="http://www.w3.org/2000/svg" viewBox="0 0 218.49 224.15"><defs><style>.cls-1{fill:#0056ff;stroke-width:0px;}</style></defs><g id="Layer_1-2"><path class="cls-1" d="M110.67,152.61h-2.86c-40.13,0-72.78-32.65-72.78-72.78V20.54C35.03,9.41,43.93.32,54.98.02c.19-.01.39-.02.58-.02h107.36c11.32,0,20.53,9.21,20.53,20.53v59.3c0,40.13-32.65,72.78-72.78,72.78ZM56,18.52c-.15,0-.3.01-.44.01-1.11,0-2.01.9-2.01,2.01v59.29c0,29.92,24.34,54.26,54.26,54.26h2.86c29.92,0,54.26-24.34,54.26-54.26V20.53c0-1.11-.9-2.01-2.01-2.01H56Z"/><path class="cls-1" d="M109.25,186.87c-5.11,0-9.26-4.15-9.26-9.26v-29.78c0-5.11,4.15-9.26,9.26-9.26s9.26,4.15,9.26,9.26v29.78c0,5.11-4.15,9.26-9.26,9.26Z"/><path class="cls-1" d="M177.12,112.64c-5.11,0-9.26-4.15-9.26-9.26s4.15-9.26,9.26-9.26c13.89,0,17.33-6.04,17.72-6.82.57-1.7,5.13-15.81,5.13-28.88,0-3.11-1.09-4.29-2.86-5.18-1.96-.99-4.35-1.25-5.11-1.27h-17.27c-5.11,0-9.26-4.14-9.26-9.26s4.15-9.26,9.26-9.26h17.37c10.61,0,26.39,6.65,26.39,24.96,0,16.83-5.8,33.91-6.21,35.1-2.42,7.14-12.51,19.13-35.16,19.13ZM194.76,87.48s-.03.12-.02.08c.01-.06.02-.08.02-.08ZM194.82,87.34c-.04.1-.06.17-.07.21,0-.02.02-.04.03-.09,0,0,.02-.05.04-.13Z"/><path class="cls-1" d="M41.37,112.64c-22.68,0-32.77-12.01-35.17-19.15-.48-1.39-6.2-18.36-6.2-35.07,0-18.31,15.78-24.96,26.39-24.96h17.37c5.11,0,9.26,4.15,9.26,9.26s-4.15,9.26-9.26,9.26h-17.37c-.66.02-3.05.28-5.01,1.27-1.77.89-2.86,2.07-2.86,5.18,0,13.06,4.56,27.16,5.13,28.89.39.79,3.84,6.82,17.71,6.82,5.11,0,9.26,4.15,9.26,9.26s-4.15,9.26-9.26,9.26ZM23.75,87.58h0s0,0,0,0ZM23.75,87.56c.02.05-.01-.08-.02-.08,0,0,0,.02.02.08ZM23.67,87.34c.03.08.04.12.04.13.01.04.02.07.03.08-.01-.04-.03-.11-.07-.21Z"/><path class="cls-1" d="M110.91,188.32c26.4,0,29.29,17.31,29.29,17.31h-61.91s1.26-17.31,32.62-17.31M110.91,169.8c-18.18,0-32.07,4.79-41.31,14.22-8.33,8.51-9.59,17.66-9.78,20.27-.37,5.13,1.41,10.19,4.91,13.95,3.5,3.77,8.42,5.91,13.56,5.91h61.91c5.45,0,10.61-2.4,14.13-6.55s5.03-9.65,4.13-15.02c-.39-2.3-2.2-10.42-9.45-18.21-6.18-6.64-17.8-14.56-38.11-14.56h0Z"/><path class="cls-1" d="M113.32,48.72l2.69,8.29h8.72c4.15,0,5.88,5.31,2.52,7.75l-7.06,5.13,2.69,8.29c1.28,3.95-3.23,7.23-6.6,4.79l-7.06-5.13-7.06,5.13c-3.37,2.44-7.88-.84-6.6-4.79l2.69-8.29-7.06-5.13c-3.37-2.44-1.63-7.75,2.51-7.75h8.72l2.69-8.29c1.28-3.95,6.87-3.95,8.16,0h.03Z"/></g></svg>