<?xml version="1.0" encoding="UTF-8"?><svg id="Layer_2" xmlns="http://www.w3.org/2000/svg" viewBox="0 0 305.91 220.6"><defs><style>.cls-1{fill:"currentColor";stroke-width:0px;}</style></defs><g id="Layer_1-2"><path class="cls-1" d="M150.51,220.6c-27.37,0-54.73-7.66-79.14-22.98l-.14-.09c-8.28-5.4-13.37-15.14-13.27-25.4v-60.38c0-5.11,4.15-9.26,9.26-9.26s9.26,4.15,9.26,9.26v60.47c-.04,4.07,1.8,7.78,4.82,9.77,42.69,26.76,95.72,26.76,138.42,0,3.02-2.01,4.86-5.7,4.82-9.67,0-.03,0-.07,0-.1v-57.84c0-5.11,4.15-9.26,9.26-9.26s9.26,4.15,9.26,9.26v57.77c.11,10.24-4.97,19.96-13.26,25.38-.05.03-.1.06-.15.09-24.41,15.32-51.78,22.98-79.14,22.98Z"/><path class="cls-1" d="M149.83,155.21h-.16c-4.45,0-8.77-.92-12.83-2.74L12.05,96.58c-9.96-4.47-14.7-16.53-10.55-26.88,2.01-5.01,5.76-8.94,10.56-11.09L136.84,2.74c4.08-1.82,8.4-2.74,12.84-2.74s8.72.92,12.8,2.73l124.82,55.88c3.95,1.77,15.95,7.16,13.38,22.44-1.76,10.5-9.78,13.98-12.8,15.29l-.55.24-120.15,53.79c-.36.16-.74.34-1.15.53-3.42,1.61-9.15,4.3-16.2,4.3ZM149.68,18.52c-1.85,0-3.58.37-5.28,1.13L19.62,75.51c-.51.23-.79.71-.93,1.08-.51,1.27.09,2.71.94,3.1l124.78,55.88c1.67.75,3.44,1.12,5.26,1.12h.16c2.92,0,5.91-1.41,8.32-2.54.54-.25,1.03-.48,1.48-.68l120.11-53.77c.23-.1.49-.22.77-.34.58-.25,1.54-.67,1.81-.91,0-.01.05-.17.1-.46.08-.45.1-.77.1-.97-.33-.25-1.1-.74-2.79-1.5l-124.79-55.87c-1.67-.74-3.45-1.12-5.26-1.12ZM282.75,77.2h0,0Z"/><path class="cls-1" d="M280.54,138.06c-5.11,0-9.26-4.15-9.26-9.26v-34.52c0-5.11,4.15-9.26,9.26-9.26s9.26,4.15,9.26,9.26v34.52c0,5.11-4.15,9.26-9.26,9.26Z"/><path class="cls-1" d="M281.22,139.65c3.41,0,6.18,2.77,6.18,6.18v24.55h-13.71v-24.55c0-3.41,2.77-6.18,6.18-6.18h1.35M281.22,121.13h-1.35c-13.62,0-24.7,11.08-24.7,24.7v24.55c0,10.23,8.29,18.52,18.52,18.52h13.71c10.23,0,18.52-8.29,18.52-18.52v-24.55c0-13.62-11.08-24.7-24.7-24.7h0Z"/></g></svg>