<?xml version="1.0" encoding="UTF-8"?><svg id="Layer_2" xmlns="http://www.w3.org/2000/svg" viewBox="0 0 173.17 183.89"><defs><style>.cls-1{fill:#000;stroke-width:0px;}</style></defs><g id="Layer_1-2"><path class="cls-1" d="M151.15,122.5l11.36-10.56c7.69-7.1,11.61-17.38,10.46-27.47-.71-6.3-5.6-11.19-11.9-11.9-10.12-1.17-20.36,2.78-27.46,10.46l-10.56,11.38-23.78-12.39c-5.43-2.83-12.06-1.73-16.51,2.73l-3.87,3.86c-2.07,2.07-3.2,4.92-3.09,7.81.11,2.8,1.38,5.45,3.5,7.25l19.65,16.79-13.18,14.28-6.88-2.35c-3.69-1.26-7.89-.26-10.69,2.56l-3.46,3.46c-2.08,2.08-3.21,4.93-3.09,7.83.11,2.81,1.4,5.46,3.52,7.25l10.71,9.09c2.53,2.15,4.91,4.53,7.06,7.06l9.09,10.71c1.8,2.13,4.45,3.41,7.26,3.52.14,0,.28,0,.41,0,2.76,0,5.45-1.12,7.41-3.09l3.47-3.47c2.81-2.81,3.81-7,2.55-10.7l-2.34-6.87,14.28-13.18,16.79,19.66c1.8,2.11,4.45,3.39,7.25,3.5,2.87.12,5.74-1.02,7.81-3.09l3.86-3.87c4.45-4.45,5.55-11.09,2.73-16.51l-12.39-23.78h0ZM99.82,173.11c-1.03-.04-1.99-.51-2.66-1.3l-7.01-8.25c-2.5-2.94-5.24-5.69-8.15-8.15l-8.26-7.01c-.78-.67-1.26-1.63-1.3-2.66-.04-1.03.35-2.03,1.08-2.76l.2-.2c.7-.7,1.64-1.08,2.61-1.08.4,0,.8.06,1.19.2l9.25,3.16c.3.1.61.16.93.16.8,0,1.57-.34,2.11-.92l20.71-22.43c.53-.57.8-1.34.75-2.12-.05-.78-.41-1.51-1-2.01l-22.4-19.13c-.78-.67-1.25-1.63-1.29-2.66s.35-2.02,1.08-2.75l1.77-1.77c.95-.95,2.23-1.5,3.52-1.5.67,0,1.3.14,1.87.42l28.32,14.74c.41.22.86.32,1.32.32.8,0,1.57-.34,2.12-.92l13.97-15.05c4.35-4.7,10.39-7.4,16.58-7.4,1.12,0,2.26.09,3.38.26,1.64.25,2.91,1.58,3.1,3.23.8,7.12-2.01,14.4-7.5,19.49l-15.04,13.96c-.94.88-1.19,2.3-.6,3.44l14.69,28.22c.9,1.69.49,3.96-1.03,5.47l-1.77,1.77c-.69.69-1.63,1.08-2.61,1.08-.05,0-.1,0-.14,0-1.03-.04-1.99-.51-2.66-1.29l-19.12-22.4c-.51-.59-1.24-.96-2.01-1h-.27c-.65-.01-1.32.27-1.85.75l-22.43,20.71c-.83.77-1.14,1.97-.77,3.04l3.16,9.25c.45,1.33.11,2.8-.88,3.8l-.2.2c-.69.69-1.63,1.08-2.61,1.08-.05,0-.1,0-.15,0Z"/><path class="cls-1" d="M51.36,154.62c-.62,0-1.22-.12-1.79-.36C19.46,141.84,0,112.76,0,80.16,0,35.96,35.96,0,80.17,0c33,0,63.08,20.67,74.86,51.44.93,2.43-.29,5.17-2.72,6.1-.54.2-1.1.31-1.68.31-1.95,0-3.72-1.22-4.42-3.03-5.42-14.16-15.63-26.45-28.76-34.62-.3-.19-.64-.28-.97-.28-.36,0-.72.11-1.04.32-.6.41-.91,1.14-.78,1.85l.73,4.03c1.41,7.72-.9,15.4-6.33,21.06-4.6,4.8-10.74,7.45-17.3,7.45-1.15,0-2.32-.08-3.47-.25-.61-.1-1.1-.15-1.64-.15-4.41,0-8.36,2.71-10.06,6.89-2.17,5.4-6.56,9.61-12.05,11.57-2.17.78-4.46,1.17-6.8,1.17-3.42,0-6.8-.87-9.78-2.51l-31.31-17.07c-.27-.15-.58-.22-.88-.22-.22,0-.43.04-.64.12-.5.18-.89.58-1.08,1.08-3.06,8.09-4.61,16.47-4.61,24.9,0,1.91.1,3.96.3,6.29.04.49.28.94.66,1.26.33.28.75.43,1.18.43.06,0,.12,0,.17,0l8.34-.79c.93-.09,1.87-.14,2.8-.14,11.13,0,21.57,6.39,26.58,16.28,2.12,4.17,3.2,8.72,3.2,13.55,0,4.21-.87,8.38-2.51,12.04l-4.74,10.74c-.39.88-.04,1.9.8,2.36,2.57,1.4,4.78,2.47,6.94,3.36,2.4.99,3.55,3.76,2.56,6.16-.73,1.77-2.44,2.92-4.37,2.92ZM22.87,96.65c-.62,0-1.25.03-1.88.09l-7.18.68c-.55.05-1.04.34-1.35.8-.31.45-.4,1.02-.25,1.55,3.92,13.69,11.75,25.71,22.66,34.77.33.28.75.42,1.18.42.14,0,.28-.02.42-.05.56-.13,1.03-.52,1.26-1.05l3.8-8.61c1.11-2.47,1.7-5.31,1.7-8.2,0-3.32-.73-6.44-2.18-9.28-3.43-6.75-10.57-11.11-18.19-11.11ZM80.16,9.44c-24.64,0-47.13,12.61-60.17,33.72-.27.43-.34.95-.21,1.44.13.49.45.9.9,1.15l31.82,17.35c1.64.9,3.4,1.36,5.22,1.36,1.23,0,2.46-.22,3.65-.64,2.95-1.05,5.31-3.32,6.47-6.21,3.17-7.77,10.49-12.8,18.66-12.8,1.08,0,2.16.09,3.23.27.69.1,1.35.14,2.01.14,3.91,0,7.75-1.66,10.52-4.56,3.32-3.46,4.72-8.14,3.86-12.84l-2.42-13.28c-.12-.66-.59-1.2-1.23-1.42-7.29-2.45-14.79-3.69-22.31-3.69Z"/></g></svg>