<?xml version="1.0" encoding="UTF-8"?><svg id="Layer_2" xmlns="http://www.w3.org/2000/svg" viewBox="0 0 173.87 173.9"><defs><style>.cls-1{fill:#000;stroke-width:0px;}</style></defs><g id="Layer_1-2"><path class="cls-1" d="M48.47,40.46l-28.46,61.66c-2.64,5.85-2.84,12.37-.57,18.37,1.62,4.27,4.35,7.91,7.9,10.6l-11.21,24.85-8.95-4.04c-2.57-1.16-5.58-.01-6.74,2.55-1.16,2.56-.02,5.58,2.55,6.74l27.18,12.26c6.09,2.5,10.2-6.38,4.19-9.29l-8.95-4.04,11.13-24.67c1.86.45,3.75.69,5.64.69,8.82.13,18.3-5.63,21.9-14.15l22.74-50.42,23.56,51.75c2.48,5.49,6.94,9.69,12.58,11.82,2.6.98,5.3,1.47,7.99,1.47,2.18,0,4.35-.33,6.46-.96l11.04,24.48-8.95,4.04c-5.88,3.01-2.18,11.76,4.19,9.29l27.18-12.26c6.2-3.26,1.69-11.72-4.19-9.29l-8.95,4.04-11.1-24.61c3.79-2.58,6.7-6.25,8.36-10.63,2.13-5.63,1.94-11.76-.53-17.25l-27.96-61.99c-1.15-2.56-4.16-3.7-6.73-2.56l-32.97,14.76-32.71-14.75c-1.23-.56-2.62-.57-3.9-.12-1.24.44-1.74,1.67-1.74,1.67h0ZM54.81,117.82c-8.92,17.08-32.37,4.52-25.5-11.5l8.26-18.3c8.65,3.71,16.78,10.04,22.86,17.37l-5.61,12.44ZM65,95.22c-6.36-6.81-14.13-12.38-22.61-16.21l-.64-.29,12.82-28.43,25.5,11.5-15.07,33.43ZM119.31,50.28l11.06,24.53-.59.27c-8.54,3.85-16.35,9.47-22.73,16.34l-13.48-29.61,25.74-11.52ZM126.58,125.63c-3.09-1.17-5.54-3.47-6.9-6.5l-8.01-17.58c6.03-7.3,14.08-13.63,22.9-17.45l10.62,23.55c5.29,12.05-9.03,21.34-18.61,17.98h0Z"/><path class="cls-1" d="M40.33,29.67c3.82,5.63,11.88.27,8.65-5.39l-8.8-14.1c-1.49-2.39-4.63-3.12-7.02-1.63s-3.12,4.63-1.63,7.02l8.8,14.1Z"/><path class="cls-1" d="M61.1,26.25c2.29.65,5.51-1.04,6.11-3.81l3.75-16.19c.64-2.74-1.07-5.48-3.81-6.11-2.74-.64-5.48,1.07-6.11,3.81l-3.75,16.19c-.64,2.74,1.07,5.48,3.81,6.11h0Z"/><path class="cls-1" d="M15.55,41.6l16.19,3.75c6.84,1.19,8.48-8.32,2.3-9.93l-16.19-3.75c-2.74-.64-5.48,1.07-6.11,3.81-.64,2.74,1.07,5.48,3.81,6.11Z"/><path class="cls-1" d="M121.77,27.21c2.76,0,5-2.24,5-5s-2.24-5-5-5-5,2.24-5,5,2.24,5,5,5Z"/><path class="cls-1" d="M141.26,38.21c2.76,0,5-2.24,5-5s-2.24-5-5-5-5,2.24-5,5,2.24,5,5,5Z"/></g></svg>