<?xml version="1.0" encoding="UTF-8"?><svg id="Layer_2" xmlns="http://www.w3.org/2000/svg" viewBox="0 0 115.55 115.69"><defs><style>.cls-1{fill:#000;stroke-width:0px;}</style></defs><g id="Layer_1-2"><path id="gift" class="cls-1" d="M102.22,23.71h-6.31c1.21-2.28,1.85-4.82,1.87-7.41C97.78,7.31,90.5.01,81.51,0c-4.9,0-9.54,2.2-12.63,5.99-.16.23-6.82,9.06-11.1,14.76-4.29-5.71-10.96-14.57-11.15-14.81-5.71-6.94-15.97-7.95-22.91-2.24-3.77,3.1-5.95,7.72-5.94,12.6.02,2.58.66,5.12,1.87,7.41h-6.31c-7.36,0-13.32,5.97-13.33,13.33v20.74c0,2.45,1.99,4.44,4.44,4.44h1.48v31.11c-1.27,11,6.61,20.95,17.61,22.22,1.53.18,3.08.18,4.62,0h59.26c11,1.27,20.95-6.61,22.22-17.61.18-1.53.18-3.08,0-4.62v-31.11h1.48c2.45,0,4.44-1.99,4.44-4.44v-20.74c0-7.36-5.97-13.32-13.33-13.33h0ZM106.66,37.04v16.3h-44.44v-20.74h40c2.45,0,4.44,1.99,4.44,4.44ZM75.78,11.6c1.39-1.72,3.48-2.72,5.69-2.71,4.09,0,7.41,3.32,7.41,7.41s-3.32,7.41-7.41,7.41h-14.81c4.01-5.32,8.84-11.74,9.12-12.11ZM26.67,16.3c0-4.09,3.32-7.4,7.41-7.41,2.17-.02,4.24.94,5.62,2.61.31.42,5.17,6.87,9.2,12.2h-14.81c-4.09,0-7.4-3.32-7.41-7.41ZM8.89,37.04c0-2.45,1.99-4.44,4.44-4.44h40v20.74H8.89v-16.3ZM14.81,93.33v-31.11h38.52v44.44h-25.18c-9.34,0-13.33-3.99-13.33-13.33ZM100.74,93.33c0,9.34-3.99,13.33-13.33,13.33h-25.18v-44.44h38.52v31.11Z"/></g></svg>