<?xml version="1.0" encoding="UTF-8"?><svg id="Layer_2" xmlns="http://www.w3.org/2000/svg" viewBox="0 0 156.6 181.31"><defs><style>.cls-1{fill:#000;stroke-width:0px;}</style></defs><g id="Layer_1-2"><path class="cls-1" d="M154.05,95.85c-20.43-6.01-37.97-20.08-48.32-38.7,2.22-4.48,2.54-9.78.69-14.61l-4.13-10.79c-2.22-5.79-7.87-9.68-14.07-9.68h-2.29c1.32-2.19,2.08-4.76,2.08-7.5,0-8.04-6.54-14.58-14.58-14.58s-14.58,6.54-14.58,14.58c0,2.74.76,5.3,2.08,7.5h-2.29c-6.2,0-11.85,3.89-14.07,9.68l-4.13,10.79c-2.57,6.71-.95,14.32,4.13,19.4l9.65,9.65-6.2,57.05c-.22,1.99.11,3.92.85,5.65h-5.39c-1.96,0-3.54,1.59-3.54,3.54v16.43h-16.43c-1.96,0-3.54,1.59-3.54,3.54v16.43H3.54c-1.96,0-3.54,1.59-3.54,3.54s1.59,3.54,3.54,3.54h53.95c1.96,0,3.54-1.59,3.54-3.54s-1.59-3.54-3.54-3.54h-30.44v-12.89h16.43c1.96,0,3.54-1.59,3.54-3.54v-16.43h52.82v16.43c0,1.96,1.59,3.54,3.54,3.54h16.43v12.89h-30.45c-1.96,0-3.54,1.59-3.54,3.54s1.59,3.54,3.54,3.54h53.95c1.96,0,3.54-1.59,3.54-3.54s-1.59-3.54-3.54-3.54h-16.43v-16.43c0-1.96-1.59-3.54-3.54-3.54h-16.43v-16.43c0-1.96-1.59-3.54-3.54-3.54h-5.39c.75-1.73,1.07-3.66.85-5.65l-.98-8.98c2.96-.44,6.01.02,8.73,1.34,3.09,1.51,6.37,2.22,9.6,2.22,8.17,0,16.04-4.56,19.85-12.39,2.96-6.09,9.67-9.42,16.32-8.1h0c.23.04.46.07.69.07,1.53,0,2.94-1,3.4-2.54.55-1.88-.52-3.84-2.4-4.4ZM65.94,14.58c0-4.13,3.36-7.5,7.5-7.5s7.5,3.36,7.5,7.5-3.36,7.5-7.5,7.5-7.5-3.36-7.5-7.5ZM47.05,45.07l4.13-10.79c1.17-3.07,4.17-5.13,7.46-5.13h29.58c3.28,0,6.28,2.06,7.46,5.13l4.13,10.79c1.57,4.1.58,8.75-2.52,11.86l-4.83,4.83v-16.44c0-1.96-1.59-3.54-3.54-3.54s-3.54,1.59-3.54,3.54v21.18h-23.88v-21.18c0-1.96-1.59-3.54-3.54-3.54s-3.54,1.59-3.54,3.54v16.44l-4.83-4.83c-3.1-3.1-4.09-7.76-2.52-11.86h0ZM61.13,73.59h24.6l6.07,55.82c.24,2.18-1.27,4.18-3.42,4.56-2.25.4-4.41-1.11-4.83-3.35l-6.64-36.13c-.31-1.68-1.77-2.9-3.48-2.9s-3.17,1.22-3.48,2.9l-6.64,36.13c-.41,2.25-2.58,3.75-4.83,3.35-2.16-.38-3.66-2.38-3.42-4.56l6.07-55.82ZM69.55,134.29c.32-.75.57-1.56.72-2.4l3.16-17.18,3.16,17.18c.15.84.4,1.64.72,2.4h-7.76ZM129.67,107.73c-3.6,7.41-12.57,10.51-19.98,6.9-3.92-1.91-8.31-2.6-12.6-2.02l-4.46-41.03,8.4-8.4c9.06,15.05,22.52,27.15,38.33,34.62-4.11,2.12-7.57,5.53-9.7,9.92h0Z"/><path class="cls-1" d="M127.52,25.15c1.92,0,3.48,1.56,3.48,3.48s1.59,3.54,3.54,3.54,3.54-1.59,3.54-3.54,1.56-3.48,3.48-3.48,3.54-1.59,3.54-3.54-1.59-3.54-3.54-3.54-3.48-1.56-3.48-3.48-1.59-3.54-3.54-3.54-3.54,1.59-3.54,3.54-1.56,3.48-3.48,3.48-3.54,1.59-3.54,3.54,1.59,3.54,3.54,3.54Z"/><path class="cls-1" d="M5.44,68.3c1.92,0,3.48,1.56,3.48,3.48s1.59,3.54,3.54,3.54,3.54-1.59,3.54-3.54,1.56-3.48,3.48-3.48,3.54-1.59,3.54-3.54-1.59-3.54-3.54-3.54-3.48-1.56-3.48-3.48-1.59-3.54-3.54-3.54-3.54,1.59-3.54,3.54-1.56,3.48-3.48,3.48-3.54,1.59-3.54,3.54,1.59,3.54,3.54,3.54Z"/><circle class="cls-1" cx="73.43" cy="177.77" r="3.54"/></g></svg>