<?xml version="1.0" encoding="utf-8"?>
<!-- Generator: Adobe Illustrator 28.3.0, SVG Export Plug-In . SVG Version: 6.00 Build 0)  -->
<svg version="1.1" id="Layer_2_00000002356438994278257170000007706392844363976589_"
	 xmlns="http://www.w3.org/2000/svg" xmlns:xlink="http://www.w3.org/1999/xlink" x="0px" y="0px" viewBox="0 0 258.3 275.3"
	 style="enable-background:new 0 0 258.3 275.3;" xml:space="preserve">
<g id="Interface__x2F__Trash_x5F_Full">
	<path d="M167.7,275.5H88.9c-16.9,0-26.3,0-34.7-4.3c-7.4-3.8-13.4-9.7-17.2-17.2c-4.3-8.4-4.3-17.8-4.3-34.7V64.6H15.9
		c-6.2,0-11.2-5-11.2-11.2s5-11.2,11.2-11.2h45.1c0.2-7.5,0.8-12.8,2.9-17.9C67.9,14.6,75.4,7,85.1,3c7.2-3,15-3,29.1-3h28.1
		c14.1,0,21.9,0,29.1,3c9.7,4,17.3,11.6,21.3,21.3c2.1,5,2.7,10.3,2.9,17.9h45.1c6.2,0,11.2,5,11.2,11.2s-5,11.2-11.2,11.2h-16.9
		v154.7c0,16.9,0,26.3-4.3,34.7c-3.7,7.4-9.9,13.5-17.2,17.2C194,275.5,184.7,275.5,167.7,275.5z M55.2,64.6v154.7
		c0,13,0,20.9,1.8,24.5c1.6,3.2,4.2,5.8,7.4,7.4C68,253,75.9,253,88.9,253h78.8c13,0,20.9,0,24.5-1.8c3.2-1.6,5.8-4.2,7.4-7.4
		c1.8-3.6,1.8-11.5,1.8-24.5V64.6H55.2z M83.4,42.2h89.8c-0.1-4.4-0.4-7.4-1.2-9.3c-1.7-4.2-5-7.4-9.1-9.1
		c-3.1-1.3-9.7-1.3-20.5-1.3h-28.1c-10.9,0-17.4,0-20.5,1.3c-4.2,1.7-7.4,5-9.1,9.1C83.8,34.7,83.5,37.8,83.4,42.2z M156.4,219.3
		c-6.2,0-11.2-5-11.2-11.2v-98.4c0-6.2,5-11.2,11.2-11.2s11.2,5,11.2,11.2V208C167.7,214.3,162.6,219.3,156.4,219.3z M100.2,219.3
		c-6.2,0-11.2-5-11.2-11.2v-98.4c0-6.2,5-11.2,11.2-11.2s11.2,5,11.2,11.2V208C111.4,214.3,106.4,219.3,100.2,219.3z"/>
</g>
</svg>
