<?xml version="1.0" encoding="UTF-8"?><svg id="Layer_2" xmlns="http://www.w3.org/2000/svg" viewBox="0 0 263.6 259.71"><defs><style>.cls-1{fill:#000;stroke-width:0px;}</style></defs><g id="Layer_1-2"><g id="Edit_Close_Circle"><path class="cls-1" d="M131.8,259.71C59.13,259.71,0,201.45,0,129.85S59.13,0,131.8,0s131.8,58.25,131.8,129.85-59.13,129.85-131.8,129.85ZM131.8,21.38c-60.89,0-110.43,48.66-110.43,108.48s49.54,108.48,110.43,108.48,110.43-48.66,110.43-108.48S192.69,21.38,131.8,21.38ZM172.17,180.26c-2.71,0-5.41-1.02-7.5-3.07l-32.88-32.35-32.88,32.35c-4.21,4.14-10.97,4.08-15.11-.12-4.14-4.21-4.08-10.97.12-15.11l32.63-32.1-32.63-32.1c-4.21-4.14-4.26-10.91-.12-15.11,4.14-4.21,10.91-4.26,15.11-.12l32.88,32.35,32.88-32.35c4.21-4.14,10.97-4.08,15.11.12,4.14,4.21,4.08,10.97-.12,15.11l-32.63,32.1,32.63,32.1c4.21,4.14,4.26,10.91.12,15.11-2.09,2.13-4.85,3.19-7.62,3.19Z"/></g></g></svg>