<?xml version="1.0" encoding="utf-8"?>
<!-- Generator: Adobe Illustrator 28.3.0, SVG Export Plug-In . SVG Version: 6.00 Build 0)  -->
<svg version="1.1" id="Layer_2_00000002356438994278257170000007706392844363976589_"
	 xmlns="http://www.w3.org/2000/svg" xmlns:xlink="http://www.w3.org/1999/xlink" x="0px" y="0px" viewBox="0 0 258.3 275.3"
	 style="enable-background:new 0 0 258.3 275.3;" xml:space="preserve">
<style type="text/css">
	.st0{fill:#0056FF;}
	.st1{fill:#F68B1F;}
</style>
<path class="st0" d="M129.1,270c-3.4,0-6.6-1.3-8.9-3.7c-3.7-3.8-7.5-7.6-11.2-11.4c-44.3-44.7-86.2-87-86.2-140.7
	c0-59.6,47.7-108,106.3-108c58.6,0,106.3,48.5,106.3,108c0,53.7-41.9,95.9-86.2,140.7c-3.7,3.8-7.5,7.5-11.2,11.4
	C135.7,268.6,132.5,270,129.1,270z M129.1,31.2c-44.8,0-81.3,37.2-81.3,83c0,43.4,38.3,82.1,78.9,123.1c0.8,0.8,1.6,1.6,2.4,2.4
	c0.8-0.8,1.6-1.6,2.4-2.4c40.6-41,78.9-79.7,78.9-123.1C210.5,68.4,174,31.2,129.1,31.2z"/>
<path class="st1" d="M129.2,167.7c-30.4,0-55.1-24.7-55.1-55.1s24.7-55.1,55.1-55.1s55.1,24.7,55.1,55.1S159.6,167.7,129.2,167.7z
	 M129.2,82.4c-16.6,0-30.1,13.5-30.1,30.1s13.5,30.1,30.1,30.1s30.1-13.5,30.1-30.1S145.8,82.4,129.2,82.4z"/>
</svg>
