<?xml version="1.0" encoding="UTF-8"?><svg id="Layer_2" xmlns="http://www.w3.org/2000/svg" viewBox="0 0 267.09 267.09"><defs><style>.cls-1{fill:#000;stroke-width:0px;}</style></defs><g id="Layer_1-2"><g id="Communication_Paper_Plane"><path class="cls-1" d="M175.59,267.09c-3.2,0-6.4-.62-9.43-1.88-8.5-3.53-12.96-12.45-21.85-30.23l-35.73-71.46c-.62-1.23-1.31-2.62-1.54-2.95-.16-.2-.33-.38-.51-.52-.29-.2-1.55-.83-2.77-1.44l-71.65-35.82c-17.77-8.89-26.7-13.35-30.22-21.85-3.05-7.35-2.35-15.77,1.87-22.52,4.88-7.8,14.41-10.74,33.4-16.58L220.49,5.42c15.24-4.69,22.89-7.04,30.7-4.17,6.81,2.5,12.15,7.84,14.65,14.65,2.86,7.8.51,15.45-4.17,30.68-.02.07-.04.13-.06.2l-56.36,183.17c-5.84,18.99-8.78,28.52-16.58,33.4-3.97,2.48-8.52,3.75-13.09,3.75ZM174.87,245.25c.64.17,1.32.11,1.93-.17,1.79-2.43,4.65-11.72,7.67-21.54l56.41-183.35c.02-.07.04-.13.06-.2,2.21-7.17,4.47-14.53,4.38-16.85-.29-.61-.78-1.09-1.38-1.38-2.34-.08-9.81,2.22-17.05,4.44L43.54,82.62c-9.82,3.02-19.11,5.88-21.54,7.67-.27.61-.33,1.29-.16,1.93,2.11,2.17,10.8,6.51,19.99,11.11l71.03,35.52,62.35-62.35c4.25-4.25,11.13-4.25,15.38,0,4.25,4.25,4.25,11.13,0,15.38l-62.35,62.35,35.52,71.03c4.39,8.79,8.93,17.86,11.11,19.99ZM176.61,245.32h0s0,0,0,0ZM21.76,90.48s0,0,0,0c0,0,0,0,0,0Z"/></g></g></svg>