<?xml version="1.0" encoding="UTF-8"?><svg id="Layer_2" xmlns="http://www.w3.org/2000/svg" viewBox="0 0 263.6 262.58"><defs><style>.cls-1{fill:#000;stroke-width:0px;}</style></defs><g id="Layer_1-2"><g id="Warning_Circle_Warning"><path class="cls-1" d="M131.8,262.58C59.13,262.58,0,203.69,0,131.29S59.13,0,131.8,0s131.8,58.9,131.8,131.29-59.13,131.29-131.8,131.29ZM131.8,21.38c-60.89,0-110.43,49.31-110.43,109.92s49.54,109.92,110.43,109.92,110.43-49.31,110.43-109.92S192.69,21.38,131.8,21.38ZM132.47,189.55h-1.39c-5.88-.03-10.64-4.81-10.64-10.69v-1.33c0-5.9,4.78-10.69,10.69-10.69h1.34c5.9,0,10.69,4.79,10.69,10.69v1.34c0,2.84-1.13,5.57-3.15,7.57-2,1.99-4.72,3.11-7.54,3.11ZM131.8,148.01c-5.9,0-10.69-4.79-10.69-10.69v-53.6c0-5.9,4.78-10.69,10.69-10.69s10.69,4.79,10.69,10.69v53.6c0,5.9-4.78,10.69-10.69,10.69Z"/></g></g></svg>