<?xml version="1.0" encoding="UTF-8"?><svg id="Layer_2" xmlns="http://www.w3.org/2000/svg" xmlns:xlink="http://www.w3.org/1999/xlink" viewBox="0 0 370.3 374.59"><defs><style>.cls-1{fill:#e1914d;}.cls-1,.cls-2,.cls-3,.cls-4,.cls-5,.cls-6,.cls-7,.cls-8,.cls-9,.cls-10,.cls-11{stroke-width:0px;}.cls-2{fill:none;}.cls-12{fill:#0056ff;font-family:ttb-ExtraBold, ttb;font-size:52px;font-weight:700;}.cls-3{fill:url(#linear-gradient);}.cls-4{fill:#ffb97b;}.cls-5{fill:url(#linear-gradient-4);}.cls-6{fill:url(#linear-gradient-2);}.cls-7{fill:url(#linear-gradient-3);}.cls-8{fill:url(#linear-gradient-7);}.cls-9{fill:url(#linear-gradient-5);}.cls-10{fill:url(#linear-gradient-6);}.cls-11{fill:#fff;}</style><linearGradient id="linear-gradient" x1="76.34" y1="199.28" x2="295.32" y2="199.28" gradientUnits="userSpaceOnUse"><stop offset="0" stop-color="#472100"/><stop offset=".44" stop-color="#6d3c00"/><stop offset="1" stop-color="#904f00"/></linearGradient><linearGradient id="linear-gradient-2" x1="118" y1="65.61" x2="249.65" y2="65.61" xlink:href="#linear-gradient"/><linearGradient id="linear-gradient-3" x1="76.34" y1="94.21" x2="295.32" y2="94.21" xlink:href="#linear-gradient"/><linearGradient id="linear-gradient-4" x1="176.08" y1="28.34" x2="190.28" y2="28.34" xlink:href="#linear-gradient"/><linearGradient id="linear-gradient-5" x1="112.51" y1="50.36" x2="122.03" y2="50.36" xlink:href="#linear-gradient"/><linearGradient id="linear-gradient-6" x1="245.62" y1="50.36" x2="255.14" y2="50.36" xlink:href="#linear-gradient"/><linearGradient id="linear-gradient-7" x1="151.97" y1="90.85" x2="213.91" y2="90.85" gradientTransform="translate(49.03 -63.38) rotate(22.62)" xlink:href="#linear-gradient"/></defs><g id="Layer_1-2"><path class="cls-1" d="M159.76,85.87c.36,2.57.71,5.15,1.05,7.73,6.97-1.77,14.23-2.83,21.69-3.09-1.51-3.11-2.58-6.47-3.32-9.8-1.79-8.15-2.48-16.53-2.23-24.87.37-12,2.3-25.45,7.02-37-1.25-2.34-2.64-4.61-4.23-6.78-5.52-7.55-15.45-9.88-23.46-4.77-8.05,5.13-9.87,14.05-10.49,22.95-.22,3.19-.35,6.41-.37,9.64,3.99,6.97,7.02,14.55,9.37,22.17,2.4,7.79,3.82,15.76,4.96,23.82Z"/><path class="cls-1" d="M229.12,66.41c-1.3,6.45-3.32,12.71-5.94,18.74-1.52,3.49-3.07,7.06-4.98,10.38,8.03,2.64,15.64,6.23,22.67,10.66,1.98-10,6.58-19.93,11.69-28.22,5.44-8.82,12.81-18.04,21.52-24.48.61-3.37,1.06-6.78,1.32-10.23.6-8-.65-17.15-6.58-23.1-8.63-8.64-21.93-7.52-30.43.73-2.87,2.79-5.5,5.94-7.9,9.33,1.65,12.04,1.05,24.21-1.36,36.18Z"/><path class="cls-1" d="M290.17,105.56c-4.41,5.14-9.14,9.97-14.18,14.48-3.09,2.76-6.41,5.88-10.08,8.28,4.34,5.3,8.15,11.05,11.38,17.15.46-.36.91-.72,1.36-1.07,6.17-4.76,12.65-8.79,19.82-11.87,8.55-3.67,18.57-7.19,28.4-8.08,3.65-3.14,7.16-6.52,9.87-10.37,5.06-7.21,5.59-17.77-1.2-24.15-6.38-5.99-15.92-6.55-24.15-5.05-2.28.42-4.56,1.03-6.82,1.79-.4.59-.81,1.19-1.21,1.77-4.06,5.95-8.52,11.65-13.2,17.11Z"/><path class="cls-1" d="M288.14,179.03c.66,4.7,1.01,9.49,1.01,14.37,0,3.76-.21,7.48-.6,11.14,10.46-1.46,21-2.35,31.51-1.83,7.8.39,15.72,1.59,23.2,3.89,2.67.82,5.56,1.77,8.42,2.94,6.39-4.15,11.17-10.66,11.51-18.49.34-7.8-4.51-14.84-11.25-18.38-4.07-2.14-8.58-3.5-13.27-4.32-9.53,4.27-21.23,5.26-30.78,7.03-6.58,1.22-13.16,2.44-19.74,3.66Z"/><path class="cls-1" d="M111.03,103.76c3.09,3.45,6.01,7.22,8.49,11.23,3.81-3.25,7.87-6.22,12.13-8.89-5.16-4.91-9.44-10.55-13.38-16.62-7.49-11.56-12.68-24.73-16.04-38.11-1.28-1.19-2.57-2.37-3.86-3.53-6.8-6.12-16.65-9.67-24.86-3.72-6.75,4.89-9.18,13.4-8.17,21.42.3,2.39.76,4.74,1.35,7.07,2.27.65,4.48,1.61,6.52,2.78,13.65,7.82,27.25,16.56,37.83,28.37Z"/><path class="cls-1" d="M51.83,152.35c7.95,1.69,15.73,4.11,23.24,7.21,4.03,1.66,8.14,3.42,12.13,5.42,1.85-6.44,4.31-12.62,7.32-18.48-8.1-2.76-15.79-6.71-22.59-11.84-9.54-7.2-18.18-16.3-23.79-26.98-1.25-.39-2.51-.74-3.78-1.03-10.82-2.46-22.41-.51-28.78,9.46-5.35,8.38-4.79,19.56-.12,28.07,1.17,2.13,2.54,4.15,4.06,6.09,2.03-.48,4.13-.78,6.25-.92,8.59-.56,17.68,1.21,26.04,2.99Z"/><path class="cls-1" d="M50.26,233.27c11.3-5.14,23.41-7.03,35.72-7.69.78-.04,1.56-.08,2.35-.13-1.69-5.14-2.99-10.46-3.85-15.93-9.08,1.48-17.49,2.45-27.44,1.87-11.68-.68-24.91-3.35-35.95-9.08-2.94,1.93-5.64,4.18-7.95,6.78-8.27,9.32-12.01,23.94-1.73,33.46,4.96,4.59,11.21,6.46,17.71,7.19,5.38-7.2,13.16-12.85,21.14-16.48Z"/><path class="cls-1" d="M121.03,273.07c-2.32-1.9-4.54-3.89-6.68-5.98-4.18,2.77-8.64,5.11-13.21,7.01-11.73,4.87-23.78,9.45-36.04,13.3-2.9.91-5.9,1.83-8.96,2.59-.26.37-.53.74-.78,1.11-5.23,7.65-10.49,17.08-6.24,26.42,4.06,8.92,13.65,11.78,22.74,10.09,5.4-1,10.85-3.49,15.99-6.11,4.93-14.17,12.78-27.02,22.74-38.24,3.23-3.64,6.72-7.05,10.44-10.19Z"/><path class="cls-1" d="M179.5,300.52c.25-1.44.54-2.88.84-4.33-5.42-.31-10.73-1.03-15.9-2.15-4.21,9.53-9.47,18.56-15.79,26.95-4.13,5.49-8.57,10.75-13.36,15.68-.19,1.58-.36,3.16-.49,4.75-.77,9.53.72,19.77,8,26.61,8.92,8.38,22.52,9.04,31.38.1,3.61-3.65,6.57-7.87,8.99-12.43-1.38-3.05-2.37-6.31-3.06-9.57-3.19-15.06-3.29-30.51-.62-45.62Z"/><path class="cls-1" d="M239.18,281.65c-5.05,3.05-10.39,5.67-15.96,7.82,2.57,7.71,4.71,15.55,5.95,23.61,2.29,14.92,2.63,32.07-4.32,45.95,3.51,4.4,8.02,7.94,13.59,9.37,9.43,2.42,19.42-.64,24.71-9.17,4.73-7.62,4.31-17.21,3.25-25.74-.08-.6-.17-1.21-.26-1.81-9.48-10.48-17.09-22.95-22.19-36.04-1.73-4.43-3.39-9.14-4.77-13.99Z"/><path class="cls-1" d="M292.61,253.46c-6.06-2.36-11.75-5.29-17.04-9-1.1,1.92-2.27,3.81-3.49,5.65,10.11,9.06,19.04,19.1,27.03,30.4,4,5.66,7.82,11.6,10.8,17.89,1.14.17,2.28.33,3.41.47,7.72.91,16.06.98,23.43-1.63,10.14-3.59,17.59-12.97,14.72-24.18-1.66-6.49-6.85-11.88-12.4-16.25-.23.04-.47.09-.7.13-15.04,2.61-31.43,2.09-45.77-3.48Z"/><path class="cls-4" d="M129.33,83.56c3.4,5.97,6.29,12.54,7.84,19.3,6.44-3.5,13.3-6.33,20.47-8.4-3.28-5.92-5.62-12.24-7.57-18.85-3.38-11.5-4.75-23.68-4.65-35.73-4.34-7.57-9.81-14.42-16.84-19.77-7.45-5.67-17.62-5.07-23.84,2.11-6.25,7.21-5.45,16.28-3.51,24.98.31,1.39.64,2.77.99,4.16,10.31,9.56,20.14,19.94,27.11,32.19Z"/><path class="cls-4" d="M150.08,75.61c1.94,6.61,4.29,12.93,7.57,18.85,1.05-.3,2.1-.59,3.16-.86-.35-2.58-.69-5.15-1.05-7.73-1.14-8.06-2.56-16.03-4.96-23.82-2.35-7.62-5.38-15.2-9.37-22.17-.09,12.05,1.27,24.23,4.65,35.73Z"/><path class="cls-4" d="M131.65,106.1c1.81-1.13,3.65-2.22,5.53-3.24-1.55-6.76-4.44-13.33-7.84-19.3-6.98-12.25-16.8-22.63-27.11-32.19,3.36,13.38,8.55,26.56,16.04,38.11,3.94,6.07,8.22,11.71,13.38,16.62Z"/><path class="cls-4" d="M190.88,83.98c-.33,2.18-.67,4.35-1.01,6.53,7.31.26,14.43,1.28,21.28,2.99-.37-2.97-.4-6-.18-8.93.61-8.32,2.33-16.55,4.95-24.47,3.32-10.03,8.12-20.79,14.56-29.86-.34-2.5-.77-4.99-1.31-7.48-1.71-7.84-5.51-16.26-12.89-20.26-10.74-5.83-23.16-.96-28.96,9.38-1.24,2.22-2.35,4.56-3.34,6.97,6.64,12.4,8.8,26.89,8.94,40.89.08,8.16-.83,16.19-2.04,24.25Z"/><path class="cls-4" d="M179.18,80.71c.73,3.32,1.8,6.69,3.32,9.8,1.22-.04,2.45-.07,3.69-.07s2.46.03,3.69.07c.34-2.17.68-4.35,1.01-6.53,1.21-8.05,2.12-16.09,2.04-24.25-.14-14-2.3-28.49-8.94-40.89-4.73,11.55-6.65,25-7.02,37-.26,8.34.44,16.72,2.23,24.87Z"/><path class="cls-4" d="M210.97,84.57c-.21,2.93-.19,5.96.18,8.93,2.38.6,4.74,1.28,7.05,2.04,1.91-3.32,3.46-6.89,4.98-10.38,2.62-6.03,4.64-12.29,5.94-18.74,2.41-11.96,3.01-24.14,1.36-36.18-6.44,9.07-11.24,19.83-14.56,29.86-2.62,7.92-4.35,16.15-4.95,24.47Z"/><path class="cls-4" d="M251.88,101.37c-2.17,2.58-4.39,5.22-6.79,7.63,5.45,3.82,10.52,8.15,15.13,12.92,4.42-6.55,9.94-12.5,15.48-17.46,8.05-7.19,18.24-14.21,28.89-17.78,3.58-5.27,7.23-10.87,9.23-16.87,2.8-8.35.3-18.62-8.03-22.81-7.82-3.93-17.13-1.74-24.58,2.04-2.46,1.25-4.84,2.76-7.13,4.46-2.02,11.04-5.87,21.63-11.16,31.6-3.08,5.81-6.8,11.24-11.04,16.27Z"/><path class="cls-4" d="M252.56,77.98c-5.11,8.29-9.71,18.22-11.69,28.22,1.43.9,2.83,1.83,4.21,2.8,2.41-2.41,4.62-5.05,6.79-7.63,4.23-5.03,7.95-10.46,11.04-16.27,5.29-9.97,9.15-20.56,11.16-31.6-8.71,6.44-16.08,15.66-21.52,24.48Z"/><path class="cls-4" d="M260.22,121.91c1.98,2.05,3.89,4.19,5.7,6.4,3.66-2.39,6.99-5.51,10.08-8.28,5.04-4.52,9.77-9.34,14.18-14.48,4.69-5.46,9.14-11.16,13.2-17.11.4-.59.8-1.18,1.21-1.77-10.65,3.58-20.84,10.59-28.89,17.78-5.54,4.95-11.06,10.91-15.48,17.46Z"/><path class="cls-4" d="M303.89,141.62c-5.69,3.67-11.6,6.95-17.72,9.84-1.59.75-3.25,1.55-4.95,2.32,2.73,6.52,4.8,13.38,6.15,20.5.27-.1.53-.21.8-.31,7.27-2.8,14.63-4.82,22.38-5.73,8.8-1.03,18.82-1.54,28.12.09,4.12-1.84,7.83-4.3,10.79-7.7,5.08-5.83,7.91-13.54,5.97-21.26-1.9-7.58-8.55-12.93-16.02-14.41-4.06-.8-8.28-.9-12.53-.51-1.81,1.56-3.66,3.06-5.46,4.53-5.59,4.54-11.48,8.73-17.53,12.64Z"/><path class="cls-4" d="M278.65,144.4c-.45.35-.9.7-1.36,1.07,1.43,2.7,2.74,5.47,3.93,8.31,1.7-.77,3.35-1.57,4.95-2.32,6.12-2.89,12.03-6.17,17.72-9.84,6.05-3.9,11.95-8.09,17.53-12.64,1.8-1.46,3.65-2.97,5.46-4.53-9.84.89-19.85,4.41-28.4,8.08-7.17,3.08-13.65,7.11-19.82,11.87Z"/><path class="cls-4" d="M310.54,168.25c-7.75.91-15.11,2.92-22.38,5.73-.26.1-.53.21-.8.31.3,1.57.56,3.15.78,4.75,6.58-1.22,13.16-2.44,19.74-3.66,9.56-1.77,21.25-2.76,30.78-7.03-9.3-1.63-19.32-1.12-28.12-.09Z"/><path class="cls-4" d="M88.71,130.47c3.37,2.73,6.8,5.57,10.04,8.61,3.16-5.07,6.76-9.86,10.73-14.29-9.42-4.81-18-11.32-24.88-19.3-8.13-9.43-14.87-20.69-17.93-32.88-6.53-1.88-13.54-1.2-18.56,4.4-5.56,6.21-6.14,15.03-3.46,22.67.97,2.75,2.15,5.42,3.5,7.99,7.07,2.18,13.95,5.78,20.33,9.26,7.13,3.89,13.91,8.43,20.22,13.54Z"/><path class="cls-4" d="M109.48,124.79c3.12-3.49,6.48-6.76,10.04-9.79-2.48-4.01-5.4-7.78-8.49-11.23-10.58-11.8-24.18-20.54-37.83-28.37-2.05-1.17-4.26-2.13-6.52-2.78,3.06,12.19,9.8,23.45,17.93,32.88,6.88,7.98,15.46,14.49,24.88,19.3Z"/><path class="cls-4" d="M71.94,134.65c6.8,5.13,14.49,9.08,22.59,11.84,1.3-2.54,2.71-5.01,4.22-7.42-3.24-3.04-6.67-5.89-10.04-8.61-6.32-5.11-13.09-9.65-20.22-13.54-6.37-3.47-13.26-7.07-20.33-9.26,5.6,10.68,14.25,19.78,23.79,26.98Z"/><path class="cls-4" d="M80.34,196.86c.98.23,1.97.47,2.97.71-.06-1.38-.09-2.77-.09-4.17,0-4.16.26-8.26.74-12.3-.08,0-.16-.02-.24-.03-9.22-1.17-17.62-2.63-27.07-6.06-13.33-4.83-28.01-13.08-37.1-24.74-8.59,2.01-15.99,7.16-18.64,16.35-2.74,9.56.98,20.11,7.89,26.94,3.54,3.5,7.73,6.38,12.29,8.75,6.82-4.47,14.98-7.18,22.82-8.27,12.29-1.71,24.44-.06,36.43,2.81Z"/><path class="cls-4" d="M56.65,175.02c9.46,3.42,17.86,4.89,27.07,6.06.08,0,.16.02.24.03.66-5.52,1.75-10.91,3.25-16.12-3.99-2-8.11-3.76-12.13-5.42-7.51-3.1-15.3-5.52-23.24-7.21-8.36-1.78-17.45-3.55-26.04-2.99-2.12.14-4.22.44-6.25.92,9.09,11.66,23.77,19.92,37.1,24.74Z"/><path class="cls-4" d="M84.48,209.52c-.62-3.92-1.01-7.91-1.17-11.95-1-.24-1.99-.48-2.97-.71-11.99-2.87-24.14-4.52-36.43-2.81-7.84,1.09-16,3.8-22.82,8.27,11.03,5.73,24.26,8.4,35.95,9.08,9.96.58,18.37-.39,27.44-1.87Z"/><path class="cls-4" d="M88.84,259.47c4.2-2.61,8.6-4.91,13.15-6.86-1.87-2.65-3.61-5.38-5.23-8.2-5.12,1.65-10.44,2.72-15.73,3.28-12.64,1.32-25.49,2.28-38.33,2.47-4.41.07-9.05.1-13.58-.41-1.58,2.11-2.96,4.35-4.06,6.72-5.27,11.29-4.69,26.37,7.88,32.56,7.37,3.63,15.43,2.86,23.19.95,8.68-12.35,19.89-22.55,32.71-30.51Z"/><path class="cls-4" d="M42.7,250.15c12.85-.2,25.7-1.15,38.33-2.47,5.29-.55,10.61-1.63,15.73-3.28-3.42-5.97-6.25-12.31-8.43-18.95-.79.04-1.57.08-2.35.13-12.31.66-24.42,2.55-35.72,7.69-7.98,3.63-15.76,9.28-21.14,16.48,4.52.51,9.16.47,13.58.41Z"/><path class="cls-4" d="M101.13,274.09c4.57-1.9,9.04-4.24,13.21-7.01-4.54-4.43-8.68-9.28-12.35-14.48-4.55,1.95-8.95,4.26-13.15,6.86-12.81,7.95-24.03,18.15-32.71,30.51,3.05-.75,6.06-1.68,8.96-2.59,12.26-3.85,24.3-8.43,36.04-13.3Z"/><path class="cls-4" d="M150.87,290.12c-4.77-1.75-9.38-3.84-13.8-6.25-6.77,8.08-14.46,15.37-23.01,21.68-6.54,4.83-13.38,9.26-20.59,13.01-1.82.94-3.7,1.94-5.63,2.92-.28.81-.56,1.61-.82,2.43-2.89,9-5.29,19.76,1.58,27.66,6.57,7.55,16.78,7.55,25.18,3.26,6.86-3.51,13.01-9.81,18.51-15.12,1.02-.99,2.01-2.01,2.99-3.03,1.71-14.06,5.91-27.65,12.26-40.32,1.04-2.08,2.15-4.17,3.32-6.23Z"/><path class="cls-4" d="M114.06,305.56c8.55-6.32,16.24-13.6,23.01-21.68-5.69-3.1-11.06-6.73-16.04-10.81-3.72,3.14-7.21,6.55-10.44,10.19-9.96,11.21-17.81,24.07-22.74,38.24,1.93-.98,3.81-1.98,5.63-2.92,7.21-3.75,14.05-8.18,20.59-13.01Z"/><path class="cls-4" d="M164.44,294.05c-4.65-1-9.18-2.31-13.57-3.92-1.17,2.06-2.28,4.15-3.32,6.23-6.35,12.67-10.55,26.26-12.26,40.32,4.79-4.93,9.23-10.19,13.36-15.68,6.32-8.39,11.58-17.43,15.79-26.95Z"/><path class="cls-4" d="M208.9,311.75c-.47-5.69-.72-11.77-.4-17.82-4.81,1.07-9.74,1.8-14.78,2.17.39,9.07.27,18.15-.98,27.16-1.49,10.83-4.25,22.47-9.57,32.47,2.47,5.47,6.21,10.25,11.8,13.05,10.65,5.34,23.54,2.19,29.32-8.62.2-.37.37-.75.55-1.12-1.65-2.07-3.08-4.32-4.29-6.64-6.54-12.49-10.51-26.63-11.66-40.65Z"/><path class="cls-4" d="M193.73,296.09c-2.49.18-5.01.28-7.54.28-1.96,0-3.91-.06-5.85-.17-.3,1.45-.58,2.89-.84,4.33-2.68,15.12-2.57,30.56.62,45.62.69,3.26,1.68,6.52,3.06,9.57,5.32-10,8.08-21.64,9.57-32.47,1.24-9.01,1.36-18.09.98-27.16Z"/><path class="cls-4" d="M229.17,313.08c-1.24-8.05-3.37-15.9-5.95-23.61-4.75,1.84-9.66,3.33-14.72,4.45-.32,6.06-.07,12.14.4,17.82,1.15,14.02,5.13,28.16,11.66,40.65,1.21,2.32,2.64,4.57,4.29,6.64,6.94-13.88,6.6-31.03,4.32-45.95Z"/><path class="cls-4" d="M256.39,268.64c-3.63,3.39-7.5,6.52-11.59,9.36,6.83,10.93,12.28,22.44,16.48,34.87,2.07,6.11,3.89,12.41,4.86,18.81.87.96,1.75,1.92,2.66,2.85,6.22,6.4,14.46,11.53,23.69,11.18,10.62-.4,20.12-6.71,23-17.28,2.58-9.44-.84-19.34-4.61-27.94-.31-.7-.63-1.39-.96-2.09-14.06-2.13-28.22-7.19-39.46-15.92-5.26-4.08-9.97-8.63-14.05-13.85Z"/><path class="cls-4" d="M244.8,278c-1.83,1.27-3.71,2.49-5.62,3.65,1.38,4.85,3.05,9.56,4.77,13.99,5.1,13.1,12.71,25.56,22.19,36.04-.97-6.4-2.79-12.7-4.86-18.81-4.21-12.44-9.66-23.95-16.48-34.87Z"/><path class="cls-4" d="M272.08,250.12c-4.49,6.78-9.76,12.99-15.68,18.52,4.08,5.21,8.79,9.76,14.05,13.85,11.24,8.72,25.41,13.79,39.46,15.92-2.98-6.29-6.8-12.22-10.8-17.89-7.99-11.3-16.93-21.34-27.03-30.4Z"/><path class="cls-4" d="M367.58,221.34c-3.34-5.57-9.56-9.21-15.92-11.8-.09.06-.18.12-.27.18-12.61,8-30.21,3.74-44.05,2.27-6.51-.69-13.02-1.38-19.53-2.07-1.39,8.58-3.84,16.8-7.21,24.53,10.41,1.58,20.73,3.73,30.62,7.21,7.37,2.6,14.62,6.01,21.13,10.34,2.16,1.44,4.47,3.05,6.73,4.82,7.44-1.35,15.16-3.64,21.29-8.11,8.7-6.34,13.16-17.45,7.21-27.37Z"/><path class="cls-4" d="M320.05,202.71c-10.51-.53-21.05.37-31.51,1.83-.2,1.81-.44,3.6-.73,5.38,6.51.69,13.02,1.38,19.53,2.07,13.84,1.47,31.44,5.73,44.05-2.27.09-.06.18-.12.27-.18-2.86-1.17-5.75-2.12-8.42-2.94-7.48-2.3-15.4-3.5-23.2-3.89Z"/><path class="cls-4" d="M311.22,241.66c-9.89-3.49-20.21-5.63-30.62-7.21-1.5,3.44-3.18,6.79-5.04,10.02,5.29,3.71,10.98,6.64,17.04,9,14.34,5.58,30.73,6.09,45.77,3.48.23-.04.47-.09.7-.13-2.25-1.77-4.56-3.38-6.73-4.82-6.51-4.33-13.76-7.74-21.13-10.34Z"/><path class="cls-11" d="M161.88,101.13c-.16-1.03-.32-2.05-.47-3.07-.21-1.49-.41-2.97-.61-4.46-1.06.27-2.12.56-3.16.86,1.13,2.04,2.36,4.03,3.73,5.97.16.23.34.47.51.7Z"/><path class="cls-2" d="M183.82,94.54l-47.76,15.11-1.59-4.94c-30.46,17.75-50.98,50.76-50.98,88.48,0,56.42,45.9,102.33,102.33,102.33s102.33-45.9,102.33-102.33c0-39.11-22.06-73.16-54.38-90.38l-2.2,6.83-47.76-15.11Z"/><path class="cls-3" d="M236.02,95.87l-.47,1.45-1.77,5.5c32.32,17.22,54.38,51.27,54.38,90.38,0,56.42-45.9,102.33-102.33,102.33s-102.33-45.9-102.33-102.33c0-37.72,20.52-70.74,50.98-88.48l-2.25-7c-33.35,18.76-55.88,54.49-55.88,95.48,0,60.47,49.02,109.49,109.49,109.49s109.49-49.02,109.49-109.49c0-42.38-24.08-79.13-59.3-97.33Z"/><path class="cls-6" d="M236.02,95.87l12.38-38.45h0s1.26-3.91,1.26-3.91l-38.08,10.33-27.75-30.33-27.75,30.33-38.07-10.33,14.23,44.21c15.84-8.91,34.13-14.01,53.6-14.01,18.09,0,35.15,4.39,50.19,12.16Z"/><path class="cls-7" d="M185.83,90.87c17.32,0,33.64,4.33,47.95,11.95l1.77-5.5.47-1.45c-15.03-7.77-32.1-12.16-50.19-12.16-19.48,0-37.76,5.09-53.6,14.01l2.25,7c15.1-8.8,32.65-13.85,51.35-13.85Z"/><path class="cls-5" d="M190.28,28.34c0,3.92-3.18,7.1-7.1,7.1s-7.1-3.18-7.1-7.1,3.18-7.1,7.1-7.1,7.1,3.18,7.1,7.1Z"/><path class="cls-9" d="M122.03,50.36c0,2.63-2.13,4.76-4.76,4.76s-4.76-2.13-4.76-4.76,2.13-4.76,4.76-4.76,4.76,2.13,4.76,4.76Z"/><path class="cls-10" d="M255.14,50.36c0,2.63-2.13,4.76-4.76,4.76s-4.76-2.13-4.76-4.76,2.13-4.76,4.76-4.76,4.76,2.13,4.76,4.76Z"/><circle class="cls-8" cx="182.94" cy="90.85" r="30.97" transform="translate(-20.87 77.36) rotate(-22.62)"/><path class="cls-11" d="M182.94,117.43c-14.66,0-26.58-11.92-26.58-26.58s11.92-26.58,26.58-26.58,26.58,11.92,26.58,26.58-11.92,26.58-26.58,26.58Z"/><text class="cls-12" transform="translate(173.06 108.72)"><tspan x="0" y="0">1</tspan></text></g></svg>