<?xml version="1.0" encoding="UTF-8"?><svg id="Layer_2" xmlns="http://www.w3.org/2000/svg" viewBox="0 0 179.45 106.37"><defs><style>.cls-1{fill:#1b1b1a;}.cls-1,.cls-2,.cls-3,.cls-4,.cls-5{stroke-width:0px;}.cls-2{fill:#dad1a9;}.cls-3{fill:#484847;}.cls-4{fill:#c9b28a;}.cls-5{fill:#cdc0a3;}</style></defs><g id="Layer_1-2"><path class="cls-5" d="M138.63,31.25c1.56,2.2,1.78,4.65,1.25,7.21-.09.43-.12.87-.18,1.32-1.25,1.27-2.54,2.53-3.76,3.85-.74.8-1.44,1.61-2.29,2.32-.56.47-1.11.93-1.66,1.42-1.62,1.45-3.33,2.78-5.19,3.92-1.81,1.11-3.67,2.16-5.54,3.17-2.3,1.24-4.71,2.26-7.15,3.18-1.92.73-3.85,1.41-5.83,1.95-.77.22-1.52.59-2.3.75-2.17.43-4.28,1.1-6.45,1.57-3.52.77-7.07,1.23-10.64,1.63-2.23.25-4.47.24-6.72.31-1.46.06-2.91.09-4.37.01-3.15-.16-6.3-.38-9.42-.86-2.47-.37-4.86-1.04-7.27-1.6-2.07-.49-4.16-.98-6.09-1.95-.43-.28-.82-.58-1.17-.95-.91-.92-.88-1.85-.33-2.93.36-.68.83-1.26,1.34-1.81,1.95-2.15,3.88-4.32,6.05-6.23.27-.24.4-.56.73-.77.3-.18,0-.3-.13-.41-1.2-.99-2.27-2.09-2.82-3.6-.09-.22-.13-.47-.19-.71.07-.64.27-1.24.43-1.86.65-2.56,1.89-4.87,3.2-7.15.51-.87,1.22-1.6,1.74-2.44.82-1.3,1.75-2.5,2.75-3.65,1.17-1.36,2.45-2.63,3.8-3.83,1.01-.9,1.9-1.95,2.99-2.74,2.48-1.79,5.01-3.51,7.58-5.15,2.33-1.48,4.65-2.99,7.18-4.16,1.6-.74,3.17-1.54,4.76-2.29,1.08-.52,2.21-.89,3.33-1.3,2.12-.77,4.22-1.6,6.39-2.25.86-.25,1.83-.19,2.6-.75,1.49-.19,2.96-.55,4.46-.61.83-.03,1.66-.1,2.5-.13.76-.03,1.53-.04,2.29-.13.71-.09,1.41.04,2.11-.04.79-.09,1.62.09,2.42.07,1.44-.04,2.84.06,4.07.89.13.38.27.77.4,1.15.06.44.03.89-.01,1.33-.07.03-.12.07-.07.16,0,.09,0,.18-.01.27-.21.52-.4,1.07-.65,1.57-.79,1.61-1.5,3.26-2.38,4.84-.94,1.69-1.84,3.37-2.96,4.96-.61.86-1.2,1.76-1.87,2.57-.64.75-1.03,1.88-2.44,1.7-.94-.12-1.92.06-3.06.12,4.61-4.59,8.83-9.29,11.21-15.3-.39.44-.74.9-1.11,1.36-.91,1.12-1.81,2.23-2.81,3.29-.77.83-1.6,1.6-2.39,2.38-.92.92-1.92,1.76-2.91,2.59-.59.5-1.25.93-1.86,1.42-2.1,1.69-4.15,3.46-6.41,4.96-1.04.7-2.26.73-3.43.9.86-.65,1.77-1.21,2.63-1.86,2.27-1.7,4.53-3.42,6.69-5.27,1.68-1.44,3.45-2.75,5.01-4.35,1.62-1.69,3.3-3.31,4.83-5.08.7-.81,1.37-1.64,2.08-2.49-.13-.04-.18-.09-.21-.07-2.18.61-4.29,1.38-6.33,2.35-2.02.96-3.91,2.16-5.89,3.18-1.52.8-2.94,1.75-4.41,2.59-1.93,1.1-3.79,2.29-5.68,3.43-.71.43-1.56.71-2.15,1.26-1.13,1.05-2.67,1.39-3.8,2.44-.52.49-1.37.7-1.99,1.14-1.75,1.29-3.63,2.38-5.39,3.65-2.51,1.82-5.19,3.39-7.59,5.39-1.6,1.33-3.43,2.34-4.95,3.82-.98.96-2.18,1.7-3.27,2.59-2.15,1.78-4.32,3.51-6.18,5.61-.4.46-1.06.7-1.22,1.35-.03.03-.06.07-.07.1h.15c.45-.21.86-.52,1.34-.61,1.63-.3,2.9-1.29,4.22-2.16,1.17-.77,2.33-1.55,3.6-2.19,1.05-.53,2.07-1.12,3.15-1.61,1.59-.7,3.12-1.51,4.68-2.25,2.01-.95,4.06-1.73,6.12-2.49,2.05-.75,4.09-1.58,6.21-2.15,2.01-.53,3.98-1.15,6.02-1.58,2.1-.44,4.18-1.02,6.26-1.52,2.72-.65,5.48-.87,8.25-1.11,3.09-.25,6.18-.41,9.27-.09,2.85.3,5.71.47,8.52,1.18,2.12.53,4.22,1.14,6.2,2.09.76.37,1.5.8,2.29,1.12v.04ZM72.2,43.28c1.31-.1,2.27-1.05,3.52-1.36.91-.22,1.72-.81,2.63-1.05,1.43-.36,2.67-1.11,4.12-1.45,1.22-.28,2.33-.92,3.58-1.21,1.44-.34,2.81-.95,4.28-1.23,1.4-.27,2.73-.9,4.13-1.05,2.48-.25,4.87-.96,7.31-1.38,4.32-.73,8.69-1.17,13.03-1.75,2.6-.36,5.23-.53,7.86-.58,2.6-.03,5.2.04,7.79.4,1,.13,1.99.3,3.15.58-.8-.53-1.5-.83-2.21-1.01-1.96-.52-3.89-1.15-5.93-1.42-2.67-.36-5.32-.78-8.02-.78-1.83,0-3.67.13-5.5.34-1.8.19-3.63.36-5.41.71-2.51.49-4.99,1.11-7.46,1.73-1.28.33-2.6.53-3.85.92-2.15.68-4.32,1.29-6.46,2.04-2.47.89-4.93,1.75-7.33,2.81-2.2.98-4.35,2.1-6.51,3.2-.94.47-1.96.78-2.73,1.55-.55-.04-.88.35-1.28.61.46-.16.97-.21,1.28-.61h.01ZM56.8,54.51c1.25-.59,2.5-1.21,3.76-1.79,1.81-.83,3.67-1.52,5.57-2.17,2.01-.68,4.03-1.35,6.06-1.97,1.98-.59,3.95-1.23,5.96-1.75,2.17-.55,4.27-1.36,6.44-1.88,2.21-.53,4.37-1.24,6.6-1.72,1.69-.36,3.33-.99,5.04-1.29,1.86-.34,3.64-1.01,5.53-1.29,1.86-.28,3.66-.9,5.53-1.21,2.02-.33,3.98-.92,6.02-1.23,2.18-.34,4.31-.93,6.52-1.15,2.62-.27,5.14-1.04,7.76-1.26,1.62-.13,3.22-.44,4.84-.62.92-.1,1.86-.09,2.93-.09-.4-.22-.7-.31-1.01-.34-.34-.04-.68-.06-1-.16-2.7-.81-5.5-.98-8.29-1.11-2.45-.1-4.92.03-7.36.28-3.33.34-6.66.83-9.99,1.21-2.2.25-4.37.71-6.55.99-2.02.25-4.01.83-6.02,1.23-2.53.5-5.02,1.14-7.5,1.86-2.04.58-4,1.35-6,1.98-.91.3-1.77.75-2.69,1.01-1.38.38-2.66,1.01-3.98,1.54-1.5.61-2.97,1.29-4.43,1.98-1.04.5-2.01,1.12-3.08,1.57-.79.33-1.5.81-2.27,1.21-1.23.62-2.41,1.38-3.57,2.15-1.2.81-2.45,1.57-3.57,2.56-.49.43-.74,1.07-1.35,1.36-.09.09-.3.15-.18.27.1.12.21-.06.28-.15v-.03ZM136.73,38.4c-.89.37-1.75.83-2.65,1.23-1.96.86-3.92,1.75-5.91,2.55-2.2.89-4.43,1.73-6.63,2.62-1.58.62-3.18,1.12-4.76,1.75-1.86.73-3.77,1.33-5.66,2-.71.25-1.38.62-2.11.77-1.71.36-3.28,1.11-4.96,1.57-2.66.73-5.25,1.69-7.94,2.31-1.65.38-3.24.96-4.9,1.3-1.41.3-2.79.81-4.22,1.02-2.59.38-5.13.99-7.71,1.38-4.13.62-8.25,1.29-12.42,1.49-1.6.09-3.2.13-4.82.06-1.62-.07-3.24-.19-4.87-.28.19.12.4.19.61.25,1.19.31,2.38.64,3.58.87,3.02.61,5.99,1.35,9.11,1.27,1.34-.03,2.69,0,4.03,0,2.27-.01,4.55.06,6.81-.22,3.08-.38,6.15-.74,9.21-1.08,2.62-.3,5.14-1.01,7.73-1.41,1.62-.25,3.15-.86,4.77-1.18,1.16-.24,2.24-.8,3.39-1.05,1.62-.34,3.11-1.01,4.67-1.49,1.77-.56,3.49-1.27,5.2-2.01,1.4-.61,2.73-1.32,4.09-1.97,1.26-.61,2.47-1.32,3.69-2.01,1.08-.62,2.15-1.24,3.19-1.95.83-.56,1.63-1.15,2.45-1.72.71-.49,1.43-.98,2.1-1.52,1.4-1.14,2.72-2.34,4.06-3.54.33-.3.8-.43.98-.89l.18-.16c-.1-.09-.19-.06-.27.04h0ZM137.84,36.42c-.76,0-1.4.12-2.01.09-2.84-.15-5.62.36-8.43.62-2.88.28-5.71.99-8.62,1.24-2.32.19-4.61.78-6.9,1.24-3.12.62-6.23,1.29-9.32,2.03-2.38.58-4.76,1.18-7.15,1.72-2.38.52-4.68,1.33-7.03,1.92-2.11.52-4.21,1.12-6.29,1.73-1.9.55-3.82,1.05-5.71,1.66-2.53.8-5.07,1.51-7.61,2.29-.92.28-1.8.74-2.72.9-1.5.28-2.84.98-4.24,1.51-1.37.53-2.73,1.17-4.03,1.91-.88.5-1.78.93-2.59,1.66,1.77.07,3.52.09,5.28.07,1.5,0,3-.03,4.5-.09,1.77-.06,3.54-.07,5.29-.28,3.27-.38,6.52-.87,9.76-1.38,2.18-.34,4.37-.74,6.54-1.18,1.31-.27,2.59-.72,3.91-.95,1.96-.33,3.8-1.08,5.75-1.44,1.07-.19,2.07-.78,3.12-.96,1.8-.3,3.39-1.17,5.17-1.49,1.25-.22,2.44-.8,3.66-1.2,2.44-.81,4.86-1.72,7.31-2.55.85-.28,1.65-.74,2.5-.95,1.4-.34,2.69-.95,4.01-1.45,1.81-.68,3.63-1.39,5.44-2.09,1.44-.56,2.88-1.14,4.32-1.73,1.69-.7,3.36-1.48,5.02-2.23.33-.15.71-.24,1.03-.65h0ZM119.52,5.18c-1.4-.01-2.79-.04-4.16.34-1.03.28-2.11.36-3.11.73-.92.34-1.86.64-2.79.93-.95.3-1.89.67-2.84.98-1.25.4-2.45.96-3.67,1.44-1.37.53-2.66,1.18-3.95,1.82-1.13.55-2.27,1.14-3.39,1.76-.97.55-1.99.99-2.96,1.55-1.74,1.01-3.42,2.12-5.08,3.24-2.33,1.6-4.62,3.27-6.82,5.03-1.75,1.41-3.54,2.78-5.2,4.31-1.23,1.14-2.63,2.13-3.86,3.27-1.25,1.15-2.45,2.35-3.6,3.64-.88.99-1.68,2.06-2.48,3.11-.91,1.17-1.59,2.46-2.26,3.76-.13.27-.68.52-.36.77.25.19.36-.38.56-.58,1.6-1.52,3.37-2.87,5.04-4.34,1.43-1.26,3.09-2.18,4.5-3.49.98-.92,2.27-1.51,3.28-2.43,1.96-1.76,4.22-3.08,6.33-4.62,1.71-1.26,3.52-2.46,5.32-3.63,2.93-1.92,5.89-3.77,8.84-5.65,1.95-1.23,3.94-2.38,5.91-3.55.89-.53,1.84-.98,2.7-1.54,1.19-.78,2.5-1.38,3.69-2.18.73-.49,1.62-.67,2.32-1.14,1.01-.7,2.11-1.18,3.21-1.67,1.55-.7,3.17-1.29,4.79-1.85h.03ZM103.32,8.11c-.46.12-.74.16-1.01.27-1.55.55-3.09,1.1-4.64,1.66-.94.34-1.89.65-2.79,1.07-1.37.61-2.7,1.27-4.03,1.94-1.19.59-2.41,1.15-3.55,1.83-1.5.87-2.99,1.79-4.44,2.74-3.45,2.25-6.94,4.44-9.97,7.27-1.65,1.54-3.27,3.08-4.71,4.81-1.2,1.46-2.15,3.11-3.21,4.68-.91,1.35-1.49,2.9-2.11,4.39-.06.15-.18.34-.03.41.21.1.3-.12.39-.27,1.44-2.47,3.3-4.6,5.25-6.67,1.37-1.44,2.87-2.71,4.29-4.08.86-.83,1.98-1.42,2.81-2.29,1.95-2.04,4.31-3.54,6.45-5.34,1.74-1.46,3.74-2.63,5.57-4.01.7-.53,1.49-.95,2.2-1.46.76-.55,1.74-.84,2.54-1.38,2.04-1.35,4.31-2.26,6.46-3.39,1.37-.71,2.75-1.45,4.27-1.85.07,0,.12-.12.3-.34l-.03.03ZM103.35,8.15c.37,0,.68-.15,1.04-.38-.45.03-.8.06-1.04.38Z"/><path class="cls-2" d="M128.57,56.19c1.46.04,2.9-.21,4.35-.24,3.49-.07,6.95.28,10.42.61,2.38.22,4.76.55,7.09,1.07,1.8.4,3.6.87,5.34,1.49,1.58.55,3.14,1.11,4.62,1.88,1.23.64,2.45,1.33,3.69,2,1.23.67,2.42,1.41,3.48,2.32.61.53,1.35.71,2.14.84,2.88.49,5.59,1.45,8.04,3.06.67.44,1.34.93,1.52,1.79.21.74-.43.81-.83.93-1.23.35-2.42.9-3.74,1.02-1.92.18-3.83.64-5.75.04-.27-.09-.49.03-.7.16-1.46.89-2.93,1.7-4.52,2.35-1.52.62-3.09,1.1-4.68,1.44-2.26.49-4.55.84-6.85,1.15-2.18.3-4.38.4-6.57.43-1.63.03-3.27-.1-4.9-.19-1.9-.1-3.79-.3-5.66-.67-4.22-.83-8.05-2.6-11.65-4.9-1.53-.98-2.9-2.16-4.16-3.46-.15-.15-.33-.3-.24-.52.09-.25.34-.15.53-.18,2.38-.41,4.79-.41,7.18-.5,3.34-.13,6.7-.04,10.05.06,3.46.09,6.91.16,10.37.43,2.32.19,4.64.4,6.97.62,1.01.09,2.02.15,3.03.22-.25-.28-.55-.34-.86-.37-1.53-.18-3.08-.38-4.61-.55-2.56-.28-5.13-.53-7.68-.86-1.63-.21-3.25-.33-4.89-.41-2.59-.15-5.16-.4-7.73-.49-1.9-.06-3.8-.15-5.71-.04-1.38.07-2.78.04-4.16,0-1.23-.03-2.47.16-3.7.21-.27,0-.49-.03-.62-.28-.36-.68-.74-1.33-1.13-1.97-.37-.61-.42-1.38-1-1.85,1-2.15,2.88-3.31,4.92-4.28,1.62-.77,3.37-1.2,5.11-1.6,1.19-.27,2.38-.52,3.57-.78h-.06Z"/><path class="cls-5" d="M3.34,60.15c.48-1.02.95-2.03,1.46-3.03,1.38-2.78,3.09-5.37,4.81-7.95,2.47-3.7,5.32-7.09,8.49-10.23,2.38-2.35,4.71-4.75,7.37-6.82,2.02-1.58,4.18-2.96,6.41-4.23,2.96-1.69,6.12-2.84,9.39-3.73,2.44-.67,4.95-.95,7.48-.65.16.01.34-.04.52-.06,2.17,1.35,3.34,3.39,4.12,5.74.1.33.36.62.3.99-.22.9-.52,1.78-.64,2.69-.37,2.69-1.1,5.31-1.98,7.87-.7,2.03-1.66,3.95-2.7,5.84-1.17,2.16-2.45,4.25-3.92,6.21-1.62,2.16-3.43,4.17-5.28,6.16-2.94,3.18-6.2,6.01-9.72,8.51-2.76,1.97-5.75,3.57-8.78,5.09-2.07,1.04-4.16,1.97-6.36,2.68-1.46.47-2.96.81-4.44,1.15-2.32.53-4.65,1.04-7.04,1.14-1.03-.12-1.96-.43-2.51-1.38-.31-.52-.3-1.12-.28-1.7,0-1.14.25-2.25.49-3.37.24-1.11.43-2.23.68-3.33.46-1.89.85-3.8,1.55-5.64.18-.46.28-.98.4-1.46.06-.18.31-.27.22-.5h0s-.01,0-.01,0ZM51.08,29.94c-.43.4-.62.93-.94,1.41-1.55,2.28-3.14,4.51-4.84,6.67-2.18,2.78-4.43,5.53-6.67,8.27-1.25,1.52-2.54,3.02-3.85,4.48-1.72,1.92-3.43,3.88-5.25,5.71-2.04,2.06-4.12,4.07-6.27,6.02-3.3,2.99-6.84,5.68-10.43,8.29-2.18,1.58-4.55,2.89-7.03,3.98-.46.21-1.03.25-1.47.73.37.07.65.03.91-.06,1.08-.33,2.2-.49,3.3-.78,1.89-.49,3.76-1.11,5.5-1.97,2.75-1.36,5.45-2.86,7.97-4.63,2.65-1.86,5.32-3.65,7.8-5.74,4.04-3.36,7.68-7.12,10.95-11.22,3.14-3.95,5.66-8.3,7.64-12.95,1.13-2.65,1.84-5.43,2.75-8.14.07-.06.12-.13.07-.22,0-.01-.09-.03-.09-.03-.03.06-.04.12-.06.18h.01ZM51.01,27.95c-.42.04-.59.3-.83.44-1.95,1.09-3.89,2.18-5.65,3.58-2.05,1.66-4.24,3.15-6.29,4.81-3.36,2.71-6.64,5.52-9.76,8.51-2.35,2.25-4.74,4.47-7.01,6.79-3.09,3.17-6.2,6.32-9.2,9.59-2.65,2.87-5.45,5.59-7.71,8.8-1.01,1.45-1.9,2.96-2.75,4.48-.06.1-.15.18-.07.3.12.18.24,0,.34-.04.43-.21.86-.46,1.31-.67,2.41-1.1,4.71-2.41,6.95-3.8,3.34-2.09,6.38-4.6,9.45-7.03,2.33-1.83,4.5-3.85,6.61-5.93,3.25-3.2,6.29-6.58,9.27-10.02,2.54-2.93,4.98-5.95,7.4-8.97,1.71-2.13,3.42-4.26,4.96-6.53.97-1.42,2.04-2.77,2.97-4.32ZM1.83,72.82c.7-.92,1.13-1.88,1.72-2.74,1.8-2.62,3.92-4.99,6.05-7.32,2.23-2.46,4.56-4.79,6.85-7.19,3.66-3.85,7.4-7.62,11.35-11.17,3.2-2.86,6.33-5.76,9.7-8.4,3.51-2.75,6.82-5.76,10.69-8.09-.62.07-1.28.13-1.89.31-2.53.7-4.9,1.75-7.21,2.99-3.02,1.64-5.77,3.67-8.52,5.68-2.45,1.79-4.81,3.7-7.15,5.65-2.57,2.15-4.99,4.44-7.27,6.88-2.63,2.83-5.02,5.87-7.27,9.03-1.16,1.64-2.24,3.36-3.24,5.11-1.23,2.18-2.44,4.37-3.33,6.7-.3.78-.55,1.58-.51,2.57ZM7.21,58.89c.37-.5.76-.99,1.1-1.51,1.92-2.92,4.22-5.53,6.45-8.2,2.78-3.33,6.11-6.14,9.45-8.89,3.79-3.12,7.76-6.04,11.92-8.67,2.72-1.73,5.56-3.21,8.63-4.23.49-.16,1.03-.25,1.62-.52-.31-.01-.49-.04-.67-.03-3.42.22-6.67,1.15-9.78,2.49-3.21,1.38-6.14,3.23-8.8,5.48-4.18,3.55-8.19,7.28-11.62,11.57-1.01,1.27-2.14,2.46-3.02,3.82-1.83,2.83-3.73,5.64-5.28,8.69h-.01ZM4.24,75.54s-.03-.04-.04-.04-.03.03-.04.04c.03.01.04.03.06.04,0-.01.01-.03.03-.04Z"/><path class="cls-2" d="M59.33,99.65c.43-1.41,1.62-2.09,2.72-2.87.8-.56,1.71-.96,2.54-1.48.67-.41,1.46-.75,2.23-.87.8-.12,1.23-.64,1.63-1.14.89-1.12,2.05-1.92,3.12-2.81,1.52-1.26,3.06-2.47,4.83-3.36,1.31-.65,2.6-1.33,3.98-1.88,1.78-.71,3.6-1.35,5.44-1.88,1.72-.5,3.49-.93,5.25-1.35,2.02-.49,4.06-.87,6.12-1.12,2.39-.28,4.79-.25,7.19,0,1.38.15,2.75.41,4.07.83,1.58.49,3.03,1.21,4.07,2.57-.22,1.1-.56,2.16-.88,3.24-.12.38-.3.61-.74.65-.71.07-1.41.24-2.11.28-2.66.18-5.25.77-7.86,1.15-1.47.22-2.94.58-4.38.93-1.75.43-3.54.73-5.29,1.14-1.52.35-2.99.87-4.53,1.15-1.11.21-2.23.62-3.34.98-1.49.46-3.05.65-4.44,1.44.59-.06,1.22-.07,1.77-.27,1.53-.56,3.17-.78,4.73-1.26,1.99-.61,4.09-.86,6.14-1.3,2.14-.46,4.32-.8,6.48-1.15,2.05-.34,4.09-.83,6.18-.92,1.9-.07,3.79-.44,5.69-.5.4-.01.55.04.31.41-.51.78-.92,1.66-1.58,2.28-1.37,1.29-2.7,2.62-4.26,3.7-1.75,1.23-3.58,2.26-5.54,3.09-2.11.9-4.32,1.38-6.54,1.85-2.02.43-4.06.65-6.11.9-1.77.22-3.52.22-5.29.22-2.44,0-4.87-.12-7.28-.65-1.38-.31-2.69-.73-3.98-1.24-.55-.22-1.11-.58-1.61.12-.06.07-.19.1-.31.12-2.54.24-5.1.49-7.64-.01-.61-.12-.88-.4-.76-1.01h-.01Z"/><path class="cls-3" d="M138.63,31.25c-.79-.33-1.52-.75-2.29-1.11-1.98-.93-4.07-1.54-6.2-2.09-2.79-.71-5.66-.89-8.52-1.18-3.09-.33-6.18-.18-9.27.09-2.76.22-5.53.44-8.25,1.11-2.08.5-4.16,1.08-6.26,1.52-2.04.43-4.01,1.05-6.02,1.58-2.11.56-4.15,1.38-6.21,2.15-2.07.77-4.13,1.54-6.12,2.49-1.56.74-3.11,1.54-4.68,2.25-1.08.47-2.1,1.08-3.15,1.61-1.25.62-2.42,1.42-3.6,2.19-1.32.87-2.59,1.86-4.22,2.16-.46.09-.89.4-1.34.61-.03-.03-.04-.07-.07-.1.16-.67.82-.9,1.22-1.35,1.84-2.09,4.03-3.83,6.18-5.61,1.07-.89,2.29-1.63,3.27-2.59,1.5-1.48,3.34-2.49,4.95-3.82,2.39-2,5.08-3.57,7.59-5.39,1.75-1.29,3.64-2.37,5.39-3.65.61-.44,1.46-.67,1.99-1.14,1.13-1.05,2.67-1.39,3.8-2.44.59-.55,1.44-.83,2.15-1.26,1.89-1.14,3.76-2.34,5.68-3.43,1.49-.84,2.9-1.79,4.41-2.59,1.98-1.04,3.88-2.22,5.88-3.18,2.05-.98,4.16-1.75,6.33-2.35.03,0,.09.03.21.07-.7.84-1.37,1.69-2.08,2.49-1.53,1.76-3.21,3.39-4.83,5.08-1.55,1.61-3.33,2.92-5.01,4.35-2.15,1.85-4.41,3.57-6.69,5.27-.85.64-1.75,1.2-2.63,1.86,1.17-.18,2.39-.21,3.43-.9,2.26-1.49,4.29-3.27,6.41-4.96.61-.49,1.26-.92,1.86-1.42,1-.84,1.99-1.67,2.91-2.59.8-.8,1.62-1.57,2.39-2.38,1-1.05,1.9-2.16,2.81-3.29.37-.46.73-.92,1.11-1.36-2.39,6.01-6.6,10.71-11.2,15.3,1.16-.06,2.12-.24,3.06-.12,1.41.18,1.8-.95,2.44-1.7.68-.81,1.26-1.7,1.87-2.57,1.11-1.58,2.02-3.27,2.96-4.96.88-1.58,1.59-3.23,2.38-4.84.25-.5.43-1.05.65-1.57.13.12.18.25.15.41-.21,1.58-.46,3.15-.85,4.71-.13.43-.24.87-.25,1.33-.71,1.39-1.04,2.93-1.66,4.35-.55.96-.82,2.07-1.49,2.97-.15.21-.43.41-.36.75-.16.21-.33.41-.49.64-.25.34-.13.44.25.47,2.72.28,5.45.47,8.07,1.33,1.25.41,2.59.52,3.77,1.15.58.31,1.22.59,1.9.64.25.43.71.62,1.11.83,1.8.86,3.33,2.04,4.58,3.57.18.21.58.24.52.62h.01Z"/><path class="cls-4" d="M114.97,62.83c.59.47.64,1.24,1,1.85.39.65.79,1.3,1.13,1.97.13.25.36.3.62.28,1.23-.04,2.45-.24,3.7-.21,1.38.04,2.78.06,4.16,0,1.9-.1,3.8-.01,5.71.04,2.59.09,5.16.34,7.73.49,1.63.09,3.27.21,4.89.41,2.56.33,5.13.56,7.68.86,1.53.18,3.08.37,4.61.55.31.04.61.09.86.37-1.01-.07-2.02-.13-3.03-.22-2.32-.21-4.64-.43-6.97-.62-3.45-.28-6.91-.34-10.37-.43-3.36-.09-6.7-.18-10.05-.06-2.39.09-4.8.09-7.18.5-.19.03-.45-.07-.53.18-.07.22.1.37.24.52,1.26,1.3,2.63,2.49,4.16,3.46,3.6,2.31,7.43,4.07,11.65,4.9,1.87.37,3.76.56,5.66.67,1.63.09,3.27.22,4.9.19,2.18-.04,4.38-.13,6.57-.43,2.3-.33,4.59-.68,6.85-1.15,1.59-.34,3.17-.81,4.68-1.44,1.59-.65,3.06-1.47,4.52-2.35.21-.13.43-.24.7-.16,1.92.59,3.83.13,5.75-.04,1.32-.12,2.5-.67,3.74-1.02.42-.12,1.05-.19.83-.93.4.22.25.56.18.87-.21.81-.82,1.24-1.52,1.63-1.08.58-2.27.78-3.45,1.04-1.68.37-3.39.59-5.1.81-.28.04-.52.18-.67.38-.74,1.05-1.86,1.64-2.94,2.22-1.16.62-2.33,1.26-3.55,1.78-1.31.56-2.64,1.01-3.97,1.49-1.43.53-2.9.95-4.37,1.27-1.22.27-2.45.5-3.7.68-3.4.46-6.81.58-10.22.5-2.05-.04-4.06-.33-6.06-.75-1.05-.22-2.14-.37-3.2-.58-2.38-.47-4.74-1.02-7.06-1.81-2.68-.92-4.98-2.35-6.78-4.51-1.2-1.45-2.36-3.03-2.7-4.91-.37-2.09-.55-4.22.03-6.32.1-.38.15-.78.22-1.18.27-.21.4-.52.58-.81l.06.03Z"/><path class="cls-3" d="M114.97,62.83c-.18.28-.31.59-.58.81-1.56.49-3.11,1.01-4.67,1.47-1.37.4-2.76.77-4.16,1.08-2.05.46-4.12.92-6.2,1.26-1.08.18-2.17.35-3.27.4-1.84.07-3.67.34-5.5.43-2.38.12-4.77.13-7.15-.01-2.84-.18-5.71-.33-8.52-.78-2.75-.46-5.48-1.04-8.14-1.94-2.26-.77-4.47-1.66-6.6-2.68-1.6-.77-3.14-1.7-4.58-2.75-.22-.16-.49-.33-.56-.62,1.93.98,4.01,1.47,6.09,1.95,2.41.58,4.8,1.23,7.27,1.6,3.14.47,6.27.7,9.42.86,1.46.07,2.91.03,4.37-.01,2.24-.07,4.49-.06,6.72-.31,3.57-.4,7.12-.87,10.64-1.63,2.17-.47,4.28-1.14,6.45-1.57.79-.15,1.53-.53,2.3-.75,1.98-.55,3.92-1.23,5.83-1.95,2.44-.92,4.84-1.94,7.15-3.18,1.87-1.02,3.73-2.06,5.54-3.17,1.86-1.14,3.57-2.47,5.19-3.92.53-.49,1.1-.96,1.66-1.42.83-.7,1.55-1.52,2.29-2.32,1.2-1.32,2.5-2.56,3.76-3.85-.12,1.69-.68,3.26-1.38,4.78-.51,1.08-1.01,2.18-1.68,3.17-.46.67-.97,1.33-1.44,1.98-.73.99-1.55,1.86-2.39,2.74-1.25,1.27-2.63,2.4-4.01,3.51-.09.07-.15.16-.22.24-1.19.25-2.38.5-3.57.77-1.75.4-3.49.83-5.11,1.6-2.02.96-3.91,2.12-4.9,4.26h-.04Z"/><path class="cls-3" d="M2.79,77.52c2.39-.1,4.71-.61,7.04-1.14,1.5-.34,2.99-.68,4.44-1.15,2.2-.71,4.31-1.64,6.36-2.68,3.03-1.52,6.02-3.12,8.78-5.09,3.52-2.5,6.78-5.34,9.72-8.51,1.84-1.98,3.64-4,5.28-6.16,1.47-1.97,2.75-4.05,3.92-6.21,1.03-1.89,2.01-3.82,2.7-5.85.88-2.56,1.6-5.18,1.98-7.87.12-.9.42-1.79.64-2.69.55.98.86,2.07.98,3.15.19,1.79.43,3.61.28,5.43-.18,2.41-.7,4.75-1.44,7.04-1.22,3.74-3.09,7.13-5.31,10.34-2.32,3.34-5.04,6.33-8.08,9.04-3.19,2.84-6.67,5.28-10.45,7.31-3.14,1.69-6.41,3.11-9.81,4.19-2.05.65-4.15,1.12-6.29,1.39-3.3.4-6.6.43-9.87-.27-.3-.06-.7.13-.89-.28Z"/><path class="cls-4" d="M59.33,99.65c-.12.61.15.89.74,1.01,2.56.5,5.1.25,7.64.01.1,0,.25-.04.31-.12.49-.7,1.05-.34,1.6-.12,1.29.52,2.62.93,3.98,1.24,2.41.53,4.84.64,7.28.65,1.77,0,3.52,0,5.29-.22,2.05-.27,4.09-.47,6.11-.9,2.21-.47,4.43-.95,6.54-1.85,1.96-.84,3.79-1.88,5.54-3.09,1.56-1.1,2.9-2.41,4.27-3.7.65-.62,1.07-1.49,1.58-2.28.24-.35.09-.43-.31-.41-1.92.07-3.79.44-5.69.5-2.1.07-4.13.58-6.18.92-2.15.35-4.32.7-6.48,1.15-2.05.44-4.15.7-6.14,1.3-1.56.47-3.2.7-4.73,1.26-.55.21-1.17.22-1.77.27,1.4-.77,2.96-.96,4.44-1.44,1.11-.34,2.21-.77,3.34-.98,1.55-.28,3.02-.8,4.53-1.15,1.75-.41,3.54-.71,5.29-1.14,1.46-.35,2.91-.71,4.38-.93,2.62-.4,5.22-.98,7.86-1.15.71-.04,1.41-.22,2.11-.28.43-.04.62-.27.74-.65.33-1.07.65-2.13.88-3.24,1.26,1.41,1.87,3.08,2.07,4.94.04.41.19.81.24,1.23.09,1.01-.15,1.95-.42,2.94-.4,1.49-1.11,2.77-2.02,3.97-.8,1.07-1.84,1.91-2.99,2.63-1.44.92-3,1.61-4.58,2.26-.83.34-1.71.64-2.56.96-1.35.5-2.69,1.07-4.06,1.42-1.84.47-3.67,1.05-5.6,1.14-1.59.07-3.14.47-4.73.53-2.84.12-5.65-.04-8.46-.49-1.68-.27-3.36-.59-4.98-1.05-1.4-.4-2.96-.62-4.09-1.49-1.55-1.2-3.24-.89-4.92-.93-1.34-.04-2.7.1-4-.33-.88-.28-1.9-.46-2.23-1.58-.07-.28-.13-.56.13-.78v-.03Z"/><path class="cls-3" d="M105.22,4.48c-.77.56-1.74.5-2.6.75-2.17.65-4.27,1.48-6.39,2.25-1.11.41-2.26.78-3.33,1.3-1.59.75-3.15,1.55-4.76,2.29-2.51,1.17-4.84,2.68-7.18,4.16-2.59,1.64-5.11,3.36-7.58,5.15-1.08.78-1.98,1.83-2.99,2.74-1.35,1.2-2.63,2.47-3.8,3.83-1,1.15-1.95,2.35-2.75,3.65-.52.84-1.25,1.55-1.74,2.44-1.31,2.28-2.56,4.59-3.2,7.15-.15.61-.36,1.23-.43,1.86-.39-.52-.19-1.12-.27-1.69-.12-.8-.07-1.63.03-2.44.27-2.16.82-4.23,1.8-6.2.43-.86.77-1.75,1.25-2.57.56-.96,1.22-1.88,1.84-2.8,1.07-1.57,2.3-2.99,3.61-4.37,1.19-1.24,2.47-2.37,3.74-3.51,3.4-3,7.28-5.27,11.29-7.32,1.71-.87,3.51-1.57,5.26-2.32.33-.13.71-.09,1-.36,3.3-1.21,6.69-2.1,10.09-2.92.58-.21,1.19-.3,1.81-.37,1.75-.19,3.48-.73,5.26-.73h.01Z"/><path class="cls-3" d="M3.34,60.12c.07.24-.18.33-.22.5.01-.19.07-.37.22-.5Z"/><path class="cls-3" d="M137.84,36.42c-.31.41-.7.5-1.03.65-1.68.75-3.33,1.54-5.02,2.23-1.43.59-2.87,1.17-4.32,1.73-1.81.7-3.63,1.41-5.44,2.09-1.32.5-2.62,1.11-4.01,1.45-.86.21-1.66.67-2.5.95-2.44.83-4.86,1.73-7.31,2.55-1.22.4-2.41.98-3.66,1.2-1.78.33-3.37,1.2-5.17,1.49-1.05.18-2.05.75-3.12.96-1.95.36-3.79,1.11-5.75,1.44-1.32.22-2.59.68-3.91.95-2.17.43-4.35.84-6.54,1.18-3.25.5-6.51.99-9.76,1.38-1.75.21-3.52.21-5.29.28-1.5.06-3,.07-4.5.09-1.75.01-3.52,0-5.28-.07.79-.72,1.71-1.15,2.59-1.66,1.29-.74,2.65-1.38,4.03-1.91,1.38-.55,2.73-1.23,4.24-1.51.94-.18,1.81-.62,2.72-.9,2.54-.77,5.08-1.49,7.61-2.29,1.89-.59,3.8-1.1,5.71-1.66,2.08-.61,4.18-1.2,6.29-1.73,2.36-.58,4.67-1.41,7.03-1.92,2.39-.53,4.77-1.14,7.15-1.72,3.09-.75,6.21-1.42,9.32-2.03,2.29-.46,4.58-1.05,6.9-1.24,2.9-.24,5.74-.96,8.62-1.24,2.79-.27,5.59-.77,8.43-.62.61.03,1.25-.09,2.01-.09h0Z"/><path class="cls-3" d="M136.82,38.52c-.18.46-.65.59-.98.89-1.34,1.2-2.67,2.4-4.06,3.54-.67.55-1.38,1.04-2.1,1.52-.82.56-1.63,1.15-2.45,1.72-1.04.7-2.12,1.33-3.19,1.95-1.22.7-2.44,1.41-3.69,2.01-1.35.67-2.69,1.38-4.09,1.97-1.71.74-3.43,1.45-5.2,2.01-1.56.49-3.05,1.15-4.67,1.49-1.16.24-2.23.81-3.39,1.05-1.61.33-3.15.95-4.77,1.18-2.59.4-5.11,1.11-7.73,1.41-3.08.35-6.15.7-9.21,1.08-2.26.28-4.53.21-6.81.22-1.34,0-2.69-.03-4.03,0-3.11.07-6.09-.67-9.11-1.27-1.2-.24-2.39-.58-3.58-.87-.21-.06-.42-.13-.61-.25,1.63.07,3.25.19,4.87.28,1.6.07,3.21.01,4.82-.06,4.18-.21,8.29-.87,12.42-1.49,2.59-.38,5.13-.99,7.71-1.38,1.43-.21,2.81-.73,4.22-1.02,1.66-.36,3.25-.92,4.9-1.3,2.69-.62,5.29-1.58,7.94-2.31,1.68-.46,3.25-1.21,4.96-1.57.73-.15,1.41-.52,2.11-.77,1.89-.67,3.79-1.27,5.66-2,1.58-.61,3.18-1.11,4.76-1.75,2.2-.87,4.43-1.73,6.63-2.62,1.99-.8,3.95-1.67,5.91-2.55.89-.4,1.74-.86,2.65-1.23.03.04.06.07.09.12h0Z"/><path class="cls-3" d="M56.7,54.4c.59-.3.86-.92,1.35-1.36,1.1-.99,2.35-1.75,3.57-2.56,1.14-.77,2.33-1.52,3.57-2.15.77-.4,1.5-.87,2.27-1.21,1.07-.44,2.04-1.07,3.08-1.57,1.46-.71,2.94-1.38,4.43-1.98,1.31-.53,2.6-1.15,3.98-1.54.92-.25,1.78-.72,2.69-1.01,2.01-.65,3.97-1.41,6-1.98,2.48-.71,4.98-1.35,7.5-1.86,2.01-.4,4-.98,6.02-1.23,2.2-.28,4.35-.74,6.55-.99,3.33-.38,6.66-.86,9.99-1.21,2.44-.25,4.9-.38,7.36-.28,2.79.12,5.59.3,8.29,1.11.33.1.67.12,1,.16.31.04.59.13,1.01.34-1.07,0-2.01,0-2.93.09-1.62.18-3.22.49-4.84.62-2.63.22-5.16.99-7.76,1.26-2.2.22-4.34.81-6.52,1.15-2.02.33-4,.9-6.02,1.23-1.87.31-3.67.93-5.53,1.21-1.87.28-3.66.96-5.53,1.29-1.72.31-3.34.93-5.04,1.29-2.23.47-4.38,1.18-6.6,1.72-2.17.52-4.27,1.33-6.44,1.88-2.01.52-3.98,1.15-5.96,1.75-2.04.61-4.04,1.29-6.06,1.97-1.9.64-3.76,1.35-5.57,2.18-1.26.58-2.51,1.2-3.76,1.79-.03-.04-.07-.09-.1-.12v.03Z"/><path class="cls-3" d="M119.52,5.18c-1.62.58-3.24,1.15-4.8,1.86-1.1.49-2.2.99-3.21,1.67-.7.47-1.59.67-2.32,1.14-1.19.8-2.48,1.39-3.69,2.18-.86.56-1.81,1.01-2.7,1.54-1.98,1.17-3.98,2.32-5.91,3.55-2.96,1.88-5.92,3.73-8.84,5.65-1.8,1.18-3.6,2.37-5.32,3.63-2.1,1.54-4.37,2.87-6.33,4.62-1.01.9-2.3,1.49-3.28,2.43-1.4,1.32-3.08,2.23-4.5,3.49-1.66,1.46-3.42,2.81-5.04,4.34-.21.19-.33.77-.56.58-.33-.27.22-.5.36-.77.65-1.3,1.35-2.59,2.26-3.76.8-1.05,1.6-2.12,2.48-3.11,1.13-1.29,2.33-2.49,3.6-3.64,1.23-1.14,2.63-2.13,3.86-3.27,1.65-1.54,3.45-2.9,5.2-4.31,2.2-1.78,4.49-3.45,6.82-5.03,1.66-1.12,3.34-2.23,5.08-3.24.97-.56,1.99-1.01,2.96-1.55,1.11-.62,2.24-1.2,3.39-1.76,1.29-.64,2.6-1.3,3.95-1.82,1.22-.47,2.42-1.04,3.67-1.44.95-.31,1.89-.67,2.84-.98.94-.3,1.87-.59,2.79-.93.98-.37,2.08-.43,3.11-.73,1.38-.38,2.76-.37,4.18-.34h-.03Z"/><path class="cls-3" d="M72.22,43.3c.77-.77,1.8-1.08,2.73-1.55,2.15-1.1,4.29-2.22,6.51-3.2,2.39-1.07,4.86-1.92,7.33-2.81,2.12-.77,4.31-1.38,6.46-2.04,1.25-.4,2.57-.59,3.85-.92,2.47-.64,4.96-1.24,7.46-1.73,1.78-.36,3.6-.5,5.41-.71,1.83-.21,3.66-.34,5.5-.34,2.69,0,5.35.43,8.02.78,2.04.27,3.97.9,5.93,1.42.71.19,1.41.49,2.21,1.01-1.17-.3-2.15-.44-3.15-.58-2.59-.36-5.19-.43-7.79-.4-2.63.03-5.26.22-7.86.58-4.34.58-8.71,1.02-13.03,1.75-2.45.41-4.83,1.12-7.31,1.38-1.4.15-2.73.78-4.13,1.05-1.47.28-2.84.89-4.28,1.23-1.25.3-2.36.92-3.58,1.21-1.43.34-2.69,1.1-4.12,1.45-.91.22-1.72.81-2.63,1.05-1.23.31-2.21,1.24-3.52,1.36h-.01Z"/><path class="cls-3" d="M103.32,8.11c-.18.22-.22.33-.3.34-1.52.41-2.9,1.14-4.26,1.85-2.15,1.12-4.41,2.03-6.46,3.39-.8.53-1.77.83-2.54,1.38-.73.52-1.5.93-2.2,1.46-1.83,1.38-3.82,2.55-5.57,4.01-2.13,1.79-4.5,3.3-6.45,5.34-.83.86-1.95,1.45-2.81,2.29-1.43,1.38-2.93,2.65-4.29,4.08-1.96,2.06-3.82,4.2-5.25,6.67-.09.15-.18.38-.39.27-.15-.09-.03-.27.03-.41.62-1.51,1.2-3.05,2.11-4.39,1.06-1.57,2.01-3.21,3.21-4.68,1.43-1.75,3.06-3.27,4.71-4.81,3.03-2.84,6.52-5.02,9.97-7.27,1.46-.95,2.94-1.86,4.44-2.74,1.14-.68,2.36-1.24,3.55-1.83,1.34-.67,2.68-1.33,4.03-1.94.91-.4,1.86-.73,2.79-1.07,1.55-.56,3.09-1.11,4.64-1.66.27-.1.55-.15,1.01-.27l.03-.03Z"/><path class="cls-3" d="M72.2,43.28c-.33.41-.82.46-1.28.61.4-.25.74-.65,1.28-.61Z"/><path class="cls-3" d="M103.35,8.15c.25-.33.59-.36,1.04-.38-.37.24-.68.38-1.04.38Z"/><path class="cls-3" d="M56.8,54.51c-.07.09-.18.28-.28.16-.12-.13.09-.19.18-.27.04.04.07.07.1.12h0Z"/><path class="cls-3" d="M136.73,38.4c.07-.1.16-.12.27-.06l-.18.16s-.06-.07-.09-.1Z"/><path class="cls-3" d="M123.47,7.01s-.04.1-.07.16c-.04-.09,0-.13.07-.16Z"/><path class="cls-3" d="M62.51,44.59h-.15s.06-.08.08-.11c.03.03.06.06.08.11Z"/><path class="cls-5" d="M26.58,26.83c.06-.12.13-.15.24-.07-.06.06-.1.1-.16.16-.03-.03-.06-.06-.09-.09h.01Z"/><path class="cls-3" d="M51.01,27.95c-.92,1.55-2.01,2.9-2.97,4.32-1.53,2.26-3.25,4.39-4.96,6.53-2.42,3.03-4.86,6.04-7.4,8.97-2.99,3.43-6.02,6.82-9.27,10.02-2.11,2.07-4.29,4.1-6.61,5.93-3.09,2.43-6.11,4.94-9.45,7.03-2.24,1.41-4.53,2.71-6.95,3.8-.45.21-.86.44-1.31.67-.1.04-.21.22-.34.04-.07-.1.01-.19.07-.3.85-1.54,1.74-3.05,2.75-4.48,2.24-3.23,5.07-5.93,7.71-8.8,2.99-3.27,6.09-6.42,9.2-9.59,2.27-2.32,4.67-4.54,7.01-6.79,3.12-2.99,6.41-5.8,9.76-8.51,2.05-1.66,4.24-3.15,6.29-4.81,1.75-1.41,3.7-2.49,5.65-3.58.24-.15.42-.4.83-.44Z"/><path class="cls-3" d="M51.16,30.01c-.91,2.72-1.62,5.49-2.75,8.14-1.98,4.66-4.5,9-7.64,12.95-3.25,4.1-6.9,7.86-10.95,11.22-2.5,2.07-5.17,3.88-7.8,5.74-2.53,1.78-5.22,3.27-7.97,4.63-1.74.86-3.6,1.48-5.5,1.97-1.1.28-2.21.46-3.3.78-.25.07-.53.13-.91.06.45-.47,1.01-.52,1.47-.73,2.47-1.09,4.84-2.4,7.03-3.98,3.6-2.6,7.12-5.3,10.43-8.29,2.15-1.95,4.24-3.97,6.27-6.02,1.83-1.83,3.52-3.79,5.25-5.71,1.31-1.47,2.6-2.96,3.85-4.48,2.24-2.74,4.49-5.49,6.67-8.27,1.69-2.16,3.3-4.39,4.84-6.67.31-.46.51-1.01.94-1.41.01.03.04.04.07.07h-.01Z"/><path class="cls-3" d="M1.83,72.82c-.04-.98.21-1.79.51-2.56.89-2.34,2.1-4.53,3.33-6.7,1-1.75,2.07-3.46,3.24-5.11,2.24-3.15,4.64-6.19,7.27-9.03,2.27-2.44,4.7-4.74,7.27-6.88,2.33-1.95,4.68-3.86,7.15-5.65,2.75-2.01,5.5-4.05,8.52-5.68,2.3-1.24,4.68-2.31,7.21-2.99.61-.16,1.26-.24,1.89-.31-3.86,2.34-7.18,5.33-10.69,8.09-3.37,2.65-6.52,5.55-9.7,8.41-3.95,3.55-7.7,7.32-11.35,11.17-2.29,2.4-4.62,4.74-6.85,7.19-2.13,2.35-4.25,4.71-6.05,7.32-.59.86-1.03,1.81-1.72,2.74h0Z"/><path class="cls-3" d="M7.21,58.89c1.55-3.05,3.45-5.86,5.28-8.7.88-1.36,2.01-2.56,3.02-3.82,3.43-4.29,7.45-8.02,11.62-11.57,2.65-2.25,5.59-4.11,8.8-5.48,3.12-1.33,6.38-2.26,9.78-2.49.18,0,.36.01.67.03-.59.27-1.13.36-1.62.52-3.08,1.01-5.91,2.5-8.63,4.23-4.16,2.63-8.13,5.55-11.92,8.67-3.34,2.75-6.66,5.56-9.45,8.89-2.23,2.66-4.55,5.27-6.45,8.2-.34.52-.74,1.01-1.1,1.51h.01Z"/><path class="cls-3" d="M51.08,29.94s.03-.12.06-.18c0,0,.09,0,.09.03.04.09,0,.16-.07.22-.03-.01-.06-.04-.07-.07Z"/><path class="cls-3" d="M4.24,75.54s-.02.03-.03.05c-.03-.01-.05-.03-.06-.05.02-.02.03-.05.05-.05s.03.03.05.05Z"/><path class="cls-1" d="M111.51.12s-.13.03-.16,0c-.06-.06,0-.09.06-.12.03.04.07.07.1.12Z"/></g></svg>