<?xml version="1.0" encoding="UTF-8"?><svg id="Layer_2" xmlns="http://www.w3.org/2000/svg" viewBox="0 0 125.89 125.89"><defs><style>.cls-1{fill:#a35219;}.cls-1,.cls-2{stroke-width:0px;}.cls-2{fill:#ff9800;}</style></defs><g id="Layer_1-2"><path class="cls-2" d="M124.94,37.4c-3.36-8.17-15.86-12.98-32.03-4.33,8.74-16.14,3.97-28.65-4.19-32.05-8.15-3.4-20.39,2.03-25.7,19.59C57.79,3.05,45.57-2.43,37.4.94c-8.17,3.36-12.98,15.86-4.33,32.03-16.12-8.74-28.63-3.98-32.03,4.17-3.4,8.15,2.03,20.39,19.59,25.7C3.05,68.07-2.43,80.3.94,88.47c3.36,8.17,15.86,12.98,32.03,4.33-8.74,16.14-3.97,28.65,4.19,32.05,8.15,3.4,20.39-2.03,25.7-19.59,5.24,17.58,17.46,23.05,25.61,19.71,8.17-3.36,12.98-15.86,4.33-32.03,16.14,8.74,28.65,3.97,32.05-4.19,3.4-8.15-2.03-20.39-19.59-25.7,17.58-5.24,23.05-17.46,19.71-25.61l-.02-.03Z"/><path class="cls-1" d="M73.61,88.85c14.32-5.89,21.14-22.28,15.25-36.59-5.89-14.32-22.28-21.14-36.59-15.25-14.32,5.89-21.14,22.28-15.25,36.59,5.89,14.32,22.28,21.14,36.59,15.25Z"/></g></svg>