<?xml version="1.0" encoding="UTF-8"?><svg id="Layer_2" xmlns="http://www.w3.org/2000/svg" viewBox="0 0 131.17 131.81"><defs><style>.cls-1{fill:#8c522a;}.cls-1,.cls-2,.cls-3{stroke-width:0px;}.cls-2{fill:#80b755;}.cls-3{fill:#74a549;}</style></defs><g id="Layer_1-2"><path class="cls-2" d="M68.53,101.68s-1.54.54-3.36.88c-3.37.64-7.72.64-5.11-4.66,4.03-8.15,0-63.57,0-63.57,0,0,0-8.42,2.94-7.39.27.09.57.27.9.55,3.84,3.21,4.63,74.19,4.63,74.19Z"/><path class="cls-2" d="M63.87,31.01S56.16,6.99,37.51,3.26C18.85-.47,8.68,3.5,2.59,12.38c-6.1,8.88-.83,22.09,9.63,21.77,10.46-.32,17.59-3,23.23-4.5s23.84-3.5,27.54,9.83l.89-8.46Z"/><path class="cls-3" d="M62.67,31.5S46.56,6.69,15.65,16.27c0,0,24.6-8.05,47.02,15.24Z"/><path class="cls-2" d="M124.69,20.67c-.71,6.32-5.32,11.83-12.12,11.62-6.32-.2-11.42-1.25-15.71-2.38-2.81-.75-5.28-1.52-7.52-2.12-.15-.04-.3-.08-.46-.12-6.11-1.48-23.47-3.04-27.08,9.95l-.72-6.83-.17-1.63s7.71-24.02,26.37-27.75c17.09-3.42,27.06-.37,33.3,7,.57.67,1.11,1.38,1.62,2.13.32.46.61.94.86,1.42,1.47,2.76,1.96,5.83,1.63,8.72Z"/><path class="cls-3" d="M62.12,29.64s16.11-24.82,47.02-15.24c0,0-24.6-8.05-47.02,15.24Z"/><path class="cls-1" d="M4.73,122.52s-10.22,9.55,7.33,8.67c.7-.04,1.64-.05,2.77-.06,7.22-.04,22.5.45,37.12.62,7.77.09,15.35.1,21.44-.11,7.27-.25,14.42-.22,20.94-.15,10.82.11,19.93.32,25.05-.51,4.15-.67,7.39-1.8,9.42-3.03,1.99-1.21,2.8-2.53,2.14-3.63-.23-.38-.57-.84-1.02-1.37-1.23-1.44-3.23-3.33-5.62-5.07-1.9-1.38-4.04-2.67-6.25-3.57-.46-.19-.91-.39-1.34-.61-2.6-1.32-4.59-3.15-6.67-5.22-1.99-1.98-4.08-4.19-6.88-6.39-5.57-4.38-6.21-1.92-15.71-6.83-.81-.42-1.76-.72-2.73-1.16-9.33-4.22-6.67-5.56-10.67-6.67-2.7-.75-5.81,1.04-8.03,2.07-1.06.49-1.91.81-2.42.6-6.87-2.94-13.92-.67-21.95,4.05-1.04.61-2.09,1.26-3.16,1.95-5.1,3.26-7.77,7.44-13.11,10-2.45,1.17-4.86,2.67-7.12,4.29-1.9,1.36-3.7,2.79-5.32,4.19-1.63,1.39-3.08,2.74-4.3,3.92-1.22,1.18-2.2,2.19-2.87,2.91-.68.72-1.05,1.14-1.05,1.14Z"/></g></svg>