<?xml version="1.0" encoding="UTF-8"?><svg id="Layer_2" xmlns="http://www.w3.org/2000/svg" viewBox="0 0 387.64 401.16"><defs><style>.cls-1{fill:#f68b1f;stroke-width:0px;}</style></defs><g id="Layer_1-2"><path class="cls-1" d="M295.32,61.17c-2.23,0-4.48-.6-6.52-1.84-5.88-3.61-7.73-11.3-4.12-17.19l14.51-23.67c3.61-5.89,11.31-7.73,17.19-4.12,5.88,3.61,7.73,11.3,4.12,17.19l-14.51,23.67c-2.36,3.85-6.46,5.97-10.67,5.97Z"/><path class="cls-1" d="M375.14,204.56c-1.27,0-2.57-.2-3.84-.61l-24.2-7.81c-6.57-2.12-10.17-9.17-8.05-15.74,2.12-6.57,9.17-10.17,15.74-8.05l24.2,7.81c6.57,2.12,10.17,9.17,8.05,15.74-1.71,5.29-6.62,8.66-11.89,8.66Z"/><path class="cls-1" d="M318.13,129.72c-4.95,0-9.63-2.96-11.59-7.82-2.58-6.4.51-13.69,6.91-16.27l32.81-13.25c6.4-2.58,13.69.51,16.27,6.91,2.58,6.4-.51,13.69-6.91,16.27l-32.81,13.25c-1.53.62-3.12.91-4.68.91Z"/><path class="cls-1" d="M42.58,222.51l15.05,36.56-8.23,3.39c-1.88.77-3.82,1.14-5.73,1.14-5.93,0-11.55-3.52-13.94-9.34l-3.58-8.69c-3.17-7.7.5-16.5,8.2-19.67l8.22-3.39M42.58,197.51c-3.23,0-6.47.63-9.52,1.88l-8.23,3.39c-9.9,4.07-17.61,11.76-21.73,21.64-4.12,9.88-4.14,20.77-.07,30.67l3.58,8.69c6.2,15.08,20.75,24.82,37.06,24.82,5.25,0,10.38-1.02,15.25-3.02l8.23-3.39c12.77-5.26,18.86-19.87,13.6-32.63l-15.05-36.56c-2.52-6.13-7.38-11.01-13.5-13.56-3.08-1.28-6.35-1.92-9.62-1.92h0Z"/><path class="cls-1" d="M142.97,285.49l31.17,75.72c1.27,3.08,1.06,6.51-.56,9.41-1.62,2.91-4.44,4.87-7.72,5.4-.59.09-1.17.14-1.75.14-4.33,0-8.29-2.59-9.99-6.71l-31.11-75.58,19.97-8.38M142.97,260.49c-3.29,0-6.58.65-9.67,1.95l-19.97,8.38c-12.67,5.32-18.67,19.86-13.44,32.57l31.11,75.58c5.55,13.48,18.55,22.19,33.11,22.19,1.91,0,3.84-.15,5.74-.46,10.87-1.76,20.19-8.27,25.56-17.88,5.37-9.59,6.05-20.94,1.86-31.12l-31.17-75.72c-2.53-6.16-7.42-11.05-13.58-13.59-3.05-1.26-6.3-1.89-9.54-1.89h0Z"/><path class="cls-1" d="M210.68,274.04c1.78,16.73-7.54,33.36-23.87,40.08l-2.5,1.03-13.85-33.64,40.21-7.47M210.68,249.04c-1.52,0-3.05.14-4.57.42l-40.21,7.47c-7.4,1.38-13.79,6.02-17.39,12.63-3.6,6.61-4.02,14.5-1.16,21.46l13.85,33.64c2.52,6.13,7.38,11.01,13.51,13.56,3.08,1.28,6.34,1.92,9.61,1.92s6.48-.63,9.53-1.89l2.5-1.03c13.01-5.35,23.66-14.62,30.77-26.77,6.86-11.73,9.86-25.61,8.43-39.07-.74-6.93-4.33-13.24-9.92-17.4-4.35-3.24-9.6-4.96-14.94-4.96h0Z"/><path class="cls-1" d="M102.66,291.29c-15.87,0-30.69-9.59-36.89-24.65l-25.29-61.44c-7.13-17.32-1.06-37.54,14.43-48.07L195.05,61.81c3.11-2.12,7.01-2.72,10.62-1.64,3.61,1.08,6.53,3.73,7.97,7.21l72.13,175.23c1.43,3.48,1.22,7.42-.58,10.73-1.8,3.31-4.99,5.63-8.7,6.32l-166.63,30.96c-2.4.45-4.81.66-7.2.66ZM196.38,91.14l-127.41,86.66c-5.76,3.92-8.02,11.44-5.37,17.88l25.29,61.45c2.65,6.44,9.54,10.2,16.4,8.92l151.5-28.15-60.41-146.76Z"/><path class="cls-1" d="M218.04,25c5.33,0,10.39,3.16,12.54,8.39l84.76,205.93c2.84,6.9-.46,14.83-7.37,17.67-1.68.69-3.42,1.02-5.14,1.02-5.33,0-10.39-3.16-12.54-8.39L205.54,43.69c-2.84-6.9.46-14.83,7.37-17.67,1.68-.69,3.42-1.02,5.13-1.02M218.04,0h-.01c-5.04,0-9.97.98-14.64,2.9-19.65,8.09-29.06,30.66-20.97,50.31l84.76,205.93c5.97,14.5,19.97,23.87,35.66,23.87,5.04,0,9.97-.98,14.65-2.9,19.66-8.09,29.06-30.66,20.97-50.31L253.7,23.87c-5.97-14.5-19.97-23.87-35.66-23.87h0Z"/></g></svg>