<?xml version="1.0" encoding="UTF-8"?><svg id="Layer_2" xmlns="http://www.w3.org/2000/svg" viewBox="0 0 376.66 236.28"><defs><style>.cls-1{fill:#f68b1f;stroke-width:0px;}</style></defs><g id="Layer_1-2"><path class="cls-1" d="M36.11,236.28c-8.56,0-16.35-2.39-23.01-8.08-.04-.03-.07-.06-.1-.09-.67-.58-1.25-1.13-1.8-1.68-23.75-23.74-5.04-75.29,13.05-125.16,3.59-9.9,6.98-19.25,9.9-28.02,8.97-26.92,21.8-45.73,39.23-57.5C89.19,5.06,108.57.08,134.36.06c4.11,0,29.08-.02,54.04-.03,24.94-.01,49.87-.02,53.99-.03h.09c32.3,0,55.43,8.09,72.81,25.46,11.57,11.57,20.5,27.15,27.29,47.63,2.91,8.76,6.29,18.1,9.88,27.99,18.54,51.18,37.71,104.1,11.08,126.9-.06.05-.12.1-.17.15-25.8,21.77-68.45-5.46-106.09-29.48-6.61-4.22-12.86-8.21-18.56-11.62-12.66-7.55-24.14-8.39-45.52-8.39h-2.4c-2.54,0-6.14,0-7.27,0-21.37.02-32.86.86-45.56,8.46-5.73,3.43-12.01,7.45-18.67,11.7-27.95,17.86-58.67,37.49-83.18,37.49ZM29.38,209.23c4.21,3.52,13.89,2.33,27.28-3.38,15.43-6.57,33.35-18.02,49.16-28.13,6.81-4.35,13.25-8.46,19.29-12.08,18.58-11.12,35.95-11.99,58.46-12.01,1.18,0,4.7,0,7.2,0h2.32s.07,0,.11,0c22.46,0,39.8.87,58.34,11.93,6.03,3.61,12.42,7.69,19.19,12.01,15.81,10.09,33.74,21.54,49.18,28.1,13.46,5.72,23.19,6.9,27.39,3.3.02-.02.04-.03.05-.05,4.93-4.32,5.69-16.39,2.14-33.99-3.95-19.56-12.38-42.83-20.53-65.34-3.64-10.05-7.08-19.55-10.1-28.63-5.54-16.7-12.48-29.07-21.23-37.82-12.55-12.54-29.55-18.14-55.12-18.14h-.08c-4.11,0-29.05.02-54,.03-24.96.01-49.92.02-54.03.03-35.71.03-60.97,9.42-76.52,56.09-3.02,9.08-6.47,18.59-10.12,28.65-8,22.05-16.28,44.86-20.33,64.19-5.03,23.95-1.24,32.06,1.47,34.77.17.17.34.32.5.47Z"/><path class="cls-1" d="M132.36,112.3h12.76c6.29,0,11.38-5.1,11.38-11.38s-5.09-11.37-11.37-11.37h-12.76v-12.76c0-6.29-5.09-11.37-11.37-11.37s-11.38,5.1-11.38,11.38v12.76s-12.76,0-12.76,0c-6.29,0-11.38,5.1-11.37,11.37s5.1,11.38,11.37,11.37h12.76v13.12c0,6.29,5.09,11.37,11.37,11.37s11.38-5.1,11.38-11.38v-13.12Z"/><circle class="cls-1" cx="238.44" cy="99.96" r="12.31"/><circle class="cls-1" cx="263.08" cy="75.33" r="12.31"/><circle class="cls-1" cx="288.22" cy="100.47" r="12.31"/><circle class="cls-1" cx="262.82" cy="123.25" r="12.31"/></g></svg>