<?xml version="1.0" encoding="UTF-8"?><svg id="Layer_2" xmlns="http://www.w3.org/2000/svg" viewBox="0 0 371.11 357.77"><defs><style>.cls-1{fill:#f68b1f;stroke-width:0px;}</style></defs><g id="Layer_1-2"><path class="cls-1" d="M243.24,357.77h-115.37c-6.9,0-12.5-5.6-12.5-12.5v-161.52c0-13.25,10.78-24.04,24.04-24.04h92.29c13.25,0,24.04,10.78,24.04,24.04v161.52c0,6.9-5.6,12.5-12.5,12.5ZM140.37,332.77h90.37v-148.05h-90.37v148.05Z"/><path class="cls-1" d="M347.07,357.77h-103.83c-6.9,0-12.5-5.6-12.5-12.5v-55.76c0-13.25,10.78-24.04,24.04-24.04h92.3c13.25,0,24.04,10.78,24.04,24.04v44.22c0,13.25-10.78,24.04-24.04,24.04ZM255.74,332.77h90.37v-42.3h-90.37v42.3Z"/><path class="cls-1" d="M127.87,357.77H24.04c-13.25,0-24.04-10.78-24.04-24.04v-82.68c0-13.25,10.78-24.04,24.04-24.04h92.29c13.25,0,24.04,10.78,24.04,24.04v94.22c0,6.9-5.6,12.5-12.5,12.5ZM25,332.77h90.37v-80.75H25v80.75Z"/><path class="cls-1" d="M189.49,272.62c-6.9,0-12.5-5.6-12.5-12.5v-33.13h-4.81c-6.9,0-12.5-5.6-12.5-12.5s5.6-12.5,12.5-12.5h17.31c6.9,0,12.5,5.6,12.5,12.5v45.63c0,6.9-5.6,12.5-12.5,12.5Z"/><path class="cls-1" d="M108.1,49.02l14.11,88.17c.82,5.13,5.25,8.91,10.45,8.91h105.8c5.2,0,9.63-3.78,10.45-8.91l14.11-88.17c1.46-9.14-8.74-15.63-16.4-10.42l-28.03,19.06-25.55-25.55c-4.13-4.13-10.83-4.13-14.96,0l-25.55,25.55-28.03-19.06c-7.65-5.21-17.86,1.28-16.4,10.42ZM147.86,80.08c4.2,2.86,9.84,2.32,13.43-1.27l24.26-24.26,24.26,24.26c3.59,3.59,9.23,4.12,13.43,1.27l15-10.2-8.81,55.06h-87.76l-8.81-55.06,15,10.2Z"/><path class="cls-1" d="M238.46,146.64h-105.8c-5.5,0-10.12-3.94-10.99-9.37l-14.11-88.17c-.71-4.45,1.21-8.72,5.03-11.14,3.81-2.42,8.5-2.35,12.22.18l27.65,18.8,25.23-25.23c2.1-2.1,4.9-3.26,7.87-3.26s5.77,1.16,7.87,3.26l25.23,25.23,27.65-18.8c3.72-2.54,8.41-2.6,12.22-.18,3.81,2.42,5.74,6.69,5.03,11.14l-14.11,88.17c-.87,5.43-5.49,9.37-10.99,9.37ZM118.57,37.29c-1.86,0-3.72.53-5.4,1.6-3.44,2.18-5.17,6.03-4.53,10.04l14.11,88.17c.78,4.89,4.95,8.45,9.91,8.45h105.8c4.96,0,9.12-3.55,9.91-8.45l14.11-88.17c.64-4.01-1.1-7.86-4.53-10.04-3.44-2.18-7.66-2.12-11.01.16l-28.4,19.31-.32-.32-25.55-25.55c-3.91-3.91-10.28-3.91-14.19,0l-25.87,25.87-28.4-19.31c-1.72-1.17-3.67-1.76-5.62-1.76ZM229.9,125.48h-88.69l-.07-.46-9.01-56.31,16.05,10.91c3.97,2.7,9.33,2.2,12.74-1.2l24.65-24.65,24.65,24.65c3.4,3.4,8.76,3.91,12.73,1.2l16.05-10.91-9.08,56.77ZM142.14,124.39h86.82l8.54-53.34-13.95,9.48c-4.41,3-10.35,2.44-14.13-1.33l-23.87-23.87-23.87,23.87c-3.77,3.77-9.71,4.33-14.13,1.33l-13.95-9.49,8.54,53.34Z"/><path class="cls-1" d="M185.55,19.3c5.33,0,9.65-4.32,9.65-9.65s-4.32-9.65-9.65-9.65-9.65,4.32-9.65,9.65,4.32,9.65,9.65,9.65Z"/><path class="cls-1" d="M253.12,28.96c5.33,0,9.65-4.32,9.65-9.65s-4.32-9.65-9.65-9.65-9.65,4.32-9.65,9.65,4.32,9.65,9.65,9.65Z"/><path class="cls-1" d="M117.99,28.96c5.33,0,9.65-4.32,9.65-9.65s-4.32-9.65-9.65-9.65-9.65,4.32-9.65,9.65,4.32,9.65,9.65,9.65Z"/></g></svg>