<?xml version="1.0" encoding="UTF-8"?><svg id="Layer_2" xmlns="http://www.w3.org/2000/svg" viewBox="0 0 339.74 322.34"><defs><style>.cls-1{fill:#f68b1f;stroke-width:0px;}</style></defs><g id="Layer_1-2"><path class="cls-1" d="M283.52,182.45H56.21c-8.93,0-13.42,0-18-.91-18.9-3.76-33.54-18.4-37.3-37.3-.91-4.58-.91-9.07-.91-18s0-13.42.91-18c3.76-18.9,18.4-33.54,37.3-37.3,4.58-.91,9.07-.91,18-.91h227.31c8.94,0,13.42,0,18.01.91,18.89,3.76,33.54,18.4,37.29,37.3.91,4.59.91,9.07.91,18s0,13.42-.91,18c-3.76,18.9-18.4,33.54-37.3,37.3-4.59.91-9.07.91-18,.91ZM56.21,95.02c-7.06,0-10.96,0-13.12.43-8.95,1.78-15.88,8.71-17.66,17.66-.43,2.17-.43,6.06-.43,13.13s0,10.96.43,13.13c1.78,8.95,8.71,15.88,17.65,17.66,2.17.43,6.06.43,13.13.43h227.31c7.07,0,10.96,0,13.13-.43,8.95-1.78,15.88-8.71,17.66-17.66.43-2.17.43-6.06.43-13.13s0-10.96-.43-13.13c-1.78-8.94-8.71-15.87-17.65-17.65-2.17-.43-6.06-.43-13.13-.43H56.21Z"/><path class="cls-1" d="M239.81,322.34H99.93c-35.23,0-54.63,0-68.54-13.9-13.9-13.9-13.9-33.31-13.9-68.54v-69.94c0-6.9,5.6-12.5,12.5-12.5s12.5,5.6,12.5,12.5v69.94c0,30.7.27,44.54,6.58,50.86,6.32,6.32,20.16,6.58,50.86,6.58h139.88c30.7,0,44.54-.27,50.86-6.58s6.58-20.16,6.58-50.86v-69.94c0-6.9,5.6-12.5,12.5-12.5s12.5,5.6,12.5,12.5v69.94c0,35.23,0,54.63-13.9,68.54-13.9,13.9-33.31,13.9-68.54,13.9Z"/><path class="cls-1" d="M169.87,322.34c-6.9,0-12.5-5.6-12.5-12.5V82.52c0-6.9,5.6-12.5,12.5-12.5s12.5,5.6,12.5,12.5v227.31c0,6.9-5.6,12.5-12.5,12.5Z"/><path class="cls-1" d="M152.38,95.02h-55.46c-19.54,0-36.32-11.22-43.8-29.28-7.5-18.11-3.55-37.97,10.3-51.83C72.97,4.37,86.18-.67,99.67.07c13.46.75,26.01,7.21,34.43,17.73l34.61,43.26c5.07,6.33,6.03,14.81,2.52,22.11-3.51,7.31-10.73,11.85-18.84,11.85ZM149.19,76.68h0,0ZM96.98,25c-6,0-11.59,2.32-15.88,6.6-6.67,6.67-8.49,15.86-4.88,24.58,3.59,8.67,11.33,13.85,20.7,13.85h46.93l-29.29-36.61c-4.04-5.05-9.82-8.02-16.29-8.38-.44-.02-.87-.04-1.3-.04Z"/><path class="cls-1" d="M242.81,95.02h-55.46c-8.11,0-15.33-4.54-18.84-11.85-3.51-7.31-2.55-15.78,2.52-22.11l34.61-43.26C214.06,7.28,226.61.82,240.07.07c13.49-.74,26.69,4.3,36.24,13.85,13.86,13.86,17.8,33.71,10.3,51.83-7.48,18.06-24.26,29.28-43.8,29.28ZM195.88,70.02h46.93c9.37,0,17.11-5.18,20.7-13.85,3.61-8.72,1.79-17.91-4.88-24.58-4.59-4.59-10.7-6.92-17.18-6.56-6.47.36-12.25,3.33-16.29,8.38l-29.29,36.61ZM180.79,68.87h0,0Z"/></g></svg>