<?xml version="1.0" encoding="UTF-8"?><svg id="Layer_2" xmlns="http://www.w3.org/2000/svg" viewBox="0 0 287.01 320.21"><defs><style>.cls-1{fill:#f68b1f;stroke-width:0px;}</style></defs><g id="Layer_1-2"><path class="cls-1" d="M235.52,320.21H51.49c-28.39,0-51.49-23.1-51.49-51.49V84.69c0-28.39,23.1-51.49,51.49-51.49h184.03c28.39,0,51.49,23.1,51.49,51.49v184.03c0,28.39-23.1,51.49-51.49,51.49ZM51.49,58.2c-14.61,0-26.49,11.88-26.49,26.49v184.03c0,14.61,11.88,26.49,26.49,26.49h184.03c14.61,0,26.49-11.88,26.49-26.49V84.69c0-14.61-11.88-26.49-26.49-26.49H51.49Z"/><path class="cls-1" d="M270.26,136.56H12.5c-6.9,0-12.5-5.6-12.5-12.5s5.6-12.5,12.5-12.5h257.76c6.9,0,12.5,5.6,12.5,12.5s-5.6,12.5-12.5,12.5Z"/><circle class="cls-1" cx="80.95" cy="180.17" r="17.94"/><circle class="cls-1" cx="143.51" cy="180.17" r="17.94"/><circle class="cls-1" cx="206.06" cy="180.17" r="17.94"/><circle class="cls-1" cx="80.95" cy="233.02" r="17.94"/><circle class="cls-1" cx="143.51" cy="233.02" r="17.94"/><circle class="cls-1" cx="206.06" cy="233.02" r="17.94"/><path class="cls-1" d="M84.43,58.2c-6.9,0-12.5-5.6-12.5-12.5V12.5c0-6.9,5.6-12.5,12.5-12.5s12.5,5.6,12.5,12.5v33.2c0,6.9-5.6,12.5-12.5,12.5Z"/><path class="cls-1" d="M202.58,58.2c-6.9,0-12.5-5.6-12.5-12.5V12.5c0-6.9,5.6-12.5,12.5-12.5s12.5,5.6,12.5,12.5v33.2c0,6.9-5.6,12.5-12.5,12.5Z"/></g></svg>