<?xml version="1.0" encoding="UTF-8"?>
<svg id="Layer_2" data-name="Layer 2" xmlns="http://www.w3.org/2000/svg" viewBox="0 0 512 450">
  <defs>
    <style>
      .cls-1 {
        fill: #0056ff;
      }
    </style>
  </defs>
  <g id="Capa_1" data-name="Capa 1">
    <g>
      <path class="cls-1" d="M480.05,338.74c49.48-69.42,41.91-164.52-25.67-226.47-30.88-28.31-70.24-45.93-112.76-50.85-.27-.33-.54-.65-.83-.96C303.8,22.04,250.66,0,194.99,0,89.05,0,0,78.93,0,180c0,35.43,11.01,69.4,31.92,98.74L2.71,370.45c-1.84,5.76-.03,12.07,4.58,15.98,4.62,3.92,11.13,4.68,16.51,1.94l88.83-45.17c18.24,7.86,37.59,13.01,57.62,15.35,38.64,40.64,92.07,61.44,146.74,61.44,28.42,0,56.73-5.79,82.36-16.8l88.83,45.17c2.15,1.09,4.48,1.63,6.8,1.63,10.12,0,17.38-9.86,14.3-19.55l-29.21-91.71ZM118.68,313.02c-4.2-1.99-9.09-1.93-13.23.18l-63.27,32.17,20.66-64.87c1.5-4.72.58-9.88-2.47-13.79-19.87-25.43-30.37-55.42-30.37-86.72C30,97.29,104.01,30,194.99,30c36.64,0,71.9,11.1,100.51,31.09-96.35,9.69-173.51,84.94-173.51,178.91,0,29.23,7.49,57.37,21.62,82.58-8.55-2.55-16.88-5.73-24.93-9.55h0ZM406.52,373.2c-4.08-2.08-8.98-2.2-13.23-.18-23.39,11.11-49.77,16.98-76.31,16.98-90.98,0-164.99-67.29-164.99-150s74.01-150,164.99-150,164.99,67.29,164.99,150c0,31.3-10.5,61.29-30.37,86.71-3.05,3.9-3.98,9.07-2.47,13.79l20.66,64.87-63.27-32.17Z"/>
      <circle class="cls-1" cx="255.98" cy="240" r="15" transform="translate(-21.92 454.23) rotate(-80.78)"/>
      <circle class="cls-1" cx="315.98" cy="240" r="15"/>
      <circle class="cls-1" cx="375.98" cy="240" r="15"/>
    </g>
  </g>
</svg>