<?xml version="1.0" encoding="UTF-8"?>
<svg id="Layer_2" data-name="Layer 2" xmlns="http://www.w3.org/2000/svg" viewBox="0 0 506.15 426.04">
  <defs>
    <style>
      .cls-1 {
        fill: #0056ff;
      }
    </style>
  </defs>
  <g id="Capa_1" data-name="Capa 1">
    <g id="Layer_1-2" data-name="Layer 1-2">
      <g>
        <g>
          <g>
            <path class="cls-1" d="M40.5,122.08c0,51.46,41.84,93.33,93.33,93.33,123.5-4.37,123.46-182.29,0-186.63-51.46,0-93.33,41.84-93.33,93.33v-.03ZM196.02,122.08c-2.61,82.21-121.83,82.21-124.41,0,2.61-82.21,121.83-82.21,124.41,0Z"/>
            <path class="cls-1" d="M133.64,33.64c-48.59,0-88.24,39.65-88.24,88.44s39.65,88.44,88.44,88.44c42.17-1.5,87.72-29.81,87.72-88.44s-45.56-86.94-87.89-88.41l-.03-.03ZM133.8,188.6h0c-31.31,0-65.65-20.77-67.08-66.4,1.43-45.92,35.81-66.69,67.11-66.69h0c31.31,0,65.65,20.77,67.08,66.4v.33c-1.43,45.62-35.81,66.4-67.11,66.4v-.03Z"/>
          </g>
          <g>
            <path class="cls-1" d="M249.86,425.88c-8.09-.78-14.02-8.02-14.02-16.14v-19.27c0-55.7-43.6-102.85-99.27-104.52s-105.5,44.84-105.5,102.33v20.32c0,8.22-6,15.59-14.15,16.31-9.23.78-16.92-6.46-16.92-15.49v-18.62c0-72.89,57.39-134.23,130.28-135.95,72.89-1.73,136.7,58.76,136.7,133.44v22.11c0,9.1-7.79,16.37-17.09,15.49h-.03Z"/>
            <path class="cls-1" d="M133.41,281.02c1.08,0,2.18,0,3.29.07,57.36,1.7,104.03,50.77,104.03,109.41v19.27c0,5.8,4.21,10.76,9.59,11.28h0c3.07.29,5.97-.68,8.22-2.71,2.22-2.02,3.49-4.89,3.49-7.89v-22.11c0-34.86-13.79-67.54-38.81-91.96-25.01-24.43-57.98-37.4-92.88-36.59-69.2,1.63-125.49,60.43-125.49,131.06v18.62c0,3.03,1.24,5.8,3.46,7.86s5.12,3.03,8.15,2.77c5.45-.46,9.69-5.48,9.69-11.41v-20.32c0-29.22,11.58-56.55,32.61-76.96,20.22-19.63,46.6-30.33,74.65-30.33v-.07Z"/>
          </g>
        </g>
        <g>
          <g>
            <path class="cls-1" d="M279.74,93.3c0,51.46,41.84,93.33,93.33,93.33,123.5-4.37,123.46-182.29,0-186.63-51.46,0-93.33,41.84-93.33,93.33v-.03ZM435.29,93.3c-2.61,82.21-121.83,82.21-124.41,0,2.61-82.21,121.83-82.21,124.41,0Z"/>
            <path class="cls-1" d="M372.9,4.86c-48.59,0-88.24,39.65-88.24,88.44s39.65,88.44,88.44,88.44c42.17-1.5,87.72-29.81,87.72-88.44S415.27,6.36,372.94,4.86h-.03ZM373.07,159.83h0c-31.31,0-65.65-20.77-67.08-66.4,1.43-45.92,35.81-66.69,67.11-66.69h0c31.31,0,65.65,20.77,67.08,66.4v.33c-1.43,45.62-35.81,66.4-67.11,66.4v-.03Z"/>
          </g>
          <g>
            <path class="cls-1" d="M490.66,402.71c-8.58,0-15.56-6.98-15.56-15.56v-27.65c0-56.45-45.92-102.4-102.4-102.4s-102.4,45.92-102.4,102.4v23.41c0,8.58-6.95,15.56-15.56,15.56s-15.56-6.98-15.56-15.56v-23.41c0-73.6,59.87-133.48,133.48-133.48s133.48,59.87,133.48,133.48v27.65c0,8.58-6.95,15.56-15.56,15.56h.07Z"/>
            <path class="cls-1" d="M372.71,252.24c59.16,0,107.29,48.13,107.29,107.29v27.65c0,5.87,4.79,10.66,10.66,10.66s10.66-4.79,10.66-10.66v-27.65c0-70.9-57.69-128.58-128.58-128.58s-128.58,57.69-128.58,128.58v23.41c0,5.87,4.79,10.66,10.66,10.66s10.66-4.79,10.66-10.66v-23.41c0-59.16,48.13-107.29,107.29-107.29h-.07Z"/>
          </g>
        </g>
        <path class="cls-1" d="M488.05,409.1h-231.68c-9.84,0-17.82-7.34-17.82-16.39s7.98-16.39,17.82-16.39h231.68c9.84,0,17.82,7.34,17.82,16.39s-7.98,16.39-17.82,16.39Z"/>
        <path class="cls-1" d="M249.23,426.04H18.22c-9.81,0-17.77-7.34-17.77-16.39s7.95-16.39,17.77-16.39h231.01c9.81,0,17.77,7.34,17.77,16.39s-7.96,16.39-17.77,16.39Z"/>
      </g>
    </g>
  </g>
</svg>