<?xml version="1.0" encoding="UTF-8"?><svg id="Layer_2" xmlns="http://www.w3.org/2000/svg" viewBox="0 0 233.55 233.55"><defs><style>.cls-1{fill:#ffcd33;}.cls-1,.cls-2,.cls-3,.cls-4{stroke-width:0px;}.cls-2{fill:#ac6f00;}.cls-3{fill:#e3a32f;}.cls-4{fill:#fff0a2;}</style></defs><g id="Layer_8"><circle class="cls-1" cx="116.78" cy="116.78" r="116.78"/><circle class="cls-3" cx="116.78" cy="116.78" r="90.02"/><path class="cls-4" d="M180.78,90.17c-3.5-8.49-16.5-13.51-33.33-4.5,9.08-16.79,4.12-29.81-4.36-33.35-8.48-3.53-21.22,2.12-26.75,20.39-5.45-18.29-18.17-24-26.66-20.5-8.49,3.5-13.51,16.5-4.5,33.33-16.79-9.08-29.81-4.12-33.35,4.36-3.53,8.48,2.12,21.22,20.39,26.75-18.29,5.45-24,18.17-20.5,26.66,3.5,8.49,16.5,13.51,33.33,4.5-9.08,16.79-4.12,29.81,4.36,33.35,8.48,3.53,21.22-2.12,26.75-20.39,5.45,18.29,18.17,24,26.66,20.5,8.49-3.5,13.51-16.5,4.5-33.33,16.79,9.08,29.81,4.12,33.35-4.36,3.53-8.48-2.12-21.22-20.39-26.75,18.29-5.45,24-18.17,20.5-26.66Z"/><circle class="cls-2" cx="116.25" cy="116.74" r="24.6" transform="translate(-35.69 53.05) rotate(-22.38)"/></g></svg>