<?xml version="1.0" encoding="UTF-8"?><svg id="Layer_2" xmlns="http://www.w3.org/2000/svg" viewBox="0 0 189.27 228.34"><defs><style>.cls-1{fill:#ffcd33;}.cls-1,.cls-2{stroke-width:0px;}.cls-2{fill:#d38000;}</style></defs><g id="Layer_8"><path class="cls-1" d="M181.27,99.94c-.36-.81-.74-1.63-1.15-2.47-.18-.36-.36-.71-.54-1.07-.35-.69-.72-1.38-1.1-2.08-.45-.82-.9-1.64-1.38-2.44-.3-.51-.6-1.02-.91-1.53-.27-.45-.54-.91-.82-1.35-10.36-16.78-29.64-40.33-29.64-40.33l-7.61,1.83c-13.02-6.53-27.8-5.28-43.47-5.28s-30.45-1.25-43.47,5.28l-7.58-1.82s-18.68,22.86-29.04,39.35C5.35,102.13,0,118.84,0,136.77c0,50.57,42.37,91.57,94.63,91.57s94.63-41,94.63-91.57c0-13.11-2.87-25.56-7.99-36.83Z"/><path class="cls-2" d="M71.8,63.6s-.06.04-.09.07c-.11.09-.23.18-.34.27-.26.26-.18.39.44-.34Z"/><path class="cls-2" d="M72.03,74.2c.05-.01.11-.03.16-.04.16-.05.31-.11.46-.17,0,0,.01,0,.02,0,.03-.01.05-.03.08-.04-.62.18-.79.26-.72.26Z"/><path class="cls-2" d="M70.16,74.19c-.08-.03-.17-.05-.25-.08.07.03.13.05.18.07.02,0,.04,0,.06,0Z"/><path class="cls-2" d="M70.63,74.33s.03,0,.04,0c.06,0,.12,0,.18,0-.34-.09-.56-.13-.69-.14.15.05.31.1.47.14Z"/><path class="cls-2" d="M70.1,74.18s-.06,0-.07,0c.3.13.33.1.07,0Z"/><path class="cls-2" d="M69.74,74.05s.02,0,.03.01c.05.02.1.03.15.05-.06-.02-.11-.04-.18-.06Z"/><path class="cls-2" d="M67.39,69.7s0,.03,0,.05c.13-.39.18-.62.18-.7-.05.22-.12.43-.18.65Z"/><path class="cls-2" d="M132.61,69.43c-.66-9.48-8.94-15.54-16.92-19.19-5.83-2.66-12.05-4.79-18.36-6.02-.86-.28-1.8-.33-2.76-.05-.5-.09-.99-.12-1.46-.08-.02,0-.05,0-.07,0-.18.01-.36.03-.54.06-.17.02-.34.02-.51.06-5.02.97-10,2.52-14.72,4.45-8.06,3.29-17.41,8.18-20.03,17.2-1.56,5.39-.13,11.87,4.27,15.49,4.82,3.96,10.77,4.75,16.43,1.98,1.45-.71,2.78-1.66,4.01-2.73-.25,2.15-.49,4.3-.67,6.45-.29,3.39-.44,6.78.17,10.14.5,2.77,4.02,4.59,6.6,3.75,2.81-.91,4.12-3.36,3.8-6.13,0,.06.02.1.02.09,0-.24-.05-.48-.06-.72-.04-.62-.05-1.24-.05-1.86,0-1.48.08-2.95.2-4.43.13-1.69.3-3.38.5-5.06.11-.91.22-1.81.34-2.72,0-.02,0-.03,0-.04,0-.05.01-.1.02-.17.08-.55.15-1.1.23-1.65.43-2.98.91-5.96,1.42-8.93.42,2.48.83,4.95,1.21,7.44.14.94.28,1.88.41,2.82.02.16.04.32.07.48.06.45.12.9.17,1.35.22,1.78.42,3.57.58,5.36.15,1.66.26,3.32.28,4.99.01.71,0,1.43-.03,2.14-.01.28-.05.55-.06.83,0,.07,0,.11,0,.15-.26,2.62.99,5.43,3.8,6.07,2.62.6,6.07-.79,6.6-3.75,1-5.53.27-11.38-.55-17,.85.76,1.74,1.48,2.68,2.14,4.83,3.33,11.35,3.73,16.29.41,1.28-.86,2.52-1.86,3.53-3.04,2.3-2.7,3.39-6.76,3.15-10.27ZM80.17,65.82c-.57.94-1.17,1.87-1.81,2.77-.18.25-.35.49-.53.74-.19.27-.25.38-.24.41-.26.28-.57.57-.67.68-.54.61-1.1,1.2-1.69,1.76-.27.25-.54.5-.82.73-.02.02-.04.03-.06.05-.02.01-.04.02-.06.04-.51.33-1.01.66-1.55.94.1-.03.19-.05.31-.09-.14.04-.27.09-.41.14-.27.14-.56.21-.62.21-.15.04-.31.08-.46.12-.24,0-.48.01-.72.02.1.03.2.06.33.09,0,0,0,0-.01,0-.16-.04-.33-.06-.49-.09-.04,0-.07,0-.11,0-.35,0-.59-.11-.53-.14-.07-.03-.16-.08-.27-.13-.12-.04-.25-.09-.37-.12.13.04.24.07.34.11-.04-.02-.07-.04-.12-.06-.31-.17-.61-.37-.9-.56-.15-.13-.31-.27-.45-.41-.12-.12-.23-.24-.34-.37-.13-.4-.26-.79-.37-1.19-.02-.09-.07-.31-.11-.53-.02-.27-.06-.69-.06-.83,0-.11,0-.23,0-.34-.03.08-.05.14-.08.23.03-.09.05-.19.08-.28,0-.02,0-.03,0-.05.02-.43.18-.74.18-.59.08-.34.16-.67.26-.99.03-.06.05-.11.08-.16.21-.39.43-.77.68-1.14.06-.09.13-.18.19-.28.2-.23.39-.46.6-.69.6-.64,1.24-1.24,1.91-1.81.02-.02.05-.04.07-.05.06-.06.12-.12.21-.18.04-.03.09-.06.13-.09.06-.05.12-.09.16-.14-.02.03-.04.05-.06.07.27-.19.53-.38.81-.57.79-.53,1.59-1.03,2.42-1.49,1.64-.94,3.35-1.73,5.07-2.51.17-.07.34-.14.51-.21.47-.19.95-.37,1.43-.55.52-.2,1.05-.37,1.58-.56.46-.13.67.27.53.55-1.19,2.58-2.49,5.12-3.96,7.56ZM121.24,72.97s0,0,.01,0c-.05.15-.04.11-.01,0ZM121.89,69.87c0,.13,0,.27-.02.41.05-.01.09.15.02.47-.02.09-.04.19-.06.28,0,.07,0,.14,0,.21,0-.07-.01-.11-.02-.17-.03.13-.06.27-.09.4-.1.41-.24.81-.37,1.21-.01.01-.03.03-.04.04.06-.22.11-.37-.02.02-.24.24-.49.47-.74.7-.28.18-.56.37-.85.53-.07.04-.14.07-.21.11-.26.09-.52.18-.79.25-.02,0-.05.01-.07.02-.31,0-.62-.01-.94-.02-.21-.05-.41-.09-.62-.16-.13-.04-.26-.09-.39-.13-.03-.01-.06-.03-.09-.04-.62-.31-1.17-.71-1.75-1.08-.05-.04-.11-.09-.16-.13-.34-.29-.67-.6-.99-.91-.76-.74-1.45-1.55-2.14-2.36-.06-.07-.11-.12-.16-.17-.11-.17-.22-.34-.32-.49-.37-.52-.73-1.04-1.08-1.58-1.69-2.59-3.14-5.32-4.46-8.11-.14-.31-.28-.62-.42-.92-.11-.29.1-.66.56-.52.64.23,1.28.45,1.92.69.44.17.88.34,1.31.51.08.03.17.07.25.1.85.38,1.7.75,2.53,1.16,1.71.84,3.39,1.78,4.97,2.84.35.24.69.48,1.03.73,0,0,.01,0,.02.01.05.04.1.08.17.14.71.59,1.38,1.21,2.01,1.88.21.23.41.46.61.69.04.06.08.12.12.18.23.34.44.68.63,1.04.06.12.12.24.19.36.09.33.18.66.26,1,.03.03.12.28.16.59.03.11.06.23.09.34-.04-.11-.06-.18-.09-.26,0,.05.01.1.01.15Z"/><path class="cls-2" d="M121.7,69.06s0,.15.17.66c0-.03,0-.05,0-.08-.06-.19-.11-.39-.16-.59Z"/><path class="cls-2" d="M121.82,71.06s0-.02,0-.04c0-.24.02-.5.05-.75-.05.02-.11.26-.05.79Z"/><path class="cls-2" d="M99.66,109.59l9.34,18.92,20.88,3.03c4.6.67,6.44,6.32,3.11,9.56l-15.11,14.73,3.57,20.8c.79,4.58-4.02,8.07-8.14,5.91l-18.68-9.82-18.68,9.82c-4.11,2.16-8.92-1.33-8.14-5.91l3.57-20.8-15.11-14.73c-3.33-3.24-1.49-8.9,3.11-9.56l20.88-3.03,9.34-18.92c2.06-4.17,8-4.17,10.06,0Z"/><path class="cls-1" d="M157.19,16.52c0-3.42-1.05-6.6-2.84-9.24-2.99-4.39-8.04-7.28-13.77-7.28h0c-6.89,0-12.8,4.17-15.31,10.11-2.52-5.94-8.43-10.11-15.31-10.11h0c-6.89,0-12.8,4.17-15.31,10.11-2.52-5.94-8.43-10.11-15.31-10.11h0c-6.89,0-12.8,4.17-15.31,10.11-2.52-5.94-8.43-10.11-15.31-10.11h0c-5.73,0-10.79,2.89-13.77,7.28-.3.44-.58.89-.83,1.36-.51.94-.93,1.93-1.26,2.96-.49,1.55-.75,3.2-.75,4.91,0,.59.03,1.17.09,1.74.73,9.09,18.72,28.05,18.72,28.05h-.97,89.42-.97s17.99-18.96,18.72-28.05c.06-.57.09-1.15.09-1.74Z"/><path class="cls-2" d="M142.73,39.85c-.27,0-.53.03-.79.08-.14.02-.29.04-.43.08-16.45,4.11-75.96,4.1-93.39.09-.15-.04-.31-.06-.46-.08-.36-.1-.74-.16-1.13-.16-2.57,0-4.66,2.36-4.66,5.26,0,1.54.59,2.92,1.53,3.89,3.22,6.22,86.65,6.63,100.41,1.23,2.05-.55,3.58-2.63,3.58-5.11,0-2.91-2.09-5.26-4.66-5.26Z"/></g></svg>